<?xml version="1.0" standalone="no"?>
<!DOCTYPE svg PUBLIC "-//W3C//DTD SVG 1.1//EN" "http://www.w3.org/Graphics/SVG/1.1/DTD/svg11.dtd" >
<svg>
<metadata>
Created by FontForge 20120731 at Thu Jun  3 16:17:28 2021
 By fw_worker
Copyright (c) 2015 by Brielle Lang. All rights reserved.
</metadata>
<defs>
<font id="Photographs" horiz-adv-x="205" >
  <font-face 
    font-family="Photographs"
    font-weight="400"
    font-stretch="normal"
    units-per-em="1000"
    panose-1="0 0 0 0 0 0 0 0 0 0"
    ascent="870"
    descent="-130"
    x-height="570"
    cap-height="796.5"
    bbox="-79.931 -259.517 716.051 1031.72"
    underline-thickness="50"
    underline-position="-50"
    unicode-range="U+0020-2212"
  />
<missing-glyph horiz-adv-x="238" 
 />
    <glyph glyph-name=".notdef" horiz-adv-x="238" 
 />
    <glyph glyph-name="B" unicode="B" horiz-adv-x="295" 
d="M17 760q3 16 12.5 24.5t21 9t22 -7.5t16.5 -25v-5q21 20 44.5 31t46.5 10t43.5 -15t35.5 -44q19 -39 21 -82t-8 -87.5t-30 -88.5t-44 -84q33 -9 51.5 -33t25.5 -55t3.5 -64.5t-15.5 -60.5q-15 -35 -33 -64t-46 -53q-23 -21 -48 -33t-53 -17q-6 -9 -15.5 -13.5t-19.5 -4
t-18.5 7.5t-12.5 20q-1 6 -2 13.5t-1 27t0.5 56t2.5 100.5q-13 0 -27 14q-8 12 -8.5 24t4 24t13 23.5t18.5 21.5v430zM88 668v-67v-75.5t0.5 -75.5t0.5 -68q2 1 4.5 2t4.5 2q22 11 41 38t33.5 61t24.5 72t12.5 72t-2.5 59t-19.5 34t-39 -2.5t-60.5 -51.5zM196 302
q-8 20 -21 23.5t-29 -0.5q-13 -14 -27 -31t-30 -32v-169q26 10 50.5 32.5t41 51.5t22 62t-6.5 63z" />
    <glyph glyph-name="C" unicode="C" horiz-adv-x="326" 
d="M22 539q5 40 11 76.5t15.5 67.5t22.5 54.5t33 38.5q34 21 62 20.5t50 -15.5t38.5 -40.5t27 -55t15.5 -59t5 -51.5q0 -18 -10.5 -29.5t-23.5 -14.5t-24.5 3.5t-14.5 24.5q-3 16 -8 45.5t-14 56.5t-22.5 44t-34.5 7q-14 -8 -24 -45q-14 -54 -21 -104.5t-9.5 -98t-2 -92.5
t2.5 -90q0 -7 2.5 -37t7.5 -64.5t14 -64.5t22 -36q20 -10 33.5 6.5t22.5 43.5t14 56.5t9 46.5q2 18 14 24.5t25 3.5t23.5 -14.5t10.5 -28.5q-3 -22 -10 -51.5t-18.5 -58.5t-27 -54.5t-36.5 -40.5t-47.5 -16t-58.5 20q-32 23 -51 79.5t-27.5 130.5t-7 156t11.5 156z" />
    <glyph glyph-name="D" unicode="D" horiz-adv-x="329" 
d="M22 760q-1 10 4.5 22.5t22.5 12.5q65 4 113.5 -24t81 -77.5t49 -115t18 -136.5t-12.5 -141.5t-42.5 -131t-72 -104.5t-101.5 -62q-9 -3 -20.5 -3t-21 2.5t-16 8t-6.5 15.5q-1 207 1.5 386t2.5 348zM92 720q-1 -156 0 -313t0 -315q42 24 72 66.5t47.5 95t23.5 111t1 114
t-22 105t-44 83.5q-19 24 -40 38.5t-38 14.5z" />
    <glyph glyph-name="E" unicode="E" horiz-adv-x="287" 
d="M56 -1q-17 3 -31.5 13.5t-14.5 30.5q3 88 3.5 169t0.5 161t-0.5 162.5t-0.5 172.5q-14 30 -4 49t34 29t57 12t65 -1t58 -9.5t36 -14.5q12 -12 13 -24t-6 -20.5t-19.5 -13t-27.5 -1.5q-36 2 -68.5 5.5t-66.5 -2.5v-156.5t1 -159.5q25 -1 46.5 3.5t44.5 6.5q11 2 21.5 -1.5
t17.5 -11t8 -19t-8 -24.5q-23 -20 -59 -26.5t-71 -4.5q2 -66 2 -126t-2 -125q38 1 78 7t74 20q18 4 29 -4t14.5 -20.5t-2 -26.5t-20.5 -22q-45 -17 -99.5 -23.5t-102.5 -4.5z" />
    <glyph glyph-name="F" unicode="F" horiz-adv-x="281" 
d="M87 401q9 1 21.5 2.5t25.5 3t25 3t21 1.5q11 1 21 -3t16 -11.5t6.5 -18.5t-7.5 -23q-10 -9 -25.5 -15t-33 -9.5t-36 -5t-34.5 -1.5q1 -75 1 -143.5t-1 -141.5q-2 -20 -13 -29.5t-24.5 -9.5t-24.5 9.5t-13 28.5q2 89 2.5 170.5t0.5 162t-0.5 163t-0.5 173.5q-12 30 -4 49
t29 29t50 13t59 0.5t57.5 -9t43.5 -15.5q15 -12 17.5 -23.5t-3.5 -21t-17 -14.5t-22 -3q-40 8 -75 9t-64 -2v-158.5t2 -159.5z" />
    <glyph glyph-name="G" unicode="G" horiz-adv-x="326" 
d="M170 324q-5 20 1 32t15 18.5t18 9t11 3.5q12 3 23 4q10 1 20.5 0.5t19.5 -5.5q16 -11 22.5 -34t8 -48.5t-1 -49.5t-3.5 -36q-2 -22 -10 -52t-21 -59.5t-31 -56t-40.5 -41t-49 -14.5t-56.5 23q-31 29 -49 87t-25 130.5t-5 152.5t10 153q5 43 12 82.5t16 70.5t21 52.5
t28 29.5q36 20 63 19t46.5 -16t33 -40.5t21 -54.5t10.5 -58t3 -51q0 -18 -10.5 -29.5t-23.5 -14.5t-25 3.5t-14 24.5q-4 16 -5.5 45.5t-6.5 56.5t-15 44t-31 7q-14 -8 -24 -45q-14 -54 -21 -104.5t-9.5 -98t-2 -92.5t2.5 -90q0 -5 1 -20.5t3 -36.5t5.5 -45t9 -45t12 -36
t15.5 -19q17 -8 32 3.5t27 33.5t20.5 51t13.5 57t5.5 50.5t-3.5 32.5q-12 -2 -23 -4t-20 -1t-15 5.5t-9 15.5z" />
    <glyph glyph-name="H" unicode="H" horiz-adv-x="322" 
d="M224 750q0 20 10.5 32.5t23 14t24.5 -9t15 -36.5q-2 -179 -0.5 -355.5t0.5 -357.5q-4 -13 -14 -20.5t-22 -8.5t-22.5 5.5t-15.5 21.5q1 79 1.5 148t0.5 144q-17 5 -33.5 4t-33.5 -5t-33.5 -10t-32.5 -10q1 -72 1 -136t-1 -133q-3 -13 -13.5 -20.5t-22.5 -8.5t-23 5.5
t-16 21.5q2 95 2.5 181.5t0.5 172t-0.5 174t-0.5 186.5q1 22 12 33.5t24 12t24.5 -10.5t12.5 -34q-1 -93 -1 -180.5t1 -182.5q13 5 30.5 10t36 8t35.5 3t31 -5q0 87 -0.5 169t-0.5 177z" />
    <glyph glyph-name="one" unicode="1" horiz-adv-x="123" 
d="M23 754q1 18 11.5 29t23.5 12.5t24.5 -8t13.5 -32.5q-2 -181 -0.5 -357.5t0.5 -359.5q-2 -18 -13 -28t-24.5 -10.5t-24.5 8t-13 28.5q2 95 2.5 182t0.5 173.5t-0.5 175.5t-0.5 187z" />
    <glyph glyph-name="hyphen" unicode="-" horiz-adv-x="326" 
d="M44 289q-13 3 -20 13t-7.5 21.5t6.5 22.5t22 17h231q17 0 25 -11.5t7.5 -25t-8.5 -25.5t-23 -12h-233z" />
    <glyph glyph-name="I" unicode="I" horiz-adv-x="236" 
d="M4 3q-16 3 -23 14.5t-5.5 24.5t10.5 23.5t24 10.5h66q1 81 1.5 159.5t0 157t-1 158.5t-0.5 164h-25t-12.5 -0.5t-10 -1t-18.5 -1.5q-17 3 -26.5 12.5t-11 21t5.5 23t23 18.5q7 3 26 5t43.5 3t51.5 1.5t51 0t42.5 -1t25.5 -1.5q18 -5 25.5 -17t5.5 -25t-12 -23t-26 -10h2
q-20 0 -43 -1t-44 -2q-1 -157 0 -318t0 -319q20 1 40 1.5t39 -4.5q15 -3 22.5 -14t8 -23.5t-5.5 -23.5t-19 -14q-23 -2 -53.5 -2.5t-63 0t-62.5 1.5t-51 3z" />
    <glyph glyph-name="J" unicode="J" horiz-adv-x="302" 
d="M123 721q-20 3 -29.5 15t-9 25.5t11 24t30.5 10.5h180q19 0 30 -10t12.5 -22.5t-6.5 -25t-27 -17.5h-65q1 -62 3.5 -117.5t3.5 -110.5t-0.5 -111t-6.5 -118q-2 -41 -6.5 -82t-15.5 -81q-9 -31 -28.5 -54.5t-43.5 -35.5t-50 -10t-48.5 20.5t-38 56.5t-18.5 98
q3 17 13.5 26t22 9.5t22 -7t15.5 -24.5q1 -19 4 -38.5t9.5 -33.5t16.5 -21t25 -2q17 8 26 33.5t13 55t5 57.5t3 42q18 226 0 448h-53v0z" />
    <glyph glyph-name="K" unicode="K" horiz-adv-x="348" 
d="M23 760q3 16 13 24.5t21 9t22 -7.5t17 -25q-1 -71 -1 -143v-145q45 73 88.5 143t94.5 129q16 12 29.5 10t21 -13t7.5 -27.5t-12 -32.5q-27 -36 -50 -71.5t-45 -70t-44.5 -68t-47.5 -64.5q23 -39 49.5 -84.5t52 -92t48 -91t39.5 -82.5q8 -18 4 -33t-14.5 -21.5t-24.5 -3
t-24 21.5q-47 81 -88.5 159t-82.5 153v-307q-4 -14 -14.5 -21t-22 -7.5t-22.5 6t-16 21.5q2 94 2.5 184t0.5 179.5t-0.5 181t-0.5 189.5z" />
    <glyph glyph-name="L" unicode="L" horiz-adv-x="311" 
d="M63 -1q-11 -2 -24 4t-18 23q2 94 2.5 184t0.5 179.5t-0.5 181t-0.5 189.5q3 16 13 24.5t21 9t22 -7.5t17 -25q-2 -166 -1 -335.5t1 -337.5q42 11 86.5 13.5t85.5 -5.5q17 -5 24 -17t5.5 -24.5t-10.5 -23t-24 -13.5h-1q-51 0 -100 -0.5t-99 -18.5z" />
    <glyph glyph-name="M" unicode="M" horiz-adv-x="451" 
d="M23 760q6 13 17.5 23t25 13.5t28.5 -1t28 -18.5q13 -31 24.5 -73.5t20.5 -91t17 -100t14.5 -101.5t11.5 -95t10 -80q2 30 6 74t9.5 94.5t12.5 104t15.5 103t18.5 91t21 69.5q5 13 20.5 19.5t32.5 4.5t30.5 -13.5t14.5 -33.5q10 -104 16.5 -196.5t10 -177.5t4 -165.5
t-0.5 -161.5q0 -23 -10.5 -35.5t-23 -14.5t-24 7.5t-12.5 30.5q-1 143 -5 279t-18 273q-10 -75 -19.5 -144t-19 -136t-19.5 -134t-22 -138q-3 -20 -15.5 -29t-26.5 -8.5t-26 10.5t-13 29q-9 64 -19 135l-20 142t-20.5 140.5t-22.5 132.5q0 -141 0.5 -281.5t0.5 -279.5
q-4 -14 -14.5 -21t-22 -7.5t-22.5 6t-16 21.5q2 94 2.5 184t0.5 179.5t-0.5 181t-0.5 189.5z" />
    <glyph glyph-name="O" unicode="O" horiz-adv-x="395" 
d="M263 785q35 -21 57 -58t34 -84t14.5 -101t-1.5 -109t-12.5 -107t-19.5 -95q-5 -21 -13 -48.5t-20 -56t-28 -54.5t-37 -44t-47.5 -25.5t-58.5 1.5q-21 6 -37 24t-27.5 40.5t-19 46t-11.5 40.5q-5 23 -10.5 66t-8.5 97t-1.5 114.5t10 118t25.5 108t45 84.5t69 47t98 -5z
M254 689q-8 12 -21 20.5t-27.5 11.5t-29.5 -1t-26 -17q-17 -20 -28.5 -52t-18.5 -69.5t-10.5 -79t-4.5 -81t0.5 -74.5t3.5 -60q1 -12 5 -41.5t11 -62t18 -61.5t25.5 -41t33.5 0.5t43 62.5q11 25 19.5 52t15.5 53q6 25 12 61t10.5 77.5t6 85.5t-1.5 84.5t-11.5 75t-24.5 56.5
z" />
    <glyph glyph-name="P" unicode="P" horiz-adv-x="310" 
d="M23 760q3 13 10.5 21.5t17 11t19 -1t17.5 -13.5q27 6 49 3t45 -14q26 -14 42.5 -38.5t27 -53.5t15 -60t6.5 -57q3 -39 4.5 -79t-3.5 -78.5t-18.5 -74.5t-40.5 -66q-19 -21 -53 -33.5t-65 -11.5v-188q-4 -14 -14.5 -21t-22 -7.5t-22.5 6t-16 21.5q2 59 2 115.5v113.5
q1 124 0.5 247t-0.5 258zM201 404q4 28 5.5 74t-5.5 92.5t-24 84.5t-50 52q-13 0 -21.5 -1t-10.5 -9q0 -101 0.5 -202t0.5 -204q23 -4 41.5 6t31.5 28t21 39.5t11 39.5z" />
    <glyph glyph-name="N" unicode="N" horiz-adv-x="360" 
d="M23 760v5q0 13 7.5 22t18.5 12t23.5 -1t22.5 -17q24 -46 41 -94.5t32 -97.5q23 -68 44 -136.5t41 -139.5q2 30 3 70.5t1.5 85t1 89.5t0 85t-1 70.5t-1.5 46.5q1 22 14.5 31t28.5 7.5t27 -12t11 -26.5q-2 -92 -1.5 -183t0.5 -181.5t-1 -182t-6 -183.5q-14 -27 -36 -28.5
t-38 24.5q-20 58 -32.5 109.5t-29.5 111.5q-23 79 -46.5 157.5t-49.5 156.5l-2 9q0 -137 0.5 -273t0.5 -270q-4 -14 -14.5 -21t-22 -7.5t-22.5 6t-16 21.5q2 94 2.5 184t0.5 179.5t-0.5 181t-0.5 189.5z" />
    <glyph glyph-name="Q" unicode="Q" horiz-adv-x="395" 
d="M263 785q35 -21 57 -58t34 -84t14.5 -101t-1.5 -109t-12.5 -107t-19.5 -95q-5 -22 -13.5 -49.5t-19.5 -54.5q4 -10 8.5 -20t11.5 -19q8 7 18.5 8t19.5 -3.5t15.5 -14.5t6.5 -25q0 -17 -9 -29t-22 -18t-28.5 -5.5t-28.5 9.5q-12 7 -21 17.5t-17 21.5q-22 -29 -53 -43
t-72 -2q-21 6 -37 24t-27.5 40.5t-19 46t-11.5 40.5q-5 23 -10.5 66t-8.5 97t-1.5 114.5t10 118t25.5 108t45 84.5t69 47t98 -5zM212 202q10 10 21 12t20 0l10 35q6 25 12 61t10.5 77.5t6 85.5t-1.5 84.5t-11.5 75t-24.5 56.5q-8 12 -21 20.5t-27.5 11.5t-29.5 -1t-26 -17
q-17 -20 -28.5 -52t-18.5 -69.5t-10.5 -79t-4.5 -81t0.5 -74.5t3.5 -60q1 -12 4.5 -40.5t10.5 -60.5t17 -60.5t24 -42t32 -4.5t41 53q-11 20 -16 34.5t7 35.5z" />
    <glyph glyph-name="R" unicode="R" horiz-adv-x="373" 
d="M23 760q5 22 20.5 30t30.5 0q30 18 68 20.5t73 -7t60 -31t29 -52.5q7 -51 -6 -95t-38.5 -83t-60 -74t-68.5 -68q43 -53 72.5 -99.5t64.5 -98.5q24 -36 46 -74.5t43 -76.5q5 -16 0 -29t-15 -19t-23.5 -4.5t-25.5 13.5q-47 79 -93.5 153.5t-103.5 153.5v-292
q-4 -14 -14.5 -21t-22 -7.5t-22.5 6t-16 21.5q2 106 2.5 202t0.5 186t-0.5 176t-0.5 170zM95 702v-228q47 41 83.5 84.5t50.5 94.5q11 40 -6 59t-43.5 22t-52 -6.5t-32.5 -25.5z" />
    <glyph glyph-name="S" unicode="S" horiz-adv-x="329" 
d="M263 725q5 -17 0 -29.5t-15.5 -18.5t-24 -4.5t-26.5 13.5q-7 16 -22 26t-36 -1q-22 -13 -22 -34t6 -42q13 -44 36 -87t48.5 -86t50 -87t41 -89.5t20.5 -93.5t-11 -99q-10 -35 -37.5 -56.5t-62.5 -30t-71 -3t-62 23.5q-37 26 -47.5 62t-8.5 79q4 19 16.5 27.5t26 7
t23.5 -13t10 -30.5q-1 -29 9.5 -48t27 -27.5t35.5 -8t36 11t28 29.5t11 47q-1 36 -16.5 77t-38 85t-49 89.5t-49 91.5t-36.5 91t-12 88q1 28 15 49.5t35.5 35.5t47 19.5t50 1t44.5 -20.5t30 -45z" />
    <glyph glyph-name="T" unicode="T" 
d="M56 715h-25.5t-13 -0.5l-11 -1t-18.5 -1.5q-17 3 -26.5 12.5t-11 21t5.5 23t23 18.5q7 3 26 5t43.5 3t51.5 1.5t51 0t42.5 -1t25.5 -1.5q18 -5 25.5 -17t6 -24.5t-11 -22.5t-25.5 -11q-19 0 -42.5 -1t-44.5 -2v-132v-149t0.5 -180.5t0.5 -227.5q-4 -14 -14 -21t-22 -7.5
t-23 6t-16 21.5q3 178 3 348v341z" />
    <glyph glyph-name="U" unicode="U" horiz-adv-x="332" 
d="M22 763q-1 13 10.5 22.5t26 11.5t27 -6.5t14.5 -31.5l-7 -100q-7 -104 -6 -209t14 -209q1 -7 4 -30.5t8.5 -50.5t15 -49.5t23.5 -27.5q7 -3 20 8.5t25.5 29.5t23 38t12.5 34q8 57 9.5 128.5t0.5 147.5t-2 150.5t4 136.5q0 2 0.5 2.5t0.5 1.5q1 18 10.5 27t21.5 9t23 -8
t15 -25q3 -82 1.5 -171.5t-4.5 -181t-4.5 -181.5t3.5 -172q0 -27 -11 -41.5t-24.5 -14.5t-25.5 16.5t-13 53.5q-14 -25 -33 -43t-40.5 -24t-43.5 2.5t-42 36.5q-19 27 -31.5 69t-20 92t-11.5 104t-5 104.5t-1 94.5v74q0 4 1 29.5t2.5 57t4 59.5t4.5 36z" />
    <glyph glyph-name="V" unicode="V" horiz-adv-x="298" 
d="M12 758q2 19 13 28t24 8.5t25 -10.5t15 -30q4 -55 10.5 -123.5t13.5 -139.5t14 -140.5t14 -127.5q16 130 30 267.5t31 264.5q4 19 16.5 29t26 10t23.5 -10t10 -30q-13 -89 -24.5 -181l-23 -184t-24.5 -182.5t-30 -176.5q-1 -9 -9.5 -17.5t-20.5 -11.5t-24.5 3t-19.5 26
q-13 91 -26 180.5t-25 179.5t-22 181.5t-17 186.5z" />
    <glyph glyph-name="Y" unicode="Y" horiz-adv-x="350" 
d="M1 763q3 16 13.5 25.5t22.5 10t23 -7t16 -24.5q5 -56 17 -111.5t33 -109.5q16 32 30 61.5t30.5 58.5t36 57.5t46.5 57.5q15 13 29 15t24 -4t13.5 -18.5t-2.5 -28.5q-37 -52 -74 -114.5t-66 -122.5q-4 -8 -10.5 -24t-12.5 -34t-10.5 -34.5t-4.5 -23.5q0 -68 1 -119
t2 -92.5t0.5 -77t-3.5 -71.5q-4 -16 -14 -24t-21.5 -8.5t-21.5 7.5t-15 25q0 100 0.5 199.5t-0.5 201.5q-15 28 -29 73.5t-25 93.5t-19 92.5t-9 70.5z" />
    <glyph glyph-name="Z" unicode="Z" horiz-adv-x="277" 
d="M49 720q-17 2 -26 11.5t-10.5 21.5t5.5 23.5t23 17.5q44 1 81 3.5t65 1t47.5 -9t28.5 -26.5t7.5 -52.5t-14.5 -85.5q-17 -75 -37.5 -145t-42 -136t-42 -129.5t-36.5 -126.5q14 -4 34.5 -4t41.5 1t39 1.5t27 -2.5q22 -6 28.5 -19t2 -26.5t-17.5 -24t-29 -10.5
q-79 -7 -125.5 -5t-68 16.5t-22 43.5t12.5 76q10 37 25 84.5t32.5 100.5t35.5 108.5t34 108.5t28 100t17 83q-37 4 -71.5 2t-72.5 -2z" />
    <glyph glyph-name="X" unicode="X" horiz-adv-x="352" 
d="M241 776q5 15 19 18.5t28.5 -1t23.5 -15t3 -24.5q-2 -10 -9 -37.5t-17 -64t-22 -78.5l-23 -80.5l-20 -70t-13 -46.5q13 -38 28.5 -80t31.5 -84.5t31 -83.5t27 -78q7 -20 -1 -32t-21.5 -16t-27 1t-17.5 21q-13 32 -24 62.5l-22 61t-23 63t-26 68.5q-23 -61 -42 -128.5
t-45 -132.5q-4 -12 -15.5 -15.5t-22.5 1t-18 17.5t-2 35q13 46 26.5 86t27 78t25.5 74.5t23 74.5q-13 44 -26.5 93t-26 99t-23 99t-18.5 93q-2 17 5 28.5t18.5 15.5t24.5 -0.5t23 -17.5q10 -35 18.5 -72.5t16 -76.5t15 -77t15.5 -72q9 40 19 82.5t20.5 82.5t20 73.5
t15.5 55.5z" />
    <glyph glyph-name="space" unicode=" " horiz-adv-x="238" 
 />
    <glyph glyph-name="W" unicode="W" horiz-adv-x="510" 
d="M9 751q2 21 11.5 32t21 12.5t23.5 -7t18 -25.5q11 -98 19.5 -170.5t15.5 -125t12.5 -89.5t9.5 -62.5t7.5 -44t7.5 -35.5q15 67 31 135.5t33 141.5q4 15 14.5 22.5t22.5 7.5t22 -7.5t15 -23.5q3 -40 8 -76t10.5 -70.5t11 -70t11.5 -74.5q14 70 25 137t21.5 134.5t21.5 137
t25 144.5q3 13 15.5 18.5t27 4t25.5 -11t10 -25.5q-11 -92 -24.5 -181.5t-29.5 -178t-34.5 -178t-37.5 -181.5q-5 -19 -14 -28t-19.5 -11t-21 2.5t-18.5 12.5q-6 10 -12 30t-13 52.5t-15 79t-19 110.5q-9 -39 -14.5 -69.5t-10.5 -60t-10 -60.5t-13 -71q-5 -14 -14.5 -21.5
t-20.5 -7.5t-22 7t-18 22q-5 8 -15.5 47.5t-24 99t-27 133.5t-25 151.5t-18 153t-5.5 138.5z" />
    <glyph glyph-name="a" unicode="a" horiz-adv-x="197" 
d="M63 192q-4 -42 -5.5 -83.5t-1.5 -82.5q-3 -14 -10 -20.5t-14.5 -5.5t-14 8.5t-7.5 21.5q5 131 18 261t30 259q2 9 9.5 15t16.5 7t17.5 -4t11.5 -18q18 -132 37 -256.5t36 -258.5q1 -14 -4 -23t-12.5 -11.5t-15.5 2.5t-12 20q-5 50 -11.5 91t-13.5 89q-11 2 -25 0.5
t-29 -11.5zM70 254q10 2 19.5 3t20.5 1q-6 35 -11 70.5t-10 71.5l-2 21q-2 -10 -2.5 -20t-1.5 -19z" />
    <glyph glyph-name="b" unicode="b" horiz-adv-x="218" 
d="M34 543q4 22 21 23.5t25 -23.5v-3q14 14 29 22t30 7t28 -11t22 -31q13 -28 14.5 -59.5t-5 -63t-19.5 -63t-29 -59.5q21 -7 33.5 -24t17 -39t2.5 -46t-10 -45q-10 -24 -21.5 -44.5t-29.5 -38.5q-15 -15 -31 -23t-35 -13q-4 -7 -10 -10t-12 -2.5t-11.5 5.5t-8.5 15
q-1 5 -2 10.5t-1 19t0.5 39t2.5 71.5q-10 2 -17 11q-11 16 -3.5 34t20.5 32v309zM79 477v-48.5v-54.5t0.5 -54.5t0.5 -48.5q2 2 3.5 2t3.5 2q18 10 33.5 39.5t25 64.5t12.5 69t-4.5 53t-25.5 16.5t-49 -40.5zM149 214q-5 14 -14 16.5t-18 0.5q-8 -10 -17 -22.5t-20 -23.5
v-120q16 7 32 22.5t27 36.5t14.5 44.5t-4.5 45.5z" />
    <glyph glyph-name="c" unicode="c" horiz-adv-x="208" 
d="M17 394q5 60 16 105t36 68q32 23 56 12t40 -38.5t23.5 -62t7.5 -58.5q0 -12 -7 -20.5t-15 -11t-16 2t-9 17.5q-3 12 -6 33.5t-9 41.5t-14.5 32.5t-21.5 5.5q-9 -9 -15 -33q-17 -81 -19.5 -148t-0.5 -133q0 -5 1.5 -27t5 -47t9 -46.5t14.5 -26.5q13 -8 21.5 4t14.5 32
t9 41.5t6 33.5q1 13 8.5 17.5t16 2.5t15 -10.5t6.5 -21.5q-2 -16 -6 -37t-11.5 -42t-17.5 -40t-23.5 -30t-30.5 -11.5t-38 14.5q-20 16 -32 57.5t-17.5 95.5t-4.5 114t8 114z" />
    <glyph glyph-name="d" unicode="d" horiz-adv-x="218" 
d="M17 552q-1 7 2.5 17t15.5 10q42 3 73.5 -18t52.5 -57t32 -83.5t11.5 -99.5t-8.5 -103.5t-27.5 -95.5t-47 -76.5t-65.5 -45.5q-12 -3 -27 0t-15 17q-1 151 1 281.5t2 253.5zM62 523q0 -114 0.5 -228t-0.5 -229q27 17 46.5 48t31 69.5t15.5 81t0.5 83.5t-14 77t-28.5 61
q-13 17 -26.5 27t-24.5 10z" />
    <glyph glyph-name="e" unicode="e" 
d="M45 0q-11 2 -18 10.5t-10 19.5q1 63 1.5 121.5t0.5 116.5t-0.5 117.5t-0.5 124.5q-9 22 -2.5 35.5t22 20.5t36.5 8.5t41.5 -1t37.5 -7t23 -10.5q15 -20 4 -33t-30 -9q-23 1 -43.5 3.5t-43.5 -2.5v-111.5t2 -114.5q15 0 29.5 3t28.5 3q14 5 24 -7t2 -32q-14 -14 -37.5 -19
t-46.5 -3q1 -48 1 -90.5t-1 -90.5q24 1 49.5 5.5t48.5 14.5l-1 -2q11 1 18 -4.5t9 -13.5t-1 -17t-12 -15q-29 -13 -64 -18t-67 -3z" />
    <glyph glyph-name="f" unicode="f" horiz-adv-x="196" 
d="M69 290q11 1 30.5 4t31.5 3q14 1 24.5 -10.5t-0.5 -28.5q-7 -7 -17.5 -11t-22.5 -6.5t-24 -3.5t-22 -1v-205q-2 -14 -10 -21t-17 -7t-16.5 6.5t-8.5 20.5q2 63 2.5 121.5t0.5 116t-0.5 117t-0.5 124.5q-8 21 -2.5 35t19.5 21.5t33.5 9.5t39.5 0.5t38 -6.5t29 -11
q11 -9 12.5 -17.5t-2 -15t-11 -10.5t-14.5 -2q-28 6 -51 6.5t-43 -1.5v-112.5t2 -115.5z" />
    <glyph glyph-name="g" unicode="g" horiz-adv-x="232" 
d="M120 234q-3 14 1.5 22.5t10.5 13.5t12 7t6 3q8 2 16 3q16 2 28 -5q11 -8 15.5 -24t5.5 -35t-0.5 -36t-2.5 -26q-2 -16 -7 -38t-14 -43.5t-21 -40t-27.5 -29.5t-33.5 -11t-39 17q-21 21 -33 62.5t-17 94t-3.5 111t6.5 111.5q4 31 9 59.5t11 51t14 38t19 21.5
q37 22 60.5 11t37 -38t18 -61t4.5 -59q0 -12 -7.5 -20t-16.5 -10t-17 2.5t-9 17.5q-2 12 -3.5 33.5t-4.5 41t-10 31.5t-21 4q-8 -3 -16 -31q-19 -80 -21 -147.5t0 -132.5q0 -5 1.5 -27t5.5 -47t10 -46.5t15 -25.5q12 -6 22 2.5t18 24.5t13.5 37.5t8.5 41.5t4 36.5t-2 23.5
q-16 -4 -28.5 -5t-17.5 16z" />
    <glyph glyph-name="h" unicode="h" horiz-adv-x="223" 
d="M154 541q0 15 7 24t15.5 10t16.5 -7t10 -27q-1 -130 0.5 -257.5t-0.5 -260.5q-3 -10 -9.5 -15t-14.5 -5t-15.5 4.5t-11.5 15.5q2 57 2 107v104q-23 8 -46.5 0t-44.5 -15v-196q-3 -10 -10 -15t-15 -5t-16 4.5t-12 15.5q2 69 2.5 131.5t0.5 125t-0.5 126.5t-0.5 135
q0 16 8 24.5t17 9t17 -7.5t9 -26q-1 -66 -1 -130t1 -133q18 8 45 13.5t46 -2.5v252z" />
    <glyph glyph-name="i" unicode="i" horiz-adv-x="221" 
d="M30 0q-11 2 -15.5 11t-4 18.5t6.5 17.5t17 9q2 0 8 -0.5t13 -0.5h14t10 1q2 117 1 228t-1 234h-17t-8.5 -0.5l-7 -1t-12.5 -1.5q-11 2 -17.5 9t-7.5 15.5t3.5 17t15.5 13.5q7 3 30.5 5t50.5 2t50.5 -0.5t30.5 -1.5q12 -3 17.5 -12t4.5 -18t-8 -16.5t-18 -7.5
q-12 0 -27.5 -1t-30.5 -1q-1 -114 0 -231t1 -231h27.5t26.5 -1q10 -3 15 -11.5t5.5 -17.5t-4 -17t-13.5 -10q-15 -2 -36.5 -2.5t-43 -0.5t-42 1t-34.5 2z" />
    <glyph glyph-name="j" unicode="j" horiz-adv-x="255" 
d="M92 522q-13 2 -19 10.5t-5.5 18.5t7.5 17.5t20 7.5h119q12 0 19.5 -7t8.5 -16.5t-4.5 -18.5t-18.5 -12h-43q1 -45 2.5 -85.5t2.5 -80.5t0 -80.5t-5 -85.5q-1 -29 -3.5 -59.5t-10.5 -59.5q-9 -34 -32 -54t-48 -17.5t-45.5 32t-23.5 95.5q2 12 9 18.5t14.5 7t14.5 -5
t10 -18.5q1 -14 3 -27.5t5.5 -24t10 -15.5t16.5 -1q12 6 18 24t9 39.5t3.5 42t1.5 30.5q12 163 0 325h-36v0z" />
    <glyph glyph-name="k" unicode="k" horiz-adv-x="223" 
d="M16 554q2 11 8 17.5t13.5 6.5t14 -5.5t10.5 -18.5q-1 -51 -1 -104v-106q29 53 56.5 105t58.5 94q10 9 19 7.5t14 -9.5t5 -20t-8 -24q-34 -53 -60.5 -103t-57.5 -96q15 -29 31.5 -62t32.5 -66.5t30 -66t25 -60.5q5 -13 2.5 -24t-9 -16t-15 -2.5t-15.5 16.5
q-31 59 -56.5 115t-51.5 110v-223q-2 -9 -8.5 -14.5t-14 -6t-15 4t-10.5 15.5q1 69 1.5 134.5t0.5 131v132v138.5z" />
    <glyph glyph-name="l" unicode="l" horiz-adv-x="208" 
d="M43 -3q-9 -1 -17.5 4.5t-12.5 16.5q1 69 2 134.5t1 131v132v138.5q5 23 22 25t25 -23q-2 -121 -1 -245t1 -248q28 8 57 10t56 -3q11 -5 15.5 -13.5t3.5 -17.5t-7 -17t-16 -10h-1h-64.5t-63.5 -15z" />
    <glyph glyph-name="m" unicode="m" horiz-adv-x="310" 
d="M18 550q9 20 29 26t37 -14q13 -33 23.5 -84.5t18 -107t13.5 -109t11 -90.5q2 33 6.5 86.5t12 110.5t17 108.5t20.5 81.5q4 10 14 15t21.5 3.5t20.5 -10t10 -25.5q6 -75 10.5 -141.5t7 -128.5t2.5 -120t-1 -116q0 -17 -7 -26.5t-15.5 -11t-15.5 5.5t-8 23q-2 103 -4 201.5
t-12 198.5q-7 -54 -13 -104t-12.5 -99t-13.5 -97.5t-14 -99.5q-2 -14 -10.5 -21t-18 -6.5t-17 7.5t-7.5 21q-7 47 -13.5 98t-13.5 102.5t-14.5 102t-15.5 96.5q0 -102 0.5 -204t0.5 -203q-2 -9 -9 -14.5t-15 -6t-15.5 4t-10.5 15.5q2 69 2.5 134t0 130t-1 131t-0.5 137z" />
    <glyph glyph-name="n" unicode="n" horiz-adv-x="234" 
d="M21 549v1q0 1 1 2q0 10 4.5 16.5t11 8.5t14 -1.5t13.5 -12.5q14 -32 24.5 -67t20.5 -71q14 -49 27 -99t26 -101q1 33 2 81t1.5 96t0 88.5t-0.5 58.5q0 16 8 22.5t17 5t16.5 -9t7.5 -18.5q-3 -134 -1 -264t-4 -264q-9 -20 -22.5 -21.5t-24.5 17.5q-11 43 -18.5 79.5
t-18.5 80.5q-14 58 -28.5 114.5t-30.5 113.5l-2 6q0 -98 0.5 -196.5t-0.5 -196.5q-2 -10 -8 -15t-13.5 -5.5t-14.5 4.5t-10 15q1 68 1.5 133t0.5 130v131.5v137.5z" />
    <glyph glyph-name="o" unicode="o" horiz-adv-x="260" 
d="M175 570q22 -15 36 -42t21.5 -61t9 -73.5t-0.5 -79.5t-7.5 -78t-12.5 -70q-5 -23 -14 -56t-24.5 -60.5t-37.5 -44t-53 -6.5q-13 5 -23 18t-17.5 29.5t-12 33.5t-7.5 30q-4 22 -8.5 69.5t-4.5 104.5t6.5 115.5t23.5 102t47.5 64.5t78.5 4zM170 501q-6 8 -14 14t-17.5 8
t-18.5 -0.5t-16 -12.5q-16 -22 -24.5 -61.5t-12 -84t-3 -87t2.5 -70.5q1 -9 3.5 -30.5t7 -45.5t11 -45t16 -29.5t21.5 0.5t27 45q8 19 13 38t9 39q6 27 11.5 71.5t7 92t-3.5 90.5t-20 68z" />
    <glyph glyph-name="p" unicode="p" horiz-adv-x="202" 
d="M17 553q5 19 19 22.5t24 -10.5q32 7 63 -9q17 -10 28 -27.5t17.5 -39t9.5 -43.5t5 -41q2 -29 3 -58t-2.5 -57t-12.5 -53.5t-27 -47.5q-12 -16 -35 -25t-44 -9v-136q-3 -9 -9.5 -14.5t-14 -6t-14.5 4t-10 15.5v84.5t1 82.5q0 90 -0.5 179t-0.5 189zM136 294q2 20 3 53
t-3.5 67t-16 61.5t-32.5 37.5q-8 0 -14 -1t-8 -6v-295q16 -3 28 4t20.5 20t14 29t8.5 30z" />
    <glyph glyph-name="q" unicode="q" horiz-adv-x="263" 
d="M170 574q32 -23 46.5 -71.5t17.5 -107t-3.5 -119t-16.5 -108.5q-3 -15 -8.5 -35.5t-12.5 -40.5q2 -7 4.5 -15t7.5 -14q11 10 24 3.5t13 -28.5q0 -13 -5.5 -22t-13.5 -13.5t-17.5 -4t-17.5 7.5q-13 10 -24 29q-14 -22 -32 -32t-44 -2q-13 5 -23 18.5t-17 30t-11.5 33.5
t-6.5 30q-5 22 -9 69.5t-4 104.5t6.5 115t23.5 102t46.5 65.5t76.5 4.5zM137 148q13 10 26 7l7 26q5 27 10 72t6 92t-3.5 90t-19.5 67q-5 9 -13 15.5t-17 9t-17.5 0t-15.5 -12.5q-16 -22 -24.5 -62t-12 -84.5t-3 -87t2.5 -70.5q1 -9 3.5 -30t7 -44t10.5 -44.5t14.5 -31
t19 -3t24.5 38.5q-5 14 -9 24.5t4 27.5z" />
    <glyph glyph-name="r" unicode="r" horiz-adv-x="253" 
d="M17 541q2 15 12 21t20 0q19 12 43.5 14t47 -5t39 -21.5t19.5 -36.5q4 -36 -4.5 -67.5t-25 -59.5t-39 -53t-44.5 -48q29 -38 48 -70.5t42 -70.5q16 -26 30 -53t28 -55q3 -12 -0.5 -21t-10 -13.5t-15.5 -3t-17 10.5q-30 56 -59.5 108.5t-67.5 109.5v-208q-2 -9 -9 -14.5
t-14.5 -6t-15 4t-10.5 15.5q3 151 3 277.5v245.5zM62 500v-163q30 29 54 60t33 67q7 29 -4 42.5t-28 15.5t-34 -4.5t-21 -17.5z" />
    <glyph glyph-name="s" unicode="s" horiz-adv-x="216" 
d="M161 527q3 -12 0 -21.5t-10 -14t-16 -3t-17 10.5q-5 11 -14.5 18.5t-23.5 -2.5q-14 -8 -14 -23t4 -31q13 -47 39 -93.5t49 -94t35 -98t-3 -105.5q-6 -26 -24 -41.5t-40.5 -21.5t-46 -2t-40.5 17q-23 19 -30 45t-5 56q2 15 10 21t16.5 5t15 -9.5t6.5 -22.5q-1 -32 14 -47
t33.5 -14t33.5 17t15 46q-1 40 -22 87t-46 96.5t-45 99.5t-18 95q1 31 20 51t43.5 26t48 -5t32.5 -42z" />
    <glyph glyph-name="t" unicode="t" horiz-adv-x="140" 
d="M36 518h-17.5t-9 -0.5l-7 -1t-12.5 -1.5q-12 3 -18 10t-7 15.5t3.5 16.5t14.5 13q8 3 32 5t51 2.5t51 -0.5t31 -2q12 -3 17 -11.5t3.5 -17.5t-8.5 -16.5t-18 -7.5q-12 0 -27.5 -0.5t-30.5 -2.5v-96v-107.5v-131v-165.5q-2 -9 -9 -14.5t-15 -6t-15.5 4t-10.5 15.5
q2 129 2 252.5v247.5z" />
    <glyph glyph-name="u" unicode="u" horiz-adv-x="253" 
d="M23 552q0 10 8.5 17t18.5 8t19 -5t10 -23l-4 -72q-5 -76 -4 -152.5t9 -152.5q1 -5 3 -22t6 -36.5t10.5 -36t17.5 -19.5q4 -2 13 6.5t18.5 21.5t16.5 27t9 24q6 42 6.5 94.5t0 107.5t-0.5 109.5t3 99.5v1q0 13 7 19.5t15.5 7t16 -5.5t10.5 -18q2 -59 1 -124.5t-3 -131.5
t-3 -131.5t2 -124.5q0 -20 -7.5 -31t-17 -11t-18 12t-9.5 39q-9 -18 -22.5 -31t-29 -17t-31 2t-29.5 27q-21 30 -31 82t-14 110t-3.5 112t0.5 87q0 2 0.5 20.5t1 41t1.5 43t3 26.5z" />
    <glyph glyph-name="v" unicode="v" horiz-adv-x="216" 
d="M12 549q1 14 8.5 21t16.5 6t17 -8.5t11 -21.5q3 -40 7 -89t9 -101t10 -102t10 -92q11 93 20.5 193t20.5 193q3 14 12 20.5t18 6.5t16.5 -7.5t7.5 -21.5q-19 -130 -34 -264.5t-38 -260.5q0 -6 -6 -12.5t-14.5 -8.5t-16.5 2.5t-13 18.5q-19 131 -36.5 260.5t-25.5 267.5z
" />
    <glyph glyph-name="w" unicode="w" horiz-adv-x="350" 
d="M12 541q2 16 8 24t13.5 9t15 -5t12.5 -19q10 -105 17.5 -170.5t13 -106t9.5 -62.5t8 -40q8 49 18.5 98.5t21.5 100.5q3 11 10 17t14.5 6t14.5 -6t10 -18q5 -56 12 -104t15 -103q9 50 16.5 98t14.5 96t14 98.5t16 104.5q1 9 9.5 13t18 2.5t17 -8t6.5 -18.5
q-14 -132 -35 -257t-47 -260q-7 -27 -22 -27.5t-26 10.5q-4 8 -8 22t-8.5 37.5t-10 57t-12.5 79.5q-6 -28 -9.5 -50t-7 -43t-7 -43.5t-8.5 -50.5q-6 -20 -22 -21t-26 21q-3 5 -10 33.5t-16 71t-18 96t-16.5 109t-12 109.5t-3.5 99z" />
    <glyph glyph-name="x" unicode="x" horiz-adv-x="240" 
d="M163 563q4 11 14.5 14t20 0t15.5 -11t2 -18q-1 -7 -5.5 -27.5t-11.5 -47t-15 -57t-15.5 -59t-14 -51t-9.5 -33.5q9 -28 19.5 -58.5l21 -61t21 -60.5t18.5 -57q5 -15 -0.5 -24t-14.5 -11.5t-18.5 1.5t-11.5 15q-18 47 -32 90t-34 95q-15 -44 -29 -92.5t-31 -96.5
q-3 -9 -11 -11.5t-15.5 0.5t-12 12.5t-1.5 25.5q9 33 18 62.5t18 57t17.5 54.5t16.5 55q-9 32 -18 67.5t-18 71.5t-16.5 71.5t-12.5 68.5q-1 12 4 20.5t13 11.5t16.5 0t15.5 -13q15 -51 25 -109t21 -108q6 30 13 61t14 59.5t13 53t10 39.5z" />
    <glyph glyph-name="y" unicode="y" horiz-adv-x="236" 
d="M12 549q2 12 9.5 18.5t16 7.5t16.5 -4.5t11 -17.5q4 -40 13 -80t23 -78q11 22 21.5 43.5t22 42.5t25.5 41t33 41q11 9 21.5 10.5t17.5 -3t9.5 -13.5t-2.5 -21q-26 -36 -53 -80.5t-47 -89.5q-3 -6 -7 -17.5t-8.5 -24.5t-7.5 -24.5t-3 -17.5q0 -48 0.5 -84.5t1 -66t0.5 -55
t-2 -51.5q-3 -11 -10.5 -17.5t-16 -6.5t-16 5.5t-10.5 18.5q0 71 0.5 143t-0.5 144q-10 20 -20 53t-18 67.5t-13.5 66.5t-6.5 50z" />
    <glyph glyph-name="z" unicode="z" 
d="M41 519q-11 1 -16.5 8t-6.5 15.5t3.5 17t14.5 12.5q40 1 69.5 3.5t47 -6.5t21.5 -35t-8 -83q-10 -54 -22.5 -104.5t-25.5 -98.5t-25.5 -94t-22.5 -91q8 -2 20.5 -2t25 0.5t23.5 1t16 -1.5q13 -5 17 -14t1.5 -19t-10 -17t-17.5 -7q-48 -5 -76 -4t-40.5 11t-13 30.5
t6.5 54.5q9 40 24.5 96.5t32 116t29.5 115.5t18 95q-23 2 -43.5 1t-42.5 -1z" />
    <glyph glyph-name="dollar" unicode="$" horiz-adv-x="329" 
d="M126 820q0 22 11.5 34t26 12.5t26 -11.5t11.5 -38v-30q20 -7 36 -21.5t26 -40.5q4 -16 -0.5 -28.5t-14 -19t-22.5 -6t-25 10.5q0 -51 -1 -103t-1 -104l52 -90t43.5 -92t23 -96.5t-9.5 -103.5q-11 -38 -41.5 -60t-68.5 -29v-45q0 -29 -11.5 -42.5t-26 -13t-26 14.5
t-11.5 41v47q-29 6 -48 21q-37 26 -47.5 62t-8.5 79q4 19 16.5 27.5t26 7t23.5 -13t10 -30.5q-2 -25 6 -42.5t22 -27.5v353q-34 61 -59 122.5t-23 120.5q2 38 26 64t57 37q0 9 1 17t1 17zM242 163q-1 32 -13 66.5t-31 72.5v-219q19 10 31.5 30t12.5 50zM124 698
q-10 -13 -8 -29.5t7 -33.5v-2q0 16 0.5 32t0.5 33z" />
    <glyph glyph-name="two" unicode="2" horiz-adv-x="320" 
d="M100 645q-6 -17 -18 -24.5t-24 -6t-20.5 13t-6.5 32.5q10 40 36 73t60 49t70 10t66 -42q35 -42 39.5 -95t-9.5 -111.5t-42 -120.5t-58 -122.5t-56.5 -118t-38.5 -106.5q14 1 39.5 1t52.5 -0.5t49 -1t30 -1.5q16 -5 23.5 -16.5t6.5 -23.5t-10 -22t-26 -11q-13 0 -41 -0.5
t-58.5 -0.5h-57.5h-37q-20 -2 -31.5 5t-16.5 17.5t-5 23.5t3 24q13 52 40 117t58 132.5t59 133.5t42 120.5t9 93.5t-41 53q-14 5 -27.5 -1.5t-25.5 -19t-20.5 -27.5t-12.5 -27z" />
    <glyph glyph-name="bracketleft" unicode="[" horiz-adv-x="192" 
d="M146 869q19 0 30.5 -10t13 -22.5t-7 -25t-27.5 -17.5h-29.5t-29.5 1q0 -90 -0.5 -195.5t-1.5 -212.5t-1 -208.5t2 -182.5v3q24 2 37.5 0t20.5 -3q20 -2 30 -13.5t9.5 -24.5t-11 -24t-31.5 -12q-19 0 -40 -2t-40 0.5t-33 13t-18 35.5q-4 91 -4.5 198t0.5 218.5t2 222
t0 208.5q-3 24 11.5 35t36 15t44.5 3.5t37 -0.5z" />
    <glyph glyph-name="bracketright" unicode="]" horiz-adv-x="199" 
d="M45 869q14 0 37.5 0.5t45 -3.5t36.5 -15t12 -35q-2 -98 -1 -208.5t1.5 -222t0 -218.5t-4.5 -198q-3 -25 -17 -35.5t-33 -13t-40.5 -0.5t-40.5 2q-21 1 -31 12t-10.5 24t9.5 24.5t30 13.5q7 1 20.5 3t37.5 0v-3q1 81 1.5 182.5t-0.5 208.5t-1.5 212.5t-0.5 195.5
q-11 -1 -30 -1h-30q-20 5 -28 17.5t-6 25t13 22.5t30 10z" />
    <glyph glyph-name="bar" unicode="|" horiz-adv-x="107" 
d="M17 820q0 22 11.5 34t26 12.5t26 -11.5t11.5 -38q0 -116 -0.5 -232t-1 -229t-1 -221.5t-0.5 -208.5q0 -29 -11.5 -42.5t-26 -13t-26 14.5t-11.5 41q0 220 0.5 441.5t2.5 452.5z" />
    <glyph glyph-name="quoteleft" unicode="&#x2018;" horiz-adv-x="105" 
d="M12 837q4 19 16.5 27t25.5 6.5t23 -12.5t10 -30v-2q2 -31 2 -64.5t-5 -64.5q-5 -14 -14 -21.5t-19 -8t-19.5 6t-15.5 20.5q-2 5 -3 24.5t-1 42.5v45v31z" />
    <glyph glyph-name="quoteright" unicode="&#x2019;" horiz-adv-x="107" 
d="M12 837q4 19 16.5 27t25.5 6.5t23 -12.5t10 -30v-2q2 -31 2 -64.5t-5 -64.5q-5 -14 -14 -21.5t-19 -8t-19.5 6t-15.5 20.5q-2 5 -3 24.5t-1 42.5v45v31z" />
    <glyph glyph-name="quotedblleft" unicode="&#x201c;" horiz-adv-x="192" 
d="M12 837q4 19 16.5 27t25.5 6.5t23 -12.5t10 -30v-2q2 -31 2 -64.5t-5 -64.5q-5 -14 -14 -21.5t-19 -8t-19.5 6t-15.5 20.5q-2 5 -3 24.5t-1 42.5v45v31zM104 837q5 19 17.5 27t25 6.5t22.5 -12.5t10 -30v-2q2 -31 2 -64.5t-5 -64.5q-11 -28 -33.5 -29.5t-35.5 26.5
q-2 5 -2.5 24.5t-0.5 42.5v45v31z" />
    <glyph glyph-name="quotedblright" unicode="&#x201d;" horiz-adv-x="197" 
d="M12 837q4 19 16.5 27t25.5 6.5t23 -12.5t10 -30v-2q2 -31 2 -64.5t-5 -64.5q-5 -14 -14 -21.5t-19 -8t-19.5 6t-15.5 20.5q-2 5 -3 24.5t-1 42.5v45v31zM104 837q5 19 17.5 27t25 6.5t22.5 -12.5t10 -30v-2q2 -31 2 -64.5t-5 -64.5q-11 -28 -33.5 -29.5t-35.5 26.5
q-2 5 -2.5 24.5t-0.5 42.5v45v31z" />
    <glyph glyph-name="quotedbl" unicode="&#x22;" horiz-adv-x="197" 
d="M12 837q4 19 16.5 27t25.5 6.5t23 -12.5t10 -30v-2q2 -31 2 -64.5t-5 -64.5q-5 -14 -14 -21.5t-19 -8t-19.5 6t-15.5 20.5q-2 5 -3 24.5t-1 42.5v45v31zM104 837q5 19 17.5 27t25 6.5t22.5 -12.5t10 -30v-2q2 -31 2 -64.5t-5 -64.5q-11 -28 -33.5 -29.5t-35.5 26.5
q-2 5 -2.5 24.5t-0.5 42.5v45v31z" />
    <glyph glyph-name="quotesingle" unicode="'" horiz-adv-x="105" 
d="M12 837q4 19 16.5 27t25.5 6.5t23 -12.5t10 -30v-2q2 -31 2 -64.5t-5 -64.5q-5 -14 -14 -21.5t-19 -8t-19.5 6t-15.5 20.5q-2 5 -3 24.5t-1 42.5v45v31z" />
    <glyph glyph-name="slash" unicode="/" horiz-adv-x="310" 
d="M219 767q4 19 18.5 27t28.5 6t23.5 -13t4.5 -29q-32 -110 -55.5 -195.5t-46.5 -165.5t-48.5 -165.5t-59.5 -195.5q-11 -26 -26.5 -33t-28 -1.5t-19 21.5t2.5 37q21 72 39 133t34 116.5t31.5 108t31.5 107t33 114t37 128.5z" />
    <glyph glyph-name="backslash" unicode="\" horiz-adv-x="310" 
d="M88 767q20 -69 37 -128.5t33 -114t31.5 -107t31.5 -108t34 -116.5t39 -133q8 -21 2 -37t-19 -21.5t-28.5 1.5t-25.5 33q-34 110 -59.5 195.5t-48.5 165.5t-47 165.5t-55 195.5q-5 18 4.5 29t23.5 13t28 -6t19 -27z" />
    <glyph glyph-name="percent" unicode="%" horiz-adv-x="651" 
d="M392 767q4 19 18.5 27t28.5 6t23.5 -13t4.5 -29q-32 -110 -56 -195.5t-46.5 -165.5t-47.5 -165.5t-59 -195.5q-11 -26 -27 -33t-28.5 -1.5t-19 21.5t2.5 37q21 72 39 133t34.5 116.5t31.5 108t31 107t33 114t37 128.5zM158 376q-52 -1 -83.5 22t-45.5 57.5t-11 74.5
t20 74t48 56.5t73 21.5q47 0 79.5 -23t49 -57t17.5 -73t-15 -73t-48.5 -57t-83.5 -23zM158 451q38 1 57.5 24.5t19.5 52t-18 52t-55 23.5q-35 0 -53 -24t-19 -53t16 -52.5t52 -22.5zM483 115q-52 0 -83.5 23t-45.5 57t-11 74.5t20 74.5t48 56.5t73 21.5q47 -1 79.5 -23.5
t49.5 -56.5t18 -73.5t-15 -73t-49 -56.5t-84 -24zM483 190q38 1 57.5 25t19.5 52.5t-18 52t-55 23.5q-35 0 -53 -24t-19 -53t16 -52.5t52 -23.5z" />
    <glyph glyph-name="braceleft" unicode="{" horiz-adv-x="221" 
d="M170 869q17 -5 25 -15.5t7 -22.5t-10 -22.5t-25 -14.5l-28 -1q-10 -34 -10.5 -68t2.5 -68.5t7 -69.5t3 -71t-9.5 -72.5t-29.5 -74.5q24 -46 25.5 -91t-3.5 -90t-10 -89.5t6 -89.5q13 -11 24 -11.5t22 -0.5q19 0 30.5 -10t13 -22.5t-7 -24.5t-27.5 -16q-63 0 -92 21.5
t-37.5 57t-3 79.5t11 89t4 86t-23.5 71q5 -5 2.5 -2.5t-7.5 7t-10 8t-3 1.5q-18 20 -13 39.5t28 27.5q2 0 5 3q22 16 26.5 56t1 90.5t-9 105t-4 100t15 75t49.5 31.5q15 2 28 1.5t27 -2.5zM43 417v-1v1z" />
    <glyph glyph-name="braceright" unicode="}" horiz-adv-x="227" 
d="M48 869q25 4 54 1q27 -1 41.5 -18.5t20 -46.5t4.5 -65.5t-4.5 -76t-7 -79.5t-3.5 -74t6 -60t22 -38q2 -1 3 -2t2 -1q24 -8 28.5 -27.5t-12.5 -39.5q1 2 -3.5 -1.5t-9.5 -8t-7.5 -7t2.5 2.5q-22 -29 -23.5 -70.5t4 -86.5t11 -89t-2.5 -79.5t-37.5 -57t-92.5 -21.5
q-20 4 -28 16t-6.5 24.5t12.5 22.5t31 10q11 0 21.5 0.5t23.5 11.5q11 45 6.5 89.5t-9.5 89.5t-3 90t26 91q-22 38 -30.5 74.5t-9.5 72.5t3 71t7 69.5t2.5 68.5t-10.5 68l-28 1q-17 4 -26 14.5t-9.5 22.5t7.5 22.5t25 15.5zM176 416q-1 0 -1 1z" />
    <glyph glyph-name="parenleft" unicode="(" horiz-adv-x="221" 
d="M136 846q13 24 30 27.5t30 -5t16.5 -26t-10.5 -35.5q-54 -100 -83.5 -207t-33.5 -217t18.5 -220t72.5 -215q13 -15 10.5 -29.5t-13 -23.5t-26 -9t-28.5 13q-58 114 -86 233.5t-25.5 240.5t34.5 240.5t94 232.5z" />
    <glyph glyph-name="parenright" unicode=")" horiz-adv-x="218" 
d="M76 846q62 -113 94 -232.5t34.5 -240.5t-25.5 -240.5t-86 -233.5q-14 -13 -29 -13t-25.5 9t-12.5 23.5t10 29.5q49 105 72 215t19 220t-33.5 217t-83.5 207q-14 18 -10 35.5t16.5 26t30 5t29.5 -27.5z" />
    <glyph glyph-name="ampersand" unicode="&#x26;" horiz-adv-x="339" 
d="M299 96q3 -5 8.5 -18t7.5 -17q9 -12 7.5 -23.5t-9.5 -19t-21.5 -10t-28.5 3.5q-4 3 -9 10.5t-9.5 15.5t-8 15l-4.5 9q-7 13 -14 25q-24 -30 -49.5 -52t-46.5 -31q-20 -6 -39.5 -7t-39.5 13q-21 25 -27 50.5t-4 51.5t9.5 53.5t14.5 58.5q10 39 22 77.5t25 76.5
q-10 47 -21 95.5t-16 96.5t-1.5 95.5t21.5 92.5q9 22 31.5 32t48 8.5t48 -13t33.5 -30.5q16 -29 15 -70t-10 -83.5t-22 -81.5t-21 -65l-26 -81q10 -38 24.5 -73.5t31.5 -67.5q6 18 4 36q4 15 14.5 23.5t22.5 9.5t23 -6.5t16 -23.5q3 -23 -6.5 -53.5t-28.5 -63.5zM92 70
q19 14 41.5 36.5t42.5 48.5q-14 25 -28.5 50t-24.5 53q-14 -47 -23 -93t-8 -95zM119 616q2 -23 4 -47.5t6 -50.5q5 16 9.5 32t9.5 31q5 24 9.5 46.5t5.5 45.5q0 3 0.5 11.5t-0.5 17t-6 15.5t-15 8t-15 -9.5t-7 -27t-2 -36.5t1 -36z" />
    <glyph glyph-name="colon" unicode=":" horiz-adv-x="135" 
d="M105 164q17 -22 12.5 -44t-20 -35t-37 -12.5t-37.5 23.5q-14 21 -9.5 39.5t18.5 29.5t34.5 12t38.5 -13zM105 377q17 -22 12.5 -44t-20 -35t-37 -13t-37.5 23q-14 21 -9.5 39.5t18.5 30t34.5 12.5t38.5 -13z" />
    <glyph glyph-name="three" unicode="3" horiz-adv-x="408" 
d="M107 681q-12 -13 -25 -12t-22 10t-12 23.5t6 29.5q20 28 48.5 44.5t58 22t58 -1t49 -24.5t30.5 -48t4 -71q-5 -30 -20.5 -57.5t-38.5 -50.5q38 -17 67 -48t47 -69q26 -50 35 -105t0.5 -108t-35 -101t-72.5 -83q-33 -26 -72 -31.5t-76.5 5t-69 36.5t-49.5 64
q-15 31 -10 49.5t18.5 24t30.5 -3t27 -32.5q15 -29 37 -46t47 -21.5t51 5t49 33.5q25 26 38.5 62t16 74.5t-5.5 77t-27 71t-48 56t-68 32.5l-24 -8q-17 -4 -29 2t-17 17t-2 24.5t16 24.5q15 8 37.5 24t41.5 37t28 44.5t-2 45.5q-11 20 -26 24.5t-30.5 -1t-31 -17
t-28.5 -24.5z" />
    <glyph glyph-name="five" unicode="5" horiz-adv-x="376" 
d="M17 760q-2 16 2 24t12.5 11t21 3h26.5h47h54t51 -0.5t38 -1.5q21 -3 31 -15.5t9.5 -26t-11.5 -23.5t-31 -10q-9 0 -28 -0.5t-42.5 -0.5h-48.5h-47q-1 -27 -0.5 -53t1.5 -57q56 15 98.5 3.5t73.5 -41t50 -74t27.5 -96t6.5 -105.5t-13.5 -103.5t-32 -90t-49.5 -64.5
q-33 -27 -74.5 -34.5t-79.5 4t-65 39.5t-31 72q4 16 14.5 25.5t22.5 10t22.5 -7t15.5 -25.5q11 -24 26.5 -36t33 -14.5t35 4t31.5 20.5q21 21 36.5 56t24 76.5t9 86.5t-7.5 86t-26 74.5t-47 51.5q-15 11 -33.5 12t-37.5 -1.5t-38.5 -6.5t-35.5 -4q-33 6 -39 39v47.5t-0.5 53
t-1 51t-0.5 41.5z" />
    <glyph glyph-name="period" unicode="." horiz-adv-x="135" 
d="M105 95q17 -22 12.5 -44.5t-20 -35.5t-37 -13t-37.5 23q-14 21 -9.5 40t18.5 30t34.5 12.5t38.5 -12.5z" />
    <glyph glyph-name="four" unicode="4" horiz-adv-x="329" 
d="M13 470v69v66v67.5v73.5q-2 21 9.5 34.5t26.5 15.5t27.5 -7.5t12.5 -34.5q1 -25 1 -48v-53.5t0.5 -72t1.5 -102.5q34 0 69.5 1t74.5 -1q-2 64 1 137.5t3 139.5q-1 20 10.5 30t25.5 10.5t26.5 -8.5t13.5 -28v-61v-57t0.5 -55.5t0.5 -57.5q2 -116 0.5 -238t-1.5 -239
q0 -24 -12 -35.5t-26.5 -10.5t-26.5 15t-13 41q2 83 3 174t-1 173l-143 1q-15 0 -30 1t-27 6.5t-19.5 18t-7.5 35.5z" />
    <glyph glyph-name="equal" unicode="=" horiz-adv-x="326" 
d="M44 289q-13 3 -20 13t-7.5 21.5t6.5 22.5t22 17h231q17 0 25 -11.5t7.5 -25t-8.5 -25.5t-23 -12h-233zM44 190q-13 4 -20 14.5t-7.5 22t6.5 22.5t22 16h231q17 0 25 -11.5t7.5 -25t-8.5 -25.5t-23 -13h-233z" />
    <glyph glyph-name="plus" unicode="+" horiz-adv-x="326" 
d="M127 439q3 13 13.5 20.5t22.5 8t23 -6.5t16 -23v-231q0 -17 -11.5 -24.5t-25.5 -7.5t-25.5 8t-12.5 23v233zM44 289q-13 3 -20 13t-7.5 21.5t6.5 22.5t22 17h231q17 0 25 -11.5t7.5 -25t-8.5 -25.5t-23 -12h-233z" />
    <glyph glyph-name="semicolon" unicode=";" horiz-adv-x="135" 
d="M105 377q17 -22 12.5 -44t-20 -35t-37 -13t-37.5 23q-14 21 -9.5 39.5t18.5 30t34.5 12.5t38.5 -13zM105 98q16 -18 23 -45.5t4 -55.5t-16.5 -52t-37.5 -36q-19 -7 -32.5 -0.5t-18.5 19t0 27t22 23.5q6 3 7 11.5t1 18.5q-18 3 -34 22q-14 21 -9.5 40t18.5 30t34.5 12.5
t38.5 -12.5v-2z" />
    <glyph glyph-name="zero" unicode="0" horiz-adv-x="383" 
d="M263 785q34 -17 56 -52.5t33.5 -83t14.5 -102.5t-0.5 -110.5t-12 -109t-19.5 -96.5q-5 -21 -13 -48.5t-20 -56t-28 -54.5t-37 -44t-47.5 -25.5t-58.5 1.5q-21 6 -37 24t-27.5 40.5t-19 46t-11.5 40.5q-5 23 -10 66.5t-7.5 98t-0.5 116t11 120t26 109t44.5 84t68 45
t95.5 -8.5zM254 689q-8 12 -21 20.5t-27.5 11.5t-29.5 -1t-26 -17q-17 -20 -28.5 -52t-18.5 -69.5t-10.5 -79t-4.5 -81t0.5 -74.5t3.5 -60q1 -12 5 -41.5t11 -62t18 -61.5t25.5 -41t33.5 0.5t43 62.5q11 25 19.5 52t15.5 53q6 25 12 61t10.5 77.5t6 85.5t-1.5 84.5t-11.5 75
t-24.5 56.5z" />
    <glyph glyph-name="comma" unicode="," horiz-adv-x="135" 
d="M105 98q16 -18 23 -45.5t4 -55.5t-16.5 -52t-37.5 -36q-19 -7 -32.5 -0.5t-18.5 19t0 27t22 23.5q6 3 7 11.5t1 18.5q-18 3 -34 22q-14 21 -9.5 40t18.5 30t34.5 12.5t38.5 -12.5v-2z" />
    <glyph glyph-name="dotaccent" unicode="&#x2d9;" horiz-adv-x="199" 
d="M127 702q17 -22 12.5 -44t-20 -35t-37 -13t-37.5 23q-14 21 -9.5 40t18.5 30t34.5 12.5t38.5 -13.5z" />
    <glyph glyph-name="seven" unicode="7" horiz-adv-x="392" 
d="M45 721q-18 5 -25 17.5t-5 25t12 22.5t27 10h222q46 0 67.5 -7.5t26 -24.5t-4 -45.5t-22.5 -71.5q-26 -83 -49 -158.5t-45.5 -149t-46.5 -149t-52 -158.5q-5 -18 -18.5 -25.5t-27 -6t-22.5 12t-6 28.5q28 85 54 165.5t52 162t51.5 167.5t52.5 184q-32 0 -59.5 -0.5
t-56 -0.5h-59t-66.5 2z" />
    <glyph glyph-name="eight" unicode="8" horiz-adv-x="361" 
d="M17 645q-15 39 -2.5 70t41 50.5t67.5 27t76.5 -1.5t67.5 -35t41 -72q6 -29 0.5 -57.5t-18.5 -56t-31 -53.5t-36 -50q45 -58 77.5 -132t43.5 -149q4 -32 -4 -63.5t-27 -57.5t-47 -43.5t-64 -20.5q-41 -4 -77 7.5t-62 36t-39.5 59.5t-10.5 79q3 32 14.5 70t27 76t34.5 72.5
t39 59.5q-33 41 -62 87.5t-49 96.5zM259 221q-14 46 -36 96t-49 86q-11 -14 -22.5 -37.5t-22 -49.5t-19.5 -51t-14 -42q-15 -52 -5 -85.5t33 -49t52 -14t52.5 18.5t34 49.5t-3.5 78.5zM236 667q0 20 -12.5 32.5t-30.5 18.5t-38.5 5.5t-36.5 -7.5t-24.5 -19.5t-2.5 -29.5
q12 -36 35.5 -73t49.5 -68q7 10 17.5 28t20 38t16 40t6.5 35z" />
    <glyph glyph-name="nine" unicode="9" horiz-adv-x="370" 
d="M110 765q15 11 39 18.5t50.5 10.5t54 0.5t49 -11.5t35.5 -26t14 -43q0 -171 3 -337.5t-1 -335.5q-1 -22 -13 -31.5t-26.5 -8.5t-26 12t-11.5 32q2 110 1 214.5t-2 218.5q-25 -41 -63 -61.5t-76.5 -18.5t-71.5 27t-48 76q-9 33 -6.5 71t14.5 75t33.5 68.5t51.5 49.5z
M107 488q20 -17 40.5 -17.5t39.5 9.5t35.5 27t28.5 35t19 34t7 25v103q-11 9 -27.5 13.5t-34.5 5t-35.5 -3.5t-30.5 -12q-25 -16 -41.5 -44t-23 -59.5t-1 -62.5t23.5 -53z" />
    <glyph glyph-name="breve" unicode="&#x2d8;" horiz-adv-x="300" 
d="M30 781q5 19 18 27.5t26 7t22.5 -12.5t8.5 -30q-3 -45 10.5 -66.5t31.5 -21.5t34.5 19.5t19.5 56.5q-2 24 9.5 38t26 16t27 -9t12.5 -37q0 -54 -20.5 -89.5t-51 -52t-65 -15t-62 20.5t-42 56t-5.5 92z" />
    <glyph glyph-name="ring" unicode="&#x2da;" horiz-adv-x="214" 
d="M102 815q30 -2 52 -17t34.5 -37.5t14.5 -48t-8 -47.5t-32.5 -37.5t-58.5 -17.5q-28 -2 -49 12t-33 36t-13.5 48t7.5 49.5t30 40t56 19.5zM102 684q15 -1 21.5 7t5.5 18t-8 18t-19 7q-11 0 -16 -8t-5 -17t5 -17t16 -8z" />
    <glyph glyph-name="hungarumlaut" unicode="&#x2dd;" horiz-adv-x="246" 
d="M70 773q10 18 24.5 22t26.5 -2t18 -20t-2 -32t-13.5 -29.5t-11 -22.5t-12.5 -23.5t-17 -30.5q-11 -18 -25 -21t-25.5 3.5t-17 20t1.5 29.5q11 26 25 54t28 52zM167 773q11 18 25.5 22t26.5 -2t18 -20t-1 -32q-8 -18 -14 -29.5t-11.5 -22.5t-12.5 -23.5t-17 -30.5
q-11 -19 -25.5 -22t-25.5 4t-16.5 21t1.5 29q11 24 24.5 53t27.5 53z" />
    <glyph glyph-name="endash" unicode="&#x2013;" horiz-adv-x="435" 
d="M44 289q-13 3 -20 13t-7.5 21.5t6.5 22.5t22 17h340q17 0 24.5 -11.5t7.5 -25t-8 -25.5t-23 -12h-342z" />
    <glyph glyph-name="emdash" unicode="&#x2014;" horiz-adv-x="540" 
d="M44 289q-13 3 -20 13t-7.5 21.5t6.5 22.5t22 17h448q17 0 25 -11.5t8 -25t-8 -25.5t-23 -12h-451z" />
    <glyph glyph-name="tilde" unicode="&#x2dc;" horiz-adv-x="308" 
d="M61 622q-32 -6 -43.5 12t-0.5 47q6 19 17.5 39t26.5 33.5t32.5 17.5t37.5 -7q11 -6 23 -19t23.5 -23t23 -14t22.5 8q8 13 9.5 21.5t3.5 12.5q6 15 18 20t23.5 0t18.5 -19.5t2 -39.5q-5 -24 -18.5 -44t-33 -31.5t-43 -11t-46.5 17.5q-14 11 -26.5 24t-28.5 24
q-11 -18 -16 -36t-25 -32z" />
    <glyph glyph-name="less" unicode="&#x3c;" horiz-adv-x="382" 
d="M307 574q15 12 30.5 11t24.5 -10.5t10 -24t-12 -29.5q-33 -27 -64.5 -51t-62 -47t-62 -46t-65.5 -48q60 -45 122.5 -91.5t121.5 -93.5q14 -11 15.5 -26t-6 -26t-21.5 -15t-31 6h-1q-69 51 -135 100t-139 99q-46 45 -1 82q39 32 73 57.5t66.5 49.5t65.5 48.5t71 54.5z" />
    <glyph glyph-name="greater" unicode="&#x3e;" horiz-adv-x="378" 
d="M71 574q38 -30 71 -54.5t65.5 -48.5t66.5 -49.5t73 -57.5q45 -37 -1 -82q-73 -50 -139 -99t-134 -100h-2q-17 -10 -31 -6t-21.5 15t-6 26t15.5 26q59 47 121.5 93.5t122.5 91.5q-33 25 -64.5 48t-62.5 46t-62.5 47t-64.5 51q-13 15 -12 29.5t10 24t24.5 10.5t30.5 -11z
" />
    <glyph glyph-name="question" unicode="?" horiz-adv-x="408" 
d="M85 605q1 -16 -10 -23.5t-24.5 -6t-25.5 11t-15 27.5q1 33 11 64.5t28 57.5t43.5 45t57.5 28q44 12 90 9.5t82 -21t57 -54t15 -90.5q-3 -37 -11 -61.5t-20 -42t-27 -30.5t-31.5 -27t-34 -31.5t-34.5 -43.5q-11 -15 -13.5 -40.5t-2 -54t2 -56.5t0.5 -47q-6 -14 -16 -21
t-20.5 -8t-21 5.5t-16.5 20.5q0 27 -1 55t0 56.5t4.5 57t11.5 57.5q7 23 23 41t35 33.5t38 30t34 32.5q11 13 18 34t8 43t-6.5 42t-24.5 32q-31 24 -67.5 20.5t-68 -23.5t-51.5 -53t-17 -69zM228 95q17 -22 12.5 -44.5t-20.5 -35.5t-37 -13t-37 23q-14 21 -9.5 40t18.5 30
t34.5 12.5t38.5 -12.5z" />
    <glyph glyph-name="bullet" unicode="&#x2022;" horiz-adv-x="163" 
d="M133 346q23 -30 17 -59.5t-26.5 -47.5t-48.5 -17.5t-50 31.5q-19 28 -13.5 53.5t24.5 40.5t46 16.5t51 -17.5z" />
    <glyph glyph-name="caron" unicode="&#x2c7;" horiz-adv-x="294" 
d="M17 717q-12 16 -9.5 31.5t13 24.5t26 8t29.5 -18q19 -20 36 -35.5t37 -35.5q34 35 48 53t15 18q15 18 31.5 20t27.5 -6t13.5 -24t-9.5 -32q-20 -25 -39.5 -47.5t-43.5 -48.5q-8 -9 -19.5 -12.5t-23 -3t-22 4.5t-17.5 10q-21 20 -48.5 46.5t-44.5 46.5z" />
    <glyph glyph-name="asciicircum" unicode="^" horiz-adv-x="528" 
d="M504 647q12 -15 11.5 -30.5t-9.5 -24.5t-24 -10t-30 12q-26 33 -50.5 64t-48.5 61.5t-48 62t-49 65.5q-44 -62 -89 -124.5t-91 -122.5q-12 -15 -27 -16.5t-26 5.5t-15.5 21.5t5.5 31.5v2q52 68 100.5 134.5t97.5 140.5q44 48 82 0q32 -38 58 -71t50 -65.5t48.5 -65.5
t54.5 -70z" />
    <glyph glyph-name="exclam" unicode="!" horiz-adv-x="123" 
d="M23 760q3 16 13 24.5t21 9t22 -7.5t17 -25q-1 -60 -1 -106v-86t0.5 -76.5t0.5 -76v-86.5v-107q-4 -14 -14.5 -21.5t-22 -8t-22.5 6.5t-16 21q1 63 2 109.5t1 84.5v72v73t-0.5 87t-0.5 113zM97 95q-18 14 -38 12.5t-34.5 -12.5t-18.5 -30t11 -40q16 -23 37 -23t36 13
t19.5 35.5t-12.5 44.5z" />
    <glyph glyph-name="asciitilde" unicode="~" horiz-adv-x="400" 
d="M76 265q-12 -14 -27 -15.5t-26 6t-14.5 21.5t7.5 31q15 19 30.5 42t34 40t41.5 22.5t52 -9.5q9 -6 23.5 -18.5t29 -26t27.5 -23.5t21 -10q12 0 19.5 8.5t13 20t10 23t10.5 18.5q6 8 15.5 11.5t19 1.5t17.5 -9.5t12 -21.5q0 -20 -13.5 -48t-36 -50t-52.5 -30t-63 13
q-9 5 -21 17l-24 24t-24 20.5t-21 8.5q-10 -1 -17 -7.5t-13 -16.5t-13.5 -21.5t-17.5 -21.5z" />
    <glyph glyph-name="six" unicode="6" horiz-adv-x="440" 
d="M276 791q19 9 32 4t17 -17t-1.5 -27.5t-21.5 -27.5q-44 -41 -73.5 -72.5t-51.5 -65t-39 -75t-36 -102.5q81 37 149 29t113 -48.5t60 -107t-10 -145.5q-12 -39 -36.5 -66t-56.5 -43t-68.5 -22.5t-72.5 -4.5q-50 2 -83.5 26t-53 61.5t-27 84.5t-7.5 94t6 90t15 73
q15 53 36.5 104t51.5 98t69 87.5t89 72.5zM179 361q-17 -2 -34 -12.5t-30.5 -28t-21.5 -40.5t-6 -51q1 -26 5 -52t14.5 -47t29.5 -36t50 -19q51 -7 92.5 14.5t63.5 69.5q20 42 18 83.5t-23.5 71.5t-61.5 44.5t-96 2.5z" />
    <glyph glyph-name="grave" unicode="`" horiz-adv-x="161" 
d="M88 773q14 -24 27.5 -53t24.5 -53q7 -15 1.5 -29t-17 -21t-26 -4t-24.5 22q-10 18 -17 30.5t-12.5 23.5t-11.5 22.5t-14 29.5t-2 32t18.5 20t27 2t25.5 -22z" />
    <glyph glyph-name="acute" unicode="&#xb4;" horiz-adv-x="161" 
d="M69.0059 773q-14 -24 -27.499 -53t-24.498 -53q-7 -15 -1.5 -29q5.49902 -14 16.999 -21q11.499 -7 25.998 -4t24.499 22q9.99902 18 16.999 30.5q6.99902 12.5 12.499 23.5q5.49902 11 11.499 22.5t13.999 29.5q8 18 2 32t-18.499 20t-26.998 2t-25.498 -22z" />
    <glyph glyph-name="underscore" unicode="_" horiz-adv-x="540" 
d="M44 -80q-13 3 -20 13t-7.5 21.5t6.5 22.5t22 17h448q17 0 25 -11.5t8 -25t-8 -25.5t-23 -12h-451z" />
    <glyph glyph-name="fraction" unicode="&#x2044;" horiz-adv-x="310" 
d="M219 767q4 19 18.5 27t28.5 6t23.5 -13t4.5 -29q-32 -110 -55.5 -195.5t-46.5 -165.5t-48.5 -165.5t-59.5 -195.5q-11 -26 -26.5 -33t-28 -1.5t-19 21.5t2.5 37q21 72 39 133t34 116.5t31.5 108t31.5 107t33 114t37 128.5z" />
    <glyph glyph-name="quotedblbase" unicode="&#x201e;" horiz-adv-x="278" 
d="M105 98q16 -18 23 -45.5t4 -55.5t-16.5 -52t-37.5 -36q-19 -7 -32.5 -0.5t-18.5 19t0 27t22 23.5q6 3 7 11.5t1 18.5q-18 3 -34 22q-14 21 -9.5 40t18.5 30t34.5 12.5t38.5 -12.5v-2zM105 98q16 -18 23 -45.5t4 -55.5t-16.5 -52t-37.5 -36q-19 -7 -32.5 -0.5t-18.5 19
t0 27t22 23.5q6 3 7 11.5t1 18.5q-18 3 -34 22q-14 21 -9.5 40t18.5 30t34.5 12.5t38.5 -12.5v-2zM232 98q16 -18 23 -45.5t4 -55.5t-16.5 -52t-37.5 -36q-19 -7 -32.5 -0.5t-18.5 19t-0.5 27t22.5 23.5q5 3 6.5 11.5t1.5 18.5q-18 3 -34 22q-14 21 -9.5 40t18.5 30
t34.5 12.5t38.5 -12.5v-2z" />
    <glyph glyph-name="dagger" unicode="&#x2020;" horiz-adv-x="322" 
d="M126 690q0 21 11.5 33t26 13t26 -11t11.5 -37v-239h75q17 0 25 -11.5t7.5 -25t-8.5 -25t-23 -11.5h-78q0 -155 -0.5 -300.5t-0.5 -278.5q0 -29 -11.5 -43t-26 -13.5t-26 15t-11.5 41.5q0 143 -0.5 286.5t0.5 292.5h-79q-13 3 -20 13t-7.5 21.5t6.5 22.5t22 16h78
q0 119 3 241z" />
    <glyph glyph-name="daggerdbl" unicode="&#x2021;" horiz-adv-x="322" 
d="M44 1q-13 3 -20 13.5t-7.5 22.5t6.5 23t22 16h77v149.5t1 150.5h-79q-13 3 -20 13t-7.5 21.5t6.5 22.5t22 16h78q0 119 3 241q0 21 11.5 33t26 13t26 -11t11.5 -37v-239h75q17 0 25 -11.5t7.5 -25t-8.5 -25t-23 -11.5h-78v-152t-1 -148h78q17 0 25 -11.5t7.5 -25
t-8.5 -25.5t-23 -13h-79v-204q0 -29 -11.5 -43t-26 -13.5t-26 15t-11.5 41.5v204h-79z" />
    <glyph glyph-name="ogonek" unicode="&#x2db;" horiz-adv-x="216" 
d="M142 -69q-11 -15 -23 -30t-23 -32q4 0 11 2t14.5 5t14.5 5.5t10 3.5q21 7 33 6t17.5 -7t5.5 -15.5t-4 -17.5q-9 -20 -36 -35.5t-57 -21t-56 2t-33 33.5q-6 20 -1.5 39t14 36.5t22.5 33.5t25 31q12 16 32.5 24t36 5t18.5 -19.5t-21 -48.5z" />
    <glyph glyph-name="Euro" unicode="&#x20ac;" horiz-adv-x="326" 
d="M22 539q5 40 11 76.5t15.5 67.5t22.5 54.5t33 38.5q34 21 62 20.5t50 -15.5t38.5 -40.5t27 -55t15.5 -59t5 -51.5q0 -18 -10.5 -29.5t-23.5 -14.5t-24.5 3.5t-14.5 24.5q-3 16 -8 45.5t-14 56.5t-22.5 44t-34.5 7q-14 -8 -24 -45q-14 -54 -21 -104.5t-9.5 -98t-2 -92.5
t2.5 -90q0 -7 2.5 -37t7.5 -64.5t14 -64.5t22 -36q20 -10 33.5 6.5t22.5 43.5t14 56.5t9 46.5q2 18 14 24.5t25 3.5t23.5 -14.5t10.5 -28.5q-3 -22 -10 -51.5t-18.5 -58.5t-27 -54.5t-36.5 -40.5t-47.5 -16t-58.5 20q-32 23 -51 79.5t-27.5 130.5t-7 156t11.5 156zM23 396
q-13 4 -20.5 14.5t-8 22t6.5 22.5t22 16h232q17 0 24.5 -11.5t7 -25t-8.5 -25.5t-23 -13h-232zM23 299q-13 3 -20.5 13.5t-8 22.5t6.5 23t22 16h232q17 0 24.5 -11.5t7 -25t-8.5 -25.5t-23 -13h-232z" />
    <glyph glyph-name="florin" unicode="&#x192;" horiz-adv-x="382" 
d="M98 505q-13 3 -20.5 13.5t-8 22.5t7 23t23.5 16h70q-2 17 -2 29t2 31q1 42 18 78.5t44 57.5t60.5 21.5t67.5 -29.5q10 -14 9.5 -27t-8.5 -22t-21.5 -12t-28.5 4q-8 10 -24.5 7t-23.5 -16q-14 -26 -17.5 -57t-3.5 -65h88q17 0 25 -11.5t7.5 -25t-8.5 -25.5t-22 -13h-87
q3 -53 10 -109.5t13 -113.5t9 -112.5t-1 -106.5q-3 -30 -6 -64.5t-11.5 -68t-25 -63t-44.5 -50.5q-25 -16 -49.5 -16t-47.5 10t-43.5 28t-35.5 38q-9 18 -4 32.5t16.5 21.5t26 4.5t26.5 -18.5q4 -5 10.5 -13t15 -14.5t17 -11t15.5 -2.5q24 13 36.5 37.5t18.5 53t7 57t1 49.5
q2 108 -9 215.5t-18 216.5h-74z" />
    <glyph glyph-name="sterling" unicode="&#xa3;" horiz-adv-x="541" 
d="M506 783q11 -14 10.5 -27t-8.5 -22t-21.5 -12t-29.5 4q-25 23 -48.5 26.5t-44.5 -8.5t-37.5 -36.5t-28.5 -57.5q-17 -52 -21.5 -107.5t-7.5 -113.5q-2 -30 -3 -61t-3 -65.5t-6.5 -73.5t-13.5 -87q26 -7 46 -16.5t39.5 -18t41.5 -15.5t52 -9q33 -2 52.5 8t39.5 27
q18 20 33.5 25.5t25 1t11.5 -17.5t-6 -29q-36 -54 -78 -69.5t-87.5 -10t-93.5 23.5t-96 33l-3 -4.5t-2 -3.5q-13 -19 -29 -42t-35.5 -40.5t-43 -23.5t-53.5 9q-30 16 -41 40.5t-7.5 50.5t18.5 50t37.5 40t50 19.5t55.5 -11.5q7 43 11 80.5t6 71t3 64t3 61.5q2 43 5 87t11 87
t24 83t45 75q24 30 53.5 44.5t59.5 16t59.5 -10t55.5 -35.5zM144 89q-10 11 -23.5 4.5t-23.5 -18.5t-13.5 -25t7.5 -14q2 1 4.5 1t7.5 4.5t14.5 15.5t26.5 32zM120 396q-13 4 -20.5 14.5t-8 22t7 22.5t23.5 16h230q17 0 25 -11.5t7.5 -25t-8.5 -25.5t-22 -13h-234z" />
    <glyph glyph-name="section" unicode="&#xa7;" horiz-adv-x="329" 
d="M245 426q3 -4 6 -8.5t5 -9.5q19 -30 34 -60.5t23.5 -63t8.5 -68t-11 -74.5q-7 -23 -22 -40.5t-35 -28.5q18 -29 33 -55.5t23.5 -54t8.5 -59t-11 -70.5q-10 -35 -37.5 -56.5t-62.5 -30t-71 -3t-62 23.5q-37 26 -47.5 62t-8.5 79q4 19 16.5 27.5t26 7t23.5 -13t10 -30.5
q-1 -29 9.5 -48t27 -27.5t35.5 -8t36 11t28 29.5t11 47q-1 36 -16.5 72t-38 72t-49 72.5t-49 74.5t-36.5 77.5t-12 82.5q2 40 27.5 66.5t60.5 36.5q-17 28 -33.5 57t-28.5 58t-19 59t-5 60q2 42 31 69.5t66.5 35.5t73 -7t50.5 -58q5 -17 0 -29.5t-15 -19t-23.5 -4.5
t-26.5 14q-8 16 -22 26.5t-36 -2.5q-11 -6 -16 -14.5t-6 -18.5t1.5 -21t5.5 -22q17 -59 51.5 -111t67.5 -104zM123 304q14 -45 38 -85t50 -79q14 11 23 29t9 43q-1 42 -19 83t-45 86q-18 12 -40 1q-22 -13 -22 -34t6 -44z" />
    <glyph glyph-name="yen" unicode="&#xa5;" horiz-adv-x="376" 
d="M44 190q-13 4 -20 14.5t-7.5 22t6.5 22.5t22 16h72v24h-73q-13 3 -20 13t-7.5 21.5t6.5 22.5t22 17h72v70q-15 28 -29.5 73.5t-26 93.5t-19 92.5t-8.5 70.5q3 16 13.5 25.5t22.5 10t23 -7t16 -24.5q6 -56 17.5 -111.5t31.5 -109.5q16 32 30.5 61.5t31 58.5t36 57.5
t46.5 57.5q15 13 29 15t24 -4t13 -18.5t-3 -28.5q-37 -52 -74 -114.5t-66 -122.5q-4 -8 -10 -24t-12 -34t-10 -34.5t-4 -23.5v-29h87q17 0 25 -11.5t7.5 -25t-8.5 -25.5t-23 -12h-88v-24h87q17 0 25 -11.5t7.5 -25t-8.5 -25.5t-23 -13h-87q2 -45 1.5 -82.5t-2.5 -75.5
q-5 -16 -15.5 -24t-21.5 -8.5t-21 7.5t-14 25v158h-73z" />
    <glyph glyph-name="oe" unicode="&#x153;" horiz-adv-x="369" 
d="M17 394q5 60 16 105t36 68q32 23 56 12t40 -38.5t23.5 -62t7.5 -58.5q0 -12 -7 -20.5t-15 -11t-16 2t-9 17.5q-3 12 -6 33.5t-9 41.5t-14.5 32.5t-21.5 5.5q-9 -9 -15 -33q-17 -81 -19.5 -148t-0.5 -133q0 -5 1.5 -27t5 -47t9 -46.5t14.5 -26.5q13 -8 21.5 4t14.5 32
t9 41.5t6 33.5q1 13 8.5 17.5t16 2.5t15 -10.5t6.5 -21.5q-2 -16 -6 -37t-11.5 -42t-17.5 -40t-23.5 -30t-30.5 -11.5t-38 14.5q-20 16 -32 57.5t-17.5 95.5t-4.5 114t8 114zM203 0q-11 2 -18 10.5t-10 19.5q1 63 1.5 121.5t0.5 116.5t-0.5 117.5t-0.5 124.5
q-9 22 -2.5 35.5t22 20.5t36.5 8.5t41.5 -1t37.5 -7t24 -10.5q14 -20 3 -33t-30 -9q-23 1 -43.5 3.5t-41.5 -2.5q0 -27 2 -55t3 -56.5t0.5 -57.5t-5.5 -57q15 0 30 3t29 3q14 5 23.5 -7t2.5 -32q-14 -14 -38 -19t-47 -3q1 -48 1 -90.5t-1 -90.5q24 1 49.5 5.5t48.5 14.5
l-1 -2q11 1 18 -4.5t9 -13.5t-1 -17t-12 -15q-29 -13 -64 -18t-67 -3z" />
    <glyph glyph-name="Oslash" unicode="&#xd8;" horiz-adv-x="395" 
d="M263 785q35 -21 57 -58t34 -84t14.5 -101t-1.5 -109t-12.5 -107t-19.5 -95q-5 -21 -13 -48.5t-20 -56t-28 -54.5t-37 -44t-47.5 -25.5t-58.5 1.5q-21 6 -37 24t-27.5 40.5t-19 46t-11.5 40.5q-5 23 -10.5 66t-8.5 97t-1.5 114.5t10 118t25.5 108t45 84.5t69 47t98 -5z
M254 689q-8 12 -21 20.5t-27.5 11.5t-29.5 -1t-26 -17q-17 -20 -28.5 -52t-18.5 -69.5t-10.5 -79t-4.5 -81t0.5 -74.5t3.5 -60q1 -12 5 -41.5t11 -62t18 -61.5t25.5 -41t33.5 0.5t43 62.5q11 25 19.5 52t15.5 53q6 25 12 61t10.5 77.5t6 85.5t-1.5 84.5t-11.5 75t-24.5 56.5
zM251 767q4 19 18.5 27t28.5 6t23.5 -13t4.5 -29q-32 -110 -55.5 -195.5t-46.5 -165.5t-48.5 -165.5t-59.5 -195.5q-11 -26 -26.5 -33t-28 -1.5t-19 21.5t2.5 37q21 72 39 133t34 116.5t31.5 108t31.5 107t33 114t37 128.5z" />
    <glyph glyph-name="ellipsis" unicode="&#x2026;" horiz-adv-x="372" 
d="M105 95q17 -22 12.5 -44.5t-20 -35.5t-37 -13t-37.5 23q-14 21 -9.5 40t18.5 30t34.5 12.5t38.5 -12.5zM224 95q17 -22 12.5 -44.5t-20 -35.5t-37 -13t-37.5 23q-14 21 -9.5 40t18.5 30t34.5 12.5t38.5 -12.5zM343 95q17 -22 12.5 -44.5t-20 -35.5t-37 -13t-37.5 23
q-14 21 -9.5 40t18.5 30t34.5 12.5t38.5 -12.5z" />
    <glyph glyph-name="quotesinglbase" unicode="&#x201a;" horiz-adv-x="135" 
d="M105 98q16 -18 23 -45.5t4 -55.5t-16.5 -52t-37.5 -36q-19 -7 -32.5 -0.5t-18.5 19t0 27t22 23.5q6 3 7 11.5t1 18.5q-18 3 -34 22q-14 21 -9.5 40t18.5 30t34.5 12.5t38.5 -12.5v-2z" />
    <glyph glyph-name="brokenbar" unicode="&#xa6;" horiz-adv-x="107" 
d="M17 820q0 22 11.5 34t26 12.5t26 -11.5t11.5 -38v-91t-0.5 -49.5t-0.5 -21.5t-0.5 -6.5t-0.5 -4.5t-0.5 -15.5t-0.5 -39.5v-77q0 -29 -11.5 -42.5t-26 -13t-26 14.5t-11.5 41v84.5v43.5v16.5t0.5 3.5t0.5 4.5t0.5 19t0.5 47.5t1 89zM17 236q0 21 11.5 33t26 12.5
t26 -11.5t11.5 -38v-91t-0.5 -49.5t-0.5 -21.5t-0.5 -6.5t-0.5 -4.5t-0.5 -16t-0.5 -40v-77q0 -29 -11.5 -42.5t-26 -13t-26 14.5t-11.5 41v84.5v44v17.5t0.5 4t0.5 4.5t0.5 19t0.5 47.5t1 89z" />
    <glyph glyph-name="circumflex" unicode="&#x2c6;" horiz-adv-x="294" 
d="M17 675q17 20 44.5 46.5t48.5 46.5q7 7 17.5 11t22 4t23 -3.5t19.5 -12.5q24 -25 43.5 -48t39.5 -48q12 -16 9.5 -31.5t-13.5 -23.5t-27.5 -6.5t-31.5 19.5q-1 0 -15 18.5t-48 53.5q-20 -21 -37 -36.5t-36 -35.5q-14 -17 -29.5 -17.5t-26 8.5t-13 24.5t9.5 30.5z" />
    <glyph glyph-name="guilsinglleft" unicode="&#x2039;" horiz-adv-x="382" 
d="M307 574q15 12 30.5 11t24.5 -10.5t10 -24t-12 -29.5q-33 -27 -64.5 -51t-62 -47t-62 -46t-65.5 -48q60 -45 122.5 -91.5t121.5 -93.5q14 -11 15.5 -26t-6 -26t-21.5 -15t-31 6h-1q-69 51 -135 100t-139 99q-46 45 -1 82q39 32 73 57.5t66.5 49.5t65.5 48.5t71 54.5z" />
    <glyph glyph-name="guilsinglright" unicode="&#x203a;" horiz-adv-x="378" 
d="M71 574q38 -30 71 -54.5t65.5 -48.5t66.5 -49.5t73 -57.5q45 -37 -1 -82q-73 -50 -139 -99t-134 -100h-2q-17 -10 -31 -6t-21.5 15t-6 26t15.5 26q59 47 121.5 93.5t122.5 91.5q-33 25 -64.5 48t-62.5 46t-62.5 47t-64.5 51q-13 15 -12 29.5t10 24t24.5 10.5t30.5 -11z
" />
    <glyph glyph-name="guillemotleft" unicode="&#xab;" horiz-adv-x="596" 
d="M307 574q15 12 30.5 11t24.5 -10.5t10 -24t-12 -29.5q-33 -27 -64.5 -51t-62 -47t-62 -46t-65.5 -48q60 -45 122.5 -91.5t121.5 -93.5q14 -11 15.5 -26t-6 -26t-21.5 -15t-31 6h-1q-69 51 -135 100t-139 99q-46 45 -1 82q39 32 73 57.5t66.5 49.5t65.5 48.5t71 54.5z
M523 574q16 12 31.5 11t25 -10.5t10 -24t-13.5 -29.5q-33 -27 -64 -51t-62 -47t-62.5 -46t-65.5 -48q60 -45 122.5 -91.5t122.5 -93.5q15 -11 16 -26t-6.5 -26t-22 -15t-31.5 6h-1q-69 51 -134.5 100t-138.5 99q-46 45 0 82q39 32 72 57.5t65.5 49.5t65.5 48.5t71 54.5z" />
    <glyph glyph-name="guillemotright" unicode="&#xbb;" horiz-adv-x="600" 
d="M71 574q38 -30 71 -54.5t65.5 -48.5t66.5 -49.5t73 -57.5q45 -37 -1 -82q-73 -50 -139 -99t-134 -100h-2q-17 -10 -31 -6t-21.5 15t-6 26t15.5 26q59 47 121.5 93.5t122.5 91.5q-33 25 -64.5 48t-62.5 46t-62.5 47t-64.5 51q-13 15 -12 29.5t10 24t24.5 10.5t30.5 -11z
M289 574q37 -30 70 -54.5t65.5 -48.5t66 -49.5t72.5 -57.5q46 -37 -1 -82q-72 -50 -138 -99t-135 -100q-18 -10 -32.5 -6t-22 15t-6 26t16.5 26q58 47 120.5 93.5t122.5 91.5q-67 49 -126.5 93.5t-125.5 98.5q-14 15 -13.5 29.5t10 24t25 10.5t31.5 -11z" />
    <glyph glyph-name="questiondown" unicode="&#xbf;" horiz-adv-x="412" 
d="M322 -27q0 16 10.5 23t24 5.5t25.5 -11t14 -26.5q0 -34 -10 -65.5t-28 -57.5t-44 -45t-58 -28q-44 -12 -89.5 -9.5t-81.5 21t-56.5 54t-14.5 91.5q3 36 11 60.5t20 42.5t27 31t31.5 27t33.5 31.5t34 43.5q10 14 13 39.5t3 54t-2 56.5t0 48q6 13 16 20.5t20.5 8t21 -6
t16.5 -20.5v-111t-17 -114q-7 -23 -22.5 -41t-34 -33.5t-37.5 -30.5t-34 -32q-12 -14 -19.5 -35t-8 -42.5t6.5 -42t25 -32.5q31 -23 68 -20t68 23.5t51 53.5t17 69zM180 483q-17 22 -12.5 44t20 35.5t36.5 13.5t38 -23q14 -21 9.5 -40t-18.5 -30.5t-34.5 -12.5t-38.5 13z
" />
    <glyph glyph-name="dotlessi" unicode="&#x131;" horiz-adv-x="221" 
d="M30 0q-11 2 -15.5 11t-4 18.5t6.5 17.5t17 9q2 0 8 -0.5t13 -0.5h14t10 1q2 117 1 228t-1 234h-17t-8.5 -0.5l-7 -1t-12.5 -1.5q-11 2 -17.5 9t-7.5 15.5t3.5 17t15.5 13.5q7 3 30.5 5t50.5 2t50.5 -0.5t30.5 -1.5q12 -3 17.5 -12t4.5 -18t-8 -16.5t-18 -7.5
q-12 0 -27.5 -1t-30.5 -1q-1 -114 0 -231t1 -231h27.5t26.5 -1q10 -3 15 -11.5t5.5 -17.5t-4 -17t-13.5 -10q-15 -2 -36.5 -2.5t-43 -0.5t-42 1t-34.5 2z" />
    <glyph glyph-name="Lslash" unicode="&#x141;" horiz-adv-x="412" 
d="M84 231q-24 -16 -41.5 -12.5t-25 16.5t-3.5 30.5t24 29.5l90 61q0 99 -0.5 198t-0.5 206q3 16 12.5 24.5t21 9t22 -7.5t16.5 -25q-1 -88 -1 -178.5v-181.5l104 64q17 11 32.5 6.5t23.5 -17.5t5.5 -29.5t-21.5 -29.5l-144 -91q0 -54 0.5 -108t0.5 -108q42 11 86.5 13.5
t86.5 -5.5q17 -5 24 -17t6 -24.5t-10 -23t-24 -13.5h-3q-51 0 -99 -0.5t-98 -18.5q-12 -2 -25 4t-19 23q2 60 3 118t1 115q-14 -9 -25 -16t-19 -12z" />
    <glyph glyph-name="lslash" unicode="&#x142;" horiz-adv-x="286" 
d="M118 -3q-8 -1 -16 4.5t-13 16.5q0 59 1 114.5t1 112.5l-25 -14q-25 -14 -40.5 -13t-21.5 9t-2 19t17 17l72 39v252q5 23 22.5 25t25.5 -23q-2 -56 -2 -113.5v-116.5q20 12 40.5 22t40.5 20q19 9 32.5 6.5t19.5 -10t3.5 -17.5t-15.5 -17q-20 -10 -53 -26t-68 -35
q0 -53 1 -104t1 -102q28 8 57 10t55 -3q11 -5 16 -13.5t4.5 -17.5t-6.5 -17t-16 -10h-2h-65t-64 -15z" />
    <glyph glyph-name="dieresis" unicode="&#xa8;" horiz-adv-x="251" 
d="M105 702q17 -22 12.5 -44t-20 -35t-37 -13t-37.5 23q-14 21 -9.5 40t18.5 30t34.5 12.5t38.5 -13.5zM224 702q17 -22 12.5 -44t-20 -35t-37 -13t-37.5 23q-14 21 -9.5 40t18.5 30t34.5 12.5t38.5 -13.5z" />
    <glyph glyph-name="numbersign" unicode="#" horiz-adv-x="360" 
d="M34 342q-13 4 -20.5 14t-8 22t6.5 23t23 16h285q17 0 24.5 -11.5t7.5 -25.5t-8 -25.5t-23 -12.5h-287zM34 212q-13 4 -20.5 14.5t-8 22t6.5 22.5t23 16h285q17 0 24.5 -11.5t7.5 -25t-8 -25.5t-23 -13h-287zM83 462q0 22 11.5 34t25.5 12.5t25.5 -11.5t11.5 -37v-120.5
t-0.5 -63.5t-0.5 -27.5t-0.5 -12.5t-0.5 -17.5v-42.5q0 -29 -12 -43t-26 -13.5t-26 15t-12 41.5v40.5v18t0.5 14t1 29.5t1 65t1.5 119zM212 462q0 22 11.5 34t26 12.5t26 -11.5t11.5 -37v-122t-0.5 -67t-0.5 -31.5t-0.5 -14.5t-0.5 -15v-34q0 -29 -11.5 -43t-26 -13.5
t-26 15t-11.5 41.5v34.5v16v15.5t0.5 32.5t0.5 67.5t1 120z" />
    <glyph glyph-name="OE" unicode="&#x152;" horiz-adv-x="579" 
d="M342 -1q-16 3 -30 13.5t-14 30.5t0.5 39.5t0.5 37.5q-12 -27 -28 -51.5t-36.5 -42t-46.5 -24.5t-57 2q-21 6 -37 24t-27.5 40.5t-19 46t-11.5 40.5q-5 23 -10.5 66t-8.5 97t-1.5 114.5t10 118t25.5 108t45 84.5t69 47t98 -5q9 -6 17 -13t15 -14q7 15 26.5 24t44.5 13
t53.5 3.5t53.5 -4t45 -9.5t28 -12q12 -12 13 -24t-5.5 -20.5t-19 -13t-28.5 -1.5q-36 2 -68.5 5.5t-65.5 -2.5v-156.5t1 -159.5q24 -1 46 3.5t45 6.5q10 2 21 -1.5t17.5 -11t7 -19t-8.5 -24.5q-21 -20 -57 -26.5t-71 -4.5q1 -66 1 -126t-1 -125q38 1 77.5 7t73.5 20
q18 4 29 -4t14.5 -20.5t-1.5 -26.5t-21 -22q-45 -17 -99 -23.5t-104 -4.5zM254 689q-8 12 -21 20.5t-27.5 11.5t-29.5 -1t-26 -17q-17 -20 -28.5 -52t-18.5 -69.5t-10.5 -79t-4.5 -81t0.5 -74.5t3.5 -60q1 -13 5 -42t11 -61.5t18 -61.5t25.5 -41t33.5 0.5t43 62.5
q11 25 19.5 52t15.5 53q6 25 12 61t10.5 77.5t6 85.5t-1.5 84.5t-11.5 75t-24.5 56.5z" />
    <glyph glyph-name="at" unicode="@" horiz-adv-x="730" 
d="M435 576q7 -12 8 -26q12 -9 15 -24t2.5 -32t-4 -34t-5.5 -30q-1 -8 1.5 -25t8 -37t13 -40t17.5 -33.5t22 -17.5t26 8q23 20 37 55.5t18.5 78t-0.5 87.5t-20 85.5t-39.5 71t-59.5 43.5q-62 22 -116.5 15t-100.5 -35.5t-81 -73.5t-56.5 -99t-28.5 -112t4 -112
q13 -66 49 -111.5t85 -71t106.5 -30.5t113 10t104.5 50.5t82 91.5q10 18 27.5 24t31.5 2t19.5 -17.5t-8.5 -35.5q-53 -82 -121.5 -129.5t-140.5 -64t-143 -3.5t-129.5 52t-100 101.5t-54.5 146.5q-9 58 0 120.5t32.5 120t61 107t86.5 82.5q64 45 132.5 57t130 -4t111 -57.5
t76.5 -104.5q16 -38 22 -93.5t0 -113.5t-25.5 -109.5t-56.5 -81.5q-17 -14 -38.5 -21t-42.5 -6t-39.5 10.5t-31.5 29.5q-14 17 -23 40q-12 -29 -26 -52t-30 -39q-28 -26 -53.5 -31.5t-46 4.5t-36.5 32t-26 49t-14 55.5t-1 53.5q7 62 26.5 110.5t59.5 95.5q13 15 36 29.5
t48.5 20.5t49 0t36.5 -32zM289 234q10 -4 21 9.5t21.5 38t19 57t14 67t6 68t-4.5 60.5q-12 0 -23 -7t-21.5 -17t-18.5 -22l-14 -21q-15 -26 -25 -62.5t-11.5 -72t7 -63t29.5 -35.5z" />
    <glyph glyph-name="exclamdown" unicode="&#xa1;" horiz-adv-x="123" 
d="M23 -184q3 -15 13 -23.5t21 -9.5t22 7t17 25q-1 60 -1 106.5v86t0.5 76t0.5 77v87.5v107q-4 13 -14.5 20.5t-22 8t-22.5 -6.5t-16 -22q1 -63 2 -109t1 -84v-72.5v-73.5t-0.5 -87t-0.5 -113zM97 482q-18 -14 -38 -13t-34.5 12.5t-18.5 30.5t11 40q16 23 37 23t36 -13
t19.5 -35.5t-12.5 -44.5z" />
    <glyph glyph-name="asterisk" unicode="*" horiz-adv-x="326" 
d="M44 694q-13 3 -20 13t-7.5 22t6.5 23t22 16h82v76q3 13 13.5 20.5t22.5 8t23 -6.5t16 -23v-75h74q17 0 25 -11.5t7.5 -25t-8.5 -25.5t-23 -12h-75v-81q0 -17 -11.5 -25t-25.5 -8t-25.5 8t-12.5 23v83h-83zM102 624q-12 -7 -24 -5t-21 10t-11.5 20.5t5.5 27.5l59 57
l-53 55q-7 12 -5.5 24t9.5 20.5t21 11t28 -4.5l53 -54l53 53q12 12 25.5 9t23 -13t12 -24t-7.5 -25l-54 -52l57 -59q12 -12 9 -25.5t-13 -23t-24 -12t-25 7.5l-57 59z" />
    <glyph glyph-name="Zcaron" unicode="&#x17d;" horiz-adv-x="277" 
d="M49 720q-17 2 -26 11.5t-10.5 21.5t5.5 23.5t23 17.5q44 1 81 3.5t65 1t47.5 -9t28.5 -26.5t7.5 -52.5t-14.5 -85.5q-17 -75 -37.5 -145t-42 -136t-42 -129.5t-36.5 -126.5q14 -4 34.5 -4t41.5 1t39 1.5t27 -2.5q22 -6 28.5 -19t2 -26.5t-17.5 -24t-29 -10.5
q-79 -7 -125.5 -5t-68 16.5t-22 43.5t12.5 76q10 37 25 84.5t32.5 100.5t35.5 108.5t34 108.5t28 100t17 83q-37 4 -71.5 2t-72.5 -2zM17 933q-12 16 -9.5 31.5t13 24.5t26 8t29.5 -18q19 -20 36 -35.5t37 -35.5q34 35 48 53t15 18q15 18 31.5 20t27.5 -6t13.5 -24t-9.5 -32
q-20 -25 -39.5 -47.5t-43.5 -48.5q-8 -9 -19.5 -12.5t-23 -3t-22 4.5t-17.5 10q-21 20 -48.5 46.5t-44.5 46.5z" />
    <glyph glyph-name="Ydieresis" unicode="&#x178;" horiz-adv-x="350" 
d="M1 763q3 16 13.5 25.5t22.5 10t23 -7t16 -24.5q5 -56 17 -111.5t33 -109.5q16 32 30 61.5t30.5 58.5t36 57.5t46.5 57.5q15 13 29 15t24 -4t13.5 -18.5t-2.5 -28.5q-37 -52 -74 -114.5t-66 -122.5q-4 -8 -10.5 -24t-12.5 -34t-10.5 -34.5t-4.5 -23.5q0 -68 1 -119
t2 -92.5t0.5 -77t-3.5 -71.5q-4 -16 -14 -24t-21.5 -8.5t-21.5 7.5t-15 25q0 100 0.5 199.5t-0.5 201.5q-15 28 -29 73.5t-25 93.5t-19 92.5t-9 70.5zM137 918q17 -22 12.5 -44t-20 -35t-37 -13t-37.5 23q-14 21 -9.5 40t18.5 30t34.5 12.5t38.5 -13.5zM256 918
q17 -22 12.5 -44t-20 -35t-37 -13t-37.5 23q-14 21 -9.5 40t18.5 30t34.5 12.5t38.5 -13.5z" />
    <glyph glyph-name="Agrave" unicode="&#xc0;" horiz-adv-x="319" 
d="M101 265q-7 -57 -10.5 -114.5t-5.5 -114.5q-3 -20 -14.5 -28.5t-24 -7t-23.5 12t-13 30.5q9 180 30.5 360.5t51.5 360.5q3 13 16 21t28 9t28.5 -6t18.5 -24q16 -92 32 -181t32 -177t31 -176.5t29 -181.5q1 -19 -8 -31.5t-21.5 -16t-25.5 4t-19 27.5q-5 34 -10 64.5
t-10.5 60.5t-11.5 60.5t-12 64.5q-20 2 -42 -0.5t-46 -16.5zM110 351q17 4 33.5 5t33.5 1q-8 49 -16.5 98t-16.5 99l-5 29q-2 -14 -3 -27.5t-3 -27.5zM150 989q14 -24 27.5 -53t24.5 -53q7 -15 1.5 -29t-17 -21t-26 -4t-24.5 22q-10 18 -17 30.5t-12.5 23.5t-11.5 22.5
t-14 29.5t-2 32t18.5 20t27 2t25.5 -22z" />
    <glyph glyph-name="Scaron" unicode="&#x160;" horiz-adv-x="329" 
d="M263 725q5 -17 0 -29.5t-15.5 -18.5t-24 -4.5t-26.5 13.5q-7 16 -22 26t-36 -1q-22 -13 -22 -34t6 -42q13 -44 36 -87t48.5 -86t50 -87t41 -89.5t20.5 -93.5t-11 -99q-10 -35 -37.5 -56.5t-62.5 -30t-71 -3t-62 23.5q-37 26 -47.5 62t-8.5 79q4 19 16.5 27.5t26 7
t23.5 -13t10 -30.5q-1 -29 9.5 -48t27 -27.5t35.5 -8t36 11t28 29.5t11 47q-1 36 -16.5 77t-38 85t-49 89.5t-49 91.5t-36.5 91t-12 88q1 28 15 49.5t35.5 35.5t47 19.5t50 1t44.5 -20.5t30 -45zM27 933q-12 16 -9.5 31.5t13 24.5t26 8t29.5 -18q19 -20 36 -35.5t37 -35.5
q34 35 48 53t15 18q15 18 31.5 20t27.5 -6t13.5 -24t-9.5 -32q-20 -25 -39.5 -47.5t-43.5 -48.5q-8 -9 -19.5 -12.5t-23 -3t-22 4.5t-17.5 10q-21 20 -48.5 46.5t-44.5 46.5z" />
    <glyph glyph-name="Aacute" unicode="&#xc1;" horiz-adv-x="319" 
d="M101 265q-7 -57 -10.5 -114.5t-5.5 -114.5q-3 -20 -14.5 -28.5t-24 -7t-23.5 12t-13 30.5q9 180 30.5 360.5t51.5 360.5q3 13 16 21t28 9t28.5 -6t18.5 -24q16 -92 32 -181t32 -177t31 -176.5t29 -181.5q1 -19 -8 -31.5t-21.5 -16t-25.5 4t-19 27.5q-5 34 -10 64.5
t-10.5 60.5t-11.5 60.5t-12 64.5q-20 2 -42 -0.5t-46 -16.5zM110 351q17 4 33.5 5t33.5 1q-8 49 -16.5 98t-16.5 99l-5 29q-2 -14 -3 -27.5t-3 -27.5zM131.006 989q-14 -24 -27.499 -53t-24.498 -53q-7 -15 -1.5 -29q5.49902 -14 16.999 -21q11.499 -7 25.998 -4t24.499 22
q9.99902 18 16.999 30.5q6.99902 12.5 12.499 23.5q5.49902 11 11.499 22.5t13.999 29.5q8 18 2 32t-18.499 20t-26.998 2t-25.498 -22z" />
    <glyph glyph-name="Atilde" unicode="&#xc3;" horiz-adv-x="319" 
d="M101 265q-7 -57 -10.5 -114.5t-5.5 -114.5q-3 -20 -14.5 -28.5t-24 -7t-23.5 12t-13 30.5q9 180 30.5 360.5t51.5 360.5q3 13 16 21t28 9t28.5 -6t18.5 -24q16 -92 32 -181t32 -177t31 -176.5t29 -181.5q1 -19 -8 -31.5t-21.5 -16t-25.5 4t-19 27.5q-5 34 -10 64.5
t-10.5 60.5t-11.5 60.5t-12 64.5q-20 2 -42 -0.5t-46 -16.5zM110 351q17 4 33.5 5t33.5 1q-8 49 -16.5 98t-16.5 99l-5 29q-2 -14 -3 -27.5t-3 -27.5zM43 838q-32 -6 -43.5 12t-0.5 47q6 19 17.5 39t26.5 33.5t32.5 17.5t37.5 -7q11 -6 23 -19t23.5 -23t23 -14t22.5 8
q8 13 9.5 21.5t3.5 12.5q6 15 18 20t23.5 0t18.5 -19.5t2 -39.5q-5 -24 -18.5 -44t-33 -31.5t-43 -11t-46.5 17.5q-14 11 -26.5 24t-28.5 24q-11 -18 -16 -36t-25 -32z" />
    <glyph glyph-name="Adieresis" unicode="&#xc4;" horiz-adv-x="319" 
d="M101 265q-7 -57 -10.5 -114.5t-5.5 -114.5q-3 -20 -14.5 -28.5t-24 -7t-23.5 12t-13 30.5q9 180 30.5 360.5t51.5 360.5q3 13 16 21t28 9t28.5 -6t18.5 -24q16 -92 32 -181t32 -177t31 -176.5t29 -181.5q1 -19 -8 -31.5t-21.5 -16t-25.5 4t-19 27.5q-5 34 -10 64.5
t-10.5 60.5t-11.5 60.5t-12 64.5q-20 2 -42 -0.5t-46 -16.5zM110 351q17 4 33.5 5t33.5 1q-8 49 -16.5 98t-16.5 99l-5 29q-2 -14 -3 -27.5t-3 -27.5zM118 918q17 -22 12.5 -44t-20 -35t-37 -13t-37.5 23q-14 21 -9.5 40t18.5 30t34.5 12.5t38.5 -13.5zM237 918
q17 -22 12.5 -44t-20 -35t-37 -13t-37.5 23q-14 21 -9.5 40t18.5 30t34.5 12.5t38.5 -13.5z" />
    <glyph glyph-name="Aring" unicode="&#xc5;" horiz-adv-x="319" 
d="M101 265q-7 -57 -10.5 -114.5t-5.5 -114.5q-3 -20 -14.5 -28.5t-24 -7t-23.5 12t-13 30.5q9 180 30.5 360.5t51.5 360.5q3 13 16 21t28 9t28.5 -6t18.5 -24q16 -92 32 -181t32 -177t31 -176.5t29 -181.5q1 -19 -8 -31.5t-21.5 -16t-25.5 4t-19 27.5q-5 34 -10 64.5
t-10.5 60.5t-11.5 60.5t-12 64.5q-20 2 -42 -0.5t-46 -16.5zM110 351q17 4 33.5 5t33.5 1q-8 49 -16.5 98t-16.5 99l-5 29q-2 -14 -3 -27.5t-3 -27.5zM136 1031q30 -2 52 -17t34.5 -37.5t14.5 -48t-8 -47.5t-32.5 -37.5t-58.5 -17.5q-28 -2 -49 12t-33 36t-13.5 48t7.5 49.5
t30 40t56 19.5zM136 900q15 -1 21.5 7t5.5 18t-8 18t-19 7q-11 0 -16 -8t-5 -17t5 -17t16 -8z" />
    <glyph glyph-name="AE" unicode="&#xc6;" horiz-adv-x="495" 
d="M262 -1q-17 3 -31.5 13.5t-14.5 30.5t1 40t1 40q-6 40 -13.5 77.5t-15.5 81.5q-20 2 -42 -0.5t-46 -16.5q-7 -57 -10.5 -114.5t-5.5 -114.5q-3 -20 -14.5 -28.5t-24 -7t-23.5 12t-13 30.5q9 180 30.5 360.5t51.5 360.5q3 13 16 21t28 9t28.5 -6t18.5 -24l36 -203v147
q-14 30 -4 49t34 29t57 12t65 -1t58 -9.5t36 -14.5q12 -12 13 -24t-6 -20.5t-19.5 -13t-27.5 -1.5q-36 2 -68.5 5.5t-66.5 -2.5v-156.5t1 -159.5q25 -1 46.5 3.5t44.5 6.5q11 2 21.5 -1.5t17.5 -11t8 -19t-8 -24.5q-23 -20 -59 -26.5t-71 -4.5q2 -66 2 -126t-2 -125
q38 1 78 7t74 20q18 4 29 -4t14.5 -20.5t-2 -26.5t-20.5 -22q-45 -17 -99.5 -23.5t-102.5 -4.5zM110 351q17 4 33.5 5t33.5 1q-8 49 -16.5 98t-16.5 99l-5 29q-2 -14 -3 -27.5t-3 -27.5z" />
    <glyph glyph-name="Ccedilla" unicode="&#xc7;" horiz-adv-x="214" 
d="M136 0q0 -6 -0.5 -12.5t-2.5 -17.5q11 -15 24 -31t23 -33.5t14.5 -36.5t-0.5 -39q-7 -26 -33 -33.5t-56.5 -2t-57.5 21t-37 35.5q-3 8 -3 17.5t5.5 15.5t17.5 7t33 -6q3 -1 9.5 -3.5t14.5 -5.5t15 -5t12 -2q-11 17 -23 32l-24 30q-4 5 -5.5 14t-1.5 19t0.5 19.5t0.5 15.5
q0 21 11.5 32.5t26 12t26 -10.5t11.5 -33z" />
    <glyph glyph-name="Egrave" unicode="&#xc8;" horiz-adv-x="287" 
d="M56 -1q-17 3 -31.5 13.5t-14.5 30.5q3 88 3.5 169t0.5 161t-0.5 162.5t-0.5 172.5q-14 30 -4 49t34 29t57 12t65 -1t58 -9.5t36 -14.5q12 -12 13 -24t-6 -20.5t-19.5 -13t-27.5 -1.5q-36 2 -68.5 5.5t-66.5 -2.5v-156.5t1 -159.5q25 -1 46.5 3.5t44.5 6.5q11 2 21.5 -1.5
t17.5 -11t8 -19t-8 -24.5q-23 -20 -59 -26.5t-71 -4.5q2 -66 2 -126t-2 -125q38 1 78 7t74 20q18 4 29 -4t14.5 -20.5t-2 -26.5t-20.5 -22q-45 -17 -99.5 -23.5t-102.5 -4.5zM142 989q14 -24 27.5 -53t24.5 -53q7 -15 1.5 -29t-17 -21t-26 -4t-24.5 22q-10 18 -17 30.5
t-12.5 23.5t-11.5 22.5t-14 29.5t-2 32t18.5 20t27 2t25.5 -22z" />
    <glyph glyph-name="Eacute" unicode="&#xc9;" horiz-adv-x="287" 
d="M56 -1q-17 3 -31.5 13.5t-14.5 30.5q3 88 3.5 169t0.5 161t-0.5 162.5t-0.5 172.5q-14 30 -4 49t34 29t57 12t65 -1t58 -9.5t36 -14.5q12 -12 13 -24t-6 -20.5t-19.5 -13t-27.5 -1.5q-36 2 -68.5 5.5t-66.5 -2.5v-156.5t1 -159.5q25 -1 46.5 3.5t44.5 6.5q11 2 21.5 -1.5
t17.5 -11t8 -19t-8 -24.5q-23 -20 -59 -26.5t-71 -4.5q2 -66 2 -126t-2 -125q38 1 78 7t74 20q18 4 29 -4t14.5 -20.5t-2 -26.5t-20.5 -22q-45 -17 -99.5 -23.5t-102.5 -4.5zM123.006 989q-14 -24 -27.499 -53t-24.498 -53q-7 -15 -1.5 -29q5.49902 -14 16.999 -21
q11.499 -7 25.998 -4t24.499 22q9.99902 18 16.999 30.5q6.99902 12.5 12.499 23.5q5.49902 11 11.499 22.5t13.999 29.5q8 18 2 32t-18.499 20t-26.998 2t-25.498 -22z" />
    <glyph glyph-name="Edieresis" unicode="&#xcb;" horiz-adv-x="287" 
d="M56 -1q-17 3 -31.5 13.5t-14.5 30.5q3 88 3.5 169t0.5 161t-0.5 162.5t-0.5 172.5q-14 30 -4 49t34 29t57 12t65 -1t58 -9.5t36 -14.5q12 -12 13 -24t-6 -20.5t-19.5 -13t-27.5 -1.5q-36 2 -68.5 5.5t-66.5 -2.5v-156.5t1 -159.5q25 -1 46.5 3.5t44.5 6.5q11 2 21.5 -1.5
t17.5 -11t8 -19t-8 -24.5q-23 -20 -59 -26.5t-71 -4.5q2 -66 2 -126t-2 -125q38 1 78 7t74 20q18 4 29 -4t14.5 -20.5t-2 -26.5t-20.5 -22q-45 -17 -99.5 -23.5t-102.5 -4.5zM105 918q17 -22 12.5 -44t-20 -35t-37 -13t-37.5 23q-14 21 -9.5 40t18.5 30t34.5 12.5
t38.5 -13.5zM224 918q17 -22 12.5 -44t-20 -35t-37 -13t-37.5 23q-14 21 -9.5 40t18.5 30t34.5 12.5t38.5 -13.5z" />
    <glyph glyph-name="Igrave" unicode="&#xcc;" horiz-adv-x="236" 
d="M4 3q-16 3 -23 14.5t-5.5 24.5t10.5 23.5t24 10.5h66q1 81 1.5 159.5t0 157t-1 158.5t-0.5 164h-25t-12.5 -0.5t-10 -1t-18.5 -1.5q-17 3 -26.5 12.5t-11 21t5.5 23t23 18.5q7 3 26 5t43.5 3t51.5 1.5t51 0t42.5 -1t25.5 -1.5q18 -5 25.5 -17t5.5 -25t-12 -23t-26 -10h2
q-20 0 -43 -1t-44 -2q-1 -157 0 -318t0 -319q20 1 40 1.5t39 -4.5q15 -3 22.5 -14t8 -23.5t-5.5 -23.5t-19 -14q-23 -2 -53.5 -2.5t-63 0t-62.5 1.5t-51 3zM120 989q14 -24 27.5 -53t24.5 -53q7 -15 1.5 -29t-17 -21t-26 -4t-24.5 22q-10 18 -17 30.5t-12.5 23.5t-11.5 22.5
t-14 29.5t-2 32t18.5 20t27 2t25.5 -22z" />
    <glyph glyph-name="Iacute" unicode="&#xcd;" horiz-adv-x="236" 
d="M4 3q-16 3 -23 14.5t-5.5 24.5t10.5 23.5t24 10.5h66q1 81 1.5 159.5t0 157t-1 158.5t-0.5 164h-25t-12.5 -0.5t-10 -1t-18.5 -1.5q-17 3 -26.5 12.5t-11 21t5.5 23t23 18.5q7 3 26 5t43.5 3t51.5 1.5t51 0t42.5 -1t25.5 -1.5q18 -5 25.5 -17t5.5 -25t-12 -23t-26 -10h2
q-20 0 -43 -1t-44 -2q-1 -157 0 -318t0 -319q20 1 40 1.5t39 -4.5q15 -3 22.5 -14t8 -23.5t-5.5 -23.5t-19 -14q-23 -2 -53.5 -2.5t-63 0t-62.5 1.5t-51 3zM101.006 989q-14 -24 -27.499 -53t-24.498 -53q-7 -15 -1.5 -29q5.49902 -14 16.999 -21q11.499 -7 25.998 -4
t24.499 22q9.99902 18 16.999 30.5q6.99902 12.5 12.499 23.5q5.49902 11 11.499 22.5t13.999 29.5q8 18 2 32t-18.499 20t-26.998 2t-25.498 -22z" />
    <glyph glyph-name="Idieresis" unicode="&#xcf;" horiz-adv-x="236" 
d="M4 3q-16 3 -23 14.5t-5.5 24.5t10.5 23.5t24 10.5h66q1 81 1.5 159.5t0 157t-1 158.5t-0.5 164h-25t-12.5 -0.5t-10 -1t-18.5 -1.5q-17 3 -26.5 12.5t-11 21t5.5 23t23 18.5q7 3 26 5t43.5 3t51.5 1.5t51 0t42.5 -1t25.5 -1.5q18 -5 25.5 -17t5.5 -25t-12 -23t-26 -10h2
q-20 0 -43 -1t-44 -2q-1 -157 0 -318t0 -319q20 1 40 1.5t39 -4.5q15 -3 22.5 -14t8 -23.5t-5.5 -23.5t-19 -14q-23 -2 -53.5 -2.5t-63 0t-62.5 1.5t-51 3zM91 918q17 -22 12.5 -44t-20 -35t-37 -13t-37.5 23q-14 21 -9.5 40t18.5 30t34.5 12.5t38.5 -13.5zM210 918
q17 -22 12.5 -44t-20 -35t-37 -13t-37.5 23q-14 21 -9.5 40t18.5 30t34.5 12.5t38.5 -13.5z" />
    <glyph glyph-name="Eth" unicode="&#xd0;" horiz-adv-x="329" 
d="M23 342q-13 4 -20.5 14t-8 22t6.5 23t22 16h178q17 0 24.5 -11.5t7.5 -25.5t-8 -25.5t-23 -12.5h-179zM65 760q-1 10 4.5 22.5t22.5 12.5q65 4 113.5 -24t81 -77.5t49 -115t18 -136.5t-12.5 -141.5t-42.5 -131t-72 -104.5t-101.5 -62q-9 -3 -20.5 -3t-21 2.5t-16 8
t-6.5 15.5q-1 207 1.5 386t2.5 348zM135 720q-1 -156 0 -313t0 -315q42 24 72 66.5t47.5 95t23.5 111t1 114t-21.5 105t-44.5 83.5q-19 24 -40 38.5t-38 14.5z" />
    <glyph glyph-name="Ntilde" unicode="&#xd1;" horiz-adv-x="360" 
d="M23 760v5q0 13 7.5 22t18.5 12t23.5 -1t22.5 -17q24 -46 41 -94.5t32 -97.5q23 -68 44 -136.5t41 -139.5q2 30 3 70.5t1.5 85t1 89.5t0 85t-1 70.5t-1.5 46.5q1 22 14.5 31t28.5 7.5t27 -12t11 -26.5q-2 -92 -1.5 -183t0.5 -181.5t-1 -182t-6 -183.5q-14 -27 -36 -28.5
t-38 24.5q-20 58 -32.5 109.5t-29.5 111.5q-23 79 -46.5 157.5t-49.5 156.5l-2 9q0 -137 0.5 -273t0.5 -270q-4 -14 -14.5 -21t-22 -7.5t-22.5 6t-16 21.5q2 94 2.5 184t0.5 179.5t-0.5 181t-0.5 189.5zM83 838q-32 -6 -43.5 12t-0.5 47q6 19 17.5 39t26.5 33.5t32.5 17.5
t37.5 -7q11 -6 23 -19t23.5 -23t23 -14t22.5 8q8 13 9.5 21.5t3.5 12.5q6 15 18 20t23.5 0t18.5 -19.5t2 -39.5q-5 -24 -18.5 -44t-33 -31.5t-43 -11t-46.5 17.5q-14 11 -26.5 24t-28.5 24q-11 -18 -16 -36t-25 -32z" />
    <glyph glyph-name="Ograve" unicode="&#xd2;" horiz-adv-x="395" 
d="M263 785q35 -21 57 -58t34 -84t14.5 -101t-1.5 -109t-12.5 -107t-19.5 -95q-5 -21 -13 -48.5t-20 -56t-28 -54.5t-37 -44t-47.5 -25.5t-58.5 1.5q-21 6 -37 24t-27.5 40.5t-19 46t-11.5 40.5q-5 23 -10.5 66t-8.5 97t-1.5 114.5t10 118t25.5 108t45 84.5t69 47t98 -5z
M254 689q-8 12 -21 20.5t-27.5 11.5t-29.5 -1t-26 -17q-17 -20 -28.5 -52t-18.5 -69.5t-10.5 -79t-4.5 -81t0.5 -74.5t3.5 -60q1 -12 5 -41.5t11 -62t18 -61.5t25.5 -41t33.5 0.5t43 62.5q11 25 19.5 52t15.5 53q6 25 12 61t10.5 77.5t6 85.5t-1.5 84.5t-11.5 75t-24.5 56.5
zM197 989q14 -24 27.5 -53t24.5 -53q7 -15 1.5 -29t-17 -21t-26 -4t-24.5 22q-10 18 -17 30.5t-12.5 23.5t-11.5 22.5t-14 29.5t-2 32t18.5 20t27 2t25.5 -22z" />
    <glyph glyph-name="Oacute" unicode="&#xd3;" horiz-adv-x="395" 
d="M263 785q35 -21 57 -58t34 -84t14.5 -101t-1.5 -109t-12.5 -107t-19.5 -95q-5 -21 -13 -48.5t-20 -56t-28 -54.5t-37 -44t-47.5 -25.5t-58.5 1.5q-21 6 -37 24t-27.5 40.5t-19 46t-11.5 40.5q-5 23 -10.5 66t-8.5 97t-1.5 114.5t10 118t25.5 108t45 84.5t69 47t98 -5z
M254 689q-8 12 -21 20.5t-27.5 11.5t-29.5 -1t-26 -17q-17 -20 -28.5 -52t-18.5 -69.5t-10.5 -79t-4.5 -81t0.5 -74.5t3.5 -60q1 -12 5 -41.5t11 -62t18 -61.5t25.5 -41t33.5 0.5t43 62.5q11 25 19.5 52t15.5 53q6 25 12 61t10.5 77.5t6 85.5t-1.5 84.5t-11.5 75t-24.5 56.5
zM177.006 989q-14 -24 -27.499 -53t-24.498 -53q-7 -15 -1.5 -29q5.49902 -14 16.999 -21q11.499 -7 25.998 -4t24.499 22q9.99902 18 16.999 30.5q6.99902 12.5 12.499 23.5q5.49902 11 11.499 22.5t13.999 29.5q8 18 2 32t-18.499 20t-26.998 2t-25.498 -22z" />
    <glyph glyph-name="Otilde" unicode="&#xd5;" horiz-adv-x="395" 
d="M263 785q35 -21 57 -58t34 -84t14.5 -101t-1.5 -109t-12.5 -107t-19.5 -95q-5 -21 -13 -48.5t-20 -56t-28 -54.5t-37 -44t-47.5 -25.5t-58.5 1.5q-21 6 -37 24t-27.5 40.5t-19 46t-11.5 40.5q-5 23 -10.5 66t-8.5 97t-1.5 114.5t10 118t25.5 108t45 84.5t69 47t98 -5z
M254 689q-8 12 -21 20.5t-27.5 11.5t-29.5 -1t-26 -17q-17 -20 -28.5 -52t-18.5 -69.5t-10.5 -79t-4.5 -81t0.5 -74.5t3.5 -60q1 -12 5 -41.5t11 -62t18 -61.5t25.5 -41t33.5 0.5t43 62.5q11 25 19.5 52t15.5 53q6 25 12 61t10.5 77.5t6 85.5t-1.5 84.5t-11.5 75t-24.5 56.5
zM104 838q-32 -6 -43.5 12t-0.5 47q6 19 17.5 39t26.5 33.5t32.5 17.5t37.5 -7q11 -6 23 -19t23.5 -23t23 -14t22.5 8q8 13 9.5 21.5t3.5 12.5q6 15 18 20t23.5 0t18.5 -19.5t2 -39.5q-5 -24 -18.5 -44t-33 -31.5t-43 -11t-46.5 17.5q-14 11 -26.5 24t-28.5 24
q-11 -18 -16 -36t-25 -32z" />
    <glyph glyph-name="Odieresis" unicode="&#xd6;" horiz-adv-x="395" 
d="M263 785q35 -21 57 -58t34 -84t14.5 -101t-1.5 -109t-12.5 -107t-19.5 -95q-5 -21 -13 -48.5t-20 -56t-28 -54.5t-37 -44t-47.5 -25.5t-58.5 1.5q-21 6 -37 24t-27.5 40.5t-19 46t-11.5 40.5q-5 23 -10.5 66t-8.5 97t-1.5 114.5t10 118t25.5 108t45 84.5t69 47t98 -5z
M254 689q-8 12 -21 20.5t-27.5 11.5t-29.5 -1t-26 -17q-17 -20 -28.5 -52t-18.5 -69.5t-10.5 -79t-4.5 -81t0.5 -74.5t3.5 -60q1 -12 5 -41.5t11 -62t18 -61.5t25.5 -41t33.5 0.5t43 62.5q11 25 19.5 52t15.5 53q6 25 12 61t10.5 77.5t6 85.5t-1.5 84.5t-11.5 75t-24.5 56.5
zM181 918q17 -22 12.5 -44t-20 -35t-37 -13t-37.5 23q-14 21 -9.5 40t18.5 30t34.5 12.5t38.5 -13.5zM300 918q17 -22 12.5 -44t-20 -35t-37 -13t-37.5 23q-14 21 -9.5 40t18.5 30t34.5 12.5t38.5 -13.5z" />
    <glyph glyph-name="multiply" unicode="&#xd7;" horiz-adv-x="255" 
d="M189 427q13 6 25.5 3.5t21 -10.5t10.5 -20.5t-6 -27.5q-27 -26 -48 -44.5t-39.5 -36t-38 -35t-44.5 -40.5q-13 -12 -26.5 -9t-22.5 13.5t-11 24.5t8 24q44 40 86 79t85 79zM23 386q-6 12 -3.5 24t11 20.5t21 10.5t27.5 -6q25 -28 44 -48t36.5 -38.5t35.5 -38t41 -45.5
q12 -12 8.5 -25.5t-14 -22t-24.5 -10.5t-25 8q-40 43 -79 85t-79 86z" />
    <glyph glyph-name="Ugrave" unicode="&#xd9;" horiz-adv-x="332" 
d="M22 763q-1 13 10.5 22.5t26 11.5t27 -6.5t14.5 -31.5l-7 -100q-7 -104 -6 -209t14 -209q1 -7 4 -30.5t8.5 -50.5t15 -49.5t23.5 -27.5q7 -3 20 8.5t25.5 29.5t23 38t12.5 34q8 57 9.5 128.5t0.5 147.5t-2 150.5t4 136.5q0 2 0.5 2.5t0.5 1.5q1 18 10.5 27t21.5 9t23 -8
t15 -25q3 -82 1.5 -171.5t-4.5 -181t-4.5 -181.5t3.5 -172q0 -27 -11 -41.5t-24.5 -14.5t-25.5 16.5t-13 53.5q-14 -25 -33 -43t-40.5 -24t-43.5 2.5t-42 36.5q-19 27 -31.5 69t-20 92t-11.5 104t-5 104.5t-1 94.5v74q0 4 1 29.5t2.5 57t4 59.5t4.5 36zM175 989
q14 -24 27.5 -53t24.5 -53q7 -15 1.5 -29t-17 -21t-26 -4t-24.5 22q-10 18 -17 30.5t-12.5 23.5t-11.5 22.5t-14 29.5t-2 32t18.5 20t27 2t25.5 -22z" />
    <glyph glyph-name="Uacute" unicode="&#xda;" horiz-adv-x="332" 
d="M22 763q-1 13 10.5 22.5t26 11.5t27 -6.5t14.5 -31.5l-7 -100q-7 -104 -6 -209t14 -209q1 -7 4 -30.5t8.5 -50.5t15 -49.5t23.5 -27.5q7 -3 20 8.5t25.5 29.5t23 38t12.5 34q8 57 9.5 128.5t0.5 147.5t-2 150.5t4 136.5q0 2 0.5 2.5t0.5 1.5q1 18 10.5 27t21.5 9t23 -8
t15 -25q3 -82 1.5 -171.5t-4.5 -181t-4.5 -181.5t3.5 -172q0 -27 -11 -41.5t-24.5 -14.5t-25.5 16.5t-13 53.5q-14 -25 -33 -43t-40.5 -24t-43.5 2.5t-42 36.5q-19 27 -31.5 69t-20 92t-11.5 104t-5 104.5t-1 94.5v74q0 4 1 29.5t2.5 57t4 59.5t4.5 36zM155.006 989
q-14 -24 -27.499 -53t-24.498 -53q-7 -15 -1.5 -29q5.49902 -14 16.999 -21q11.499 -7 25.998 -4t24.499 22q9.99902 18 16.999 30.5q6.99902 12.5 12.499 23.5q5.49902 11 11.499 22.5t13.999 29.5q8 18 2 32t-18.499 20t-26.998 2t-25.498 -22z" />
    <glyph glyph-name="Udieresis" unicode="&#xdc;" horiz-adv-x="332" 
d="M22 763q-1 13 10.5 22.5t26 11.5t27 -6.5t14.5 -31.5l-7 -100q-7 -104 -6 -209t14 -209q1 -7 4 -30.5t8.5 -50.5t15 -49.5t23.5 -27.5q7 -3 20 8.5t25.5 29.5t23 38t12.5 34q8 57 9.5 128.5t0.5 147.5t-2 150.5t4 136.5q0 2 0.5 2.5t0.5 1.5q1 18 10.5 27t21.5 9t23 -8
t15 -25q3 -82 1.5 -171.5t-4.5 -181t-4.5 -181.5t3.5 -172q0 -27 -11 -41.5t-24.5 -14.5t-25.5 16.5t-13 53.5q-14 -25 -33 -43t-40.5 -24t-43.5 2.5t-42 36.5q-19 27 -31.5 69t-20 92t-11.5 104t-5 104.5t-1 94.5v74q0 4 1 29.5t2.5 57t4 59.5t4.5 36zM148 918
q17 -22 12.5 -44t-20 -35t-37 -13t-37.5 23q-14 21 -9.5 40t18.5 30t34.5 12.5t38.5 -13.5zM267 918q17 -22 12.5 -44t-20 -35t-37 -13t-37.5 23q-14 21 -9.5 40t18.5 30t34.5 12.5t38.5 -13.5z" />
    <glyph glyph-name="Yacute" unicode="&#xdd;" horiz-adv-x="350" 
d="M1 763q3 16 13.5 25.5t22.5 10t23 -7t16 -24.5q5 -56 17 -111.5t33 -109.5q16 32 30 61.5t30.5 58.5t36 57.5t46.5 57.5q15 13 29 15t24 -4t13.5 -18.5t-2.5 -28.5q-37 -52 -74 -114.5t-66 -122.5q-4 -8 -10.5 -24t-12.5 -34t-10.5 -34.5t-4.5 -23.5q0 -68 1 -119
t2 -92.5t0.5 -77t-3.5 -71.5q-4 -16 -14 -24t-21.5 -8.5t-21.5 7.5t-15 25q0 100 0.5 199.5t-0.5 201.5q-15 28 -29 73.5t-25 93.5t-19 92.5t-9 70.5zM155.006 989q-14 -24 -27.499 -53t-24.498 -53q-7 -15 -1.5 -29q5.49902 -14 16.999 -21q11.499 -7 25.998 -4t24.499 22
q9.99902 18 16.999 30.5q6.99902 12.5 12.499 23.5q5.49902 11 11.499 22.5t13.999 29.5q8 18 2 32t-18.499 20t-26.998 2t-25.498 -22z" />
    <glyph glyph-name="copyright" unicode="&#xa9;" horiz-adv-x="704" 
d="M350 -3q-89 -3 -154 30t-107 88.5t-61 127.5t-16 147.5t26 148t66.5 129.5t105.5 92t142 35q89 0 153.5 -34t106 -89.5t60.5 -126.5t17 -145.5t-25.5 -146t-66.5 -128t-105 -91.5t-142 -37zM350 70q63 5 111.5 35.5t81 76.5t49.5 104t17.5 117.5t-15 116t-47.5 101.5
t-81.5 72.5t-115.5 29.5q-58 1 -104 -27.5t-79 -75.5t-51.5 -107.5t-21.5 -123.5t10.5 -122.5t44.5 -105t81 -71t120 -20.5zM262 496q5 60 16 106t35 68q22 15 40 15t32.5 -11t25 -30t17.5 -40.5t10.5 -43.5t3.5 -38q0 -12 -7 -20.5t-15.5 -10.5t-16 2.5t-8.5 18.5
q-3 12 -6.5 33t-9 40.5t-14.5 32t-22 5.5q-8 -6 -15 -32q-18 -81 -20 -148.5t0 -132.5q0 -6 1.5 -27.5t5 -46.5t9.5 -46.5t14 -26.5q13 -8 21.5 4t14 32t9 42t5.5 34q1 12 9 16.5t16 2t15 -10.5t7 -20q-2 -16 -6 -37.5t-11 -42.5t-17.5 -39.5t-24 -29.5t-30.5 -11.5
t-38 14.5q-20 16 -32.5 57.5t-17.5 95t-4 113.5t8 113z" />
    <glyph glyph-name="registered" unicode="&#xae;" horiz-adv-x="701" 
d="M350 -3q-89 -3 -154 30t-107 88.5t-61 127.5t-16 147.5t26 148t66.5 129.5t105.5 92t142 35q89 0 153.5 -34t106 -89.5t60.5 -126.5t17 -145.5t-25.5 -146t-66.5 -128t-105 -91.5t-142 -37zM350 70q63 5 111.5 35.5t81 76.5t49.5 104t17.5 117.5t-15 116t-47.5 101.5
t-81.5 72.5t-115.5 29.5q-58 1 -104 -27.5t-79 -75.5t-51.5 -107.5t-21.5 -123.5t10.5 -122.5t44.5 -105t81 -71t120 -20.5zM255 653q3 14 13.5 20t20.5 0q19 12 43.5 14t47 -5t39 -22t19.5 -37q4 -36 -4.5 -67.5t-25 -59.5t-39 -53t-44.5 -48q43 -59 74 -118.5t62 -119.5
q3 -11 0 -20t-9.5 -13.5t-15 -4t-16.5 9.5q-15 28 -28.5 54t-27 51t-28.5 50t-34 53q2 -106 0 -208q-3 -9 -9.5 -14.5t-14 -5.5t-14.5 4.5t-10 15.5q3 151 2 277t-1 247zM302 610v-162q30 29 54 60t32 67q7 29 -3.5 42.5t-27.5 16t-34 -4.5t-21 -19z" />
    <glyph glyph-name="degree" unicode="&#xb0;" horiz-adv-x="307" 
d="M149 501q-52 0 -84 23t-46 57.5t-11 75t20.5 74.5t48 56.5t72.5 21.5q47 -1 79.5 -23.5t49.5 -56.5t18 -73.5t-15 -73.5t-48.5 -57t-83.5 -24zM149 578q38 1 57 24.5t19 52t-18 52t-55 23.5q-35 0 -53 -24t-18.5 -53t16.5 -52.5t52 -22.5z" />
    <glyph glyph-name="minus" unicode="&#x2212;" horiz-adv-x="326" 
d="M44 289q-13 3 -20 13t-7.5 21.5t6.5 22.5t22 17h231q17 0 25 -11.5t7.5 -25t-8.5 -25.5t-23 -12h-233z" />
    <glyph glyph-name="cent" unicode="&#xa2;" horiz-adv-x="425" 
d="M142 563q34 21 66.5 22t61.5 -11.5t53.5 -35.5t42.5 -49.5t28 -53t10 -45.5q0 -17 -8.5 -30t-20.5 -17t-24 3t-19 30q-4 18 -16.5 42t-30.5 44t-40 31t-43 2q-28 -12 -49.5 -40.5t-35 -66.5t-18.5 -81.5t0.5 -85t23 -76.5t47.5 -56q25 -17 51.5 -8t49 30t38 47t19.5 43
q7 23 21.5 32t28 6t21 -17t1.5 -37q-3 -22 -14 -48.5t-29 -52t-42 -46.5t-54 -32.5t-64.5 -10t-72.5 21.5q-39 24 -64 65t-37 91t-10 105t16.5 107.5t43 98.5t69.5 79zM184 647q0 22 11.5 34t26 13t26 -11t11.5 -38v-142.5t-0.5 -122t-1 -110.5t-1 -107t-0.5 -111.5v-124.5
q0 -29 -11.5 -42.5t-26 -13t-26 14.5t-11.5 41v133.5v115t0.5 106.5t0.5 107.5t0.5 118.5t1.5 139z" />
    <glyph glyph-name="mu" unicode="&#xb5;" horiz-adv-x="332" 
d="M25 534q0 21 11.5 33t26 12.5t26 -11.5t11.5 -38v-257q0 -13 -1 -43t2 -61t13 -55t32 -25q18 -1 32.5 11t25 30t17 37.5t8.5 33.5q6 20 9 63.5t4.5 94t1.5 99t1 79.5q0 2 0.5 2.5t0.5 1.5q1 18 10.5 27t21.5 9t23 -8t15 -25q1 -20 1 -58t-1 -85t-2 -99t-2 -99.5t-1 -86
t1 -59.5q0 -27 -11 -41.5t-24.5 -14.5t-25.5 16.5t-13 53.5q-24 -46 -61.5 -62.5t-79.5 16.5v-99q0 -29 -11.5 -42.5t-26 -13t-26 14.5t-11.5 41v125v94t0.5 79.5t0.5 80.5t0.5 97.5t1.5 131.5z" />
    <glyph glyph-name="cedilla" unicode="&#xb8;" horiz-adv-x="206" 
d="M136 0q0 -6 -0.5 -12.5t-2.5 -17.5q11 -15 24 -31t23 -33.5t14.5 -36.5t-0.5 -39q-7 -26 -33 -33.5t-56.5 -2t-57.5 21t-37 35.5q-3 8 -3 17.5t5.5 15.5t17.5 7t33 -6q3 -1 9.5 -3.5t14.5 -5.5t15 -5t12 -2q-11 17 -23 32l-24 30q-4 5 -5.5 14t-1.5 19t0.5 19.5t0.5 15.5
q0 21 11.5 32.5t26 12t26 -10.5t11.5 -33z" />
    <glyph glyph-name="divide" unicode="&#xf7;" horiz-adv-x="326" 
d="M44 289q-13 3 -20 13t-7.5 21.5t6.5 22.5t22 17h231q17 0 25 -11.5t7.5 -25t-8.5 -25.5t-23 -12h-233zM202 247q17 -22 12.5 -44.5t-20 -35.5t-37 -13t-37.5 23q-14 21 -9.5 40t18.5 30t34.5 12.5t38.5 -12.5zM202 474q17 -22 12.5 -44.5t-20 -35.5t-37 -13t-37.5 23
q-14 21 -9.5 40t18.5 30t34.5 12.5t38.5 -12.5z" />
    <glyph glyph-name="oslash" unicode="&#xf8;" horiz-adv-x="260" 
d="M175 570q22 -15 36 -42t21.5 -61t9 -73.5t-0.5 -79.5t-7.5 -78t-12.5 -70q-5 -23 -14 -56t-24.5 -60.5t-37.5 -44t-53 -6.5q-13 5 -23 18t-17.5 29.5t-12 33.5t-7.5 30q-4 22 -8.5 69.5t-4.5 104.5t6.5 115.5t23.5 102t47.5 64.5t78.5 4zM170 501q-6 8 -14 14t-17.5 8
t-18.5 -0.5t-16 -12.5q-16 -22 -24.5 -61.5t-12 -84t-3 -87t2.5 -70.5q1 -9 3.5 -30.5t7 -45.5t11 -45t16 -29.5t21.5 0.5t27 45q8 19 13 38t9 39q6 27 11.5 71.5t7 92t-3.5 90.5t-20 68zM176.004 559.865q2.95898 13.8438 13.6855 19.6729t21.083 4.37207t17.3838 -9.47266
q7.02734 -8.01465 3.3291 -21.1299q-23.6719 -80.1504 -41.0557 -142.449q-17.3848 -62.2979 -34.3984 -120.589t-35.8779 -120.59q-18.8633 -62.2988 -44.0146 -142.449q-8.13672 -18.9443 -19.6035 -24.0449q-11.4658 -5.09961 -20.7129 -1.09277
q-9.24609 4.00781 -14.0547 15.666t1.84961 26.96q15.5342 52.4609 28.8496 96.9082t25.1514 84.8867t23.3018 78.6924q11.4668 38.2539 23.3027 77.9648q11.8359 39.71 24.4111 83.0645q12.5752 43.3535 27.3701 93.6299z" />
    <glyph glyph-name="Thorn" unicode="&#xde;" horiz-adv-x="388" 
d="M17 749q0 22 11.5 34t26 12.5t26 -11.5t11.5 -38v-171q28 1 56 2.5t56 -0.5t54.5 -8.5t52.5 -20.5q25 -15 40 -43t19.5 -60.5t-0.5 -64.5t-19 -54q-18 -33 -47.5 -52.5t-64.5 -30t-74 -14t-76 -5.5v-168q0 -29 -11.5 -43t-26 -13.5t-26 15t-11.5 41.5v131v110t0.5 100
t0.5 101t0.5 113.5t1.5 137.5zM91 500v-103t-2 -97q44 1 87.5 6.5t74.5 22.5t43 49.5t-7 88.5q-10 19 -33 27.5t-51 10.5t-58 -0.5z" />
    <glyph glyph-name="thorn" unicode="&#xfe;" horiz-adv-x="263" 
d="M27 552q0 13 8 21t17.5 8t17.5 -7.5t8 -24.5v-111.5t-2 -109.5q18 9 37.5 11t38.5 -3.5t36.5 -20t30.5 -39.5q11 -23 17.5 -52.5t6.5 -60t-6.5 -60.5t-21.5 -53t-39.5 -37t-58.5 -14q-13 0 -22.5 2.5t-18.5 7.5v-57q0 -19 -8 -28t-17.5 -8.5t-17.5 9.5t-8 27v296.5
t2 303.5zM105 51q25 -5 41.5 4t26.5 26.5t13 41.5t2 47.5t-5.5 45.5t-11.5 35q-8 18 -20.5 26.5t-26 9.5t-26.5 -4.5t-22 -15.5v-201q7 -11 29 -15z" />
    <glyph glyph-name="ae" unicode="&#xe6;" horiz-adv-x="319" 
d="M168 -1q-10 2 -19 10t-9 22q0 16 0.5 30t0.5 28q-5 29 -9 56.5t-9 59.5q-13 1 -26.5 -0.5t-30.5 -12.5q-3 -42 -5.5 -83t-3.5 -83q-2 -14 -9.5 -20.5t-15.5 -5.5t-14.5 9t-7.5 22q5 131 18.5 261.5t33.5 260.5q1 9 9 15t17.5 7t18.5 -4t12 -18l23 -146v106q-9 22 -3 35.5
t21 20.5t36 8.5t41.5 -1t37 -7.5t22.5 -10q14 -18 4.5 -33t-29.5 -11q-23 2 -43.5 5t-40.5 -1v-228q15 -1 29 1.5t28 2.5q14 4 24.5 -6.5t-0.5 -30.5q-14 -16 -37 -20t-44 -2v-183q24 1 49 5.5t47 14.5q11 3 18 -2.5t9 -15t-1.5 -20t-12.5 -16.5q-29 -12 -63 -17t-66 -3z
M73 255q11 3 21 4t21 1q-6 33 -10.5 69.5t-9.5 71.5l-4 21q0 -11 -1 -20.5t-2 -19.5z" />
    <glyph glyph-name="germandbls" unicode="&#xdf;" horiz-adv-x="401" 
d="M101 31q0 -20 -11 -30t-24.5 -10.5t-25.5 9t-14 28.5q-1 52 -2.5 100t-3 94.5t-2.5 94t-1 99.5q0 38 -0.5 93.5t4.5 112.5t19.5 108t44.5 81q29 29 75.5 46.5t91.5 15.5t80.5 -29.5t43.5 -88.5q5 -44 -11 -84t-38 -78.5t-41.5 -77t-21.5 -80.5q0 -23 12.5 -48t29.5 -50
t35 -49t28 -46q23 -48 11 -91.5t-44 -76.5t-77.5 -53.5t-88.5 -21.5q-17 2 -26.5 11.5t-11 21.5t6 24t23.5 18q25 1 54 10.5t51.5 27t33 42.5t-1.5 57q-14 36 -38 68.5t-43.5 66t-27.5 70.5t11 83q9 22 26.5 54t35 66.5t29 67.5t7.5 56q-6 32 -25 46t-43 14.5t-48 -11
t-38 -29.5q-18 -21 -27.5 -50.5t-15 -61.5t-7.5 -64t-3 -59q-6 -123 0.5 -245.5t8.5 -251.5z" />
    <glyph glyph-name="eth" unicode="&#xf0;" horiz-adv-x="378" 
d="M113 451q-9 -6 -17.5 -5t-13.5 6.5t-6.5 14.5t3.5 19l34 36l-17 9q-17 7 -20.5 18.5t3.5 22.5q13 13 32 6t39 -22l20 16q13 11 23 9.5t14.5 -9t3.5 -19t-10 -19.5l-12 -12q16 -16 28.5 -30t18.5 -21q22 -26 44 -60.5t39 -73.5t28.5 -80t11.5 -80t-12 -73.5t-41 -60.5
q-28 -25 -61.5 -35t-66.5 -7t-63.5 19t-52.5 42t-33.5 62.5t-7.5 81.5q2 40 13 78.5t32 70.5t53.5 55.5t76.5 34.5q-11 12 -21.5 23.5t-21.5 21.5zM157 49q53 -9 86 5t49 43t17 68.5t-8.5 81t-28.5 81t-43 68.5q-38 3 -69.5 -18.5t-53 -56t-31.5 -77t-5 -82t26 -71t61 -42.5
z" />
    <glyph glyph-name="Aogonek" unicode="&#x104;" horiz-adv-x="319" 
d="M101 265q-7 -57 -10.5 -114.5t-5.5 -114.5q-3 -20 -14.5 -28.5t-24 -7t-23.5 12t-13 30.5q9 180 30.5 360.5t51.5 360.5q3 13 16 21t28 9t28.5 -6t18.5 -24q16 -92 32 -181t32 -177t31 -176.5t29 -181.5q1 -19 -8 -31.5t-21.5 -16t-25.5 4t-19 27.5q-5 34 -10 64.5
t-10.5 60.5t-11.5 60.5t-12 64.5q-20 2 -42 -0.5t-46 -16.5zM110 351q17 4 33.5 5t33.5 1q-8 49 -16.5 98t-16.5 99l-5 29q-2 -14 -3 -27.5t-3 -27.5zM283 -4q-11 -15 -23 -30t-23 -32q4 0 11 2t14.5 5t14.5 5.5t10 3.5q21 7 33 6t17.5 -7t5.5 -15.5t-4 -17.5
q-9 -20 -36 -35.5t-57 -21t-56 2t-33 33.5q-6 20 -1.5 39t14 36.5t22.5 33.5t25 31q12 16 32.5 24t36 5t18.5 -19.5t-21 -48.5z" />
    <glyph glyph-name="Lcaron" unicode="&#x13d;" horiz-adv-x="311" 
d="M63 -1q-11 -2 -24 4t-18 23q2 94 2.5 184t0.5 179.5t-0.5 181t-0.5 189.5q3 16 13 24.5t21 9t22 -7.5t17 -25q-2 -166 -1 -335.5t1 -337.5q42 11 86.5 13.5t85.5 -5.5q17 -5 24 -17t5.5 -24.5t-10.5 -23t-24 -13.5h-1q-51 0 -100 -0.5t-99 -18.5zM-70 933
q-12 16 -9.5 31.5t13 24.5t26 8t29.5 -18q19 -20 36 -35.5t37 -35.5q34 35 48 53t15 18q15 18 31.5 20t27.5 -6t13.5 -24t-9.5 -32q-20 -25 -39.5 -47.5t-43.5 -48.5q-8 -9 -19.5 -12.5t-23 -3t-22 4.5t-17.5 10q-21 20 -48.5 46.5t-44.5 46.5z" />
    <glyph glyph-name="Sacute" unicode="&#x15a;" horiz-adv-x="329" 
d="M263 725q5 -17 0 -29.5t-15.5 -18.5t-24 -4.5t-26.5 13.5q-7 16 -22 26t-36 -1q-22 -13 -22 -34t6 -42q13 -44 36 -87t48.5 -86t50 -87t41 -89.5t20.5 -93.5t-11 -99q-10 -35 -37.5 -56.5t-62.5 -30t-71 -3t-62 23.5q-37 26 -47.5 62t-8.5 79q4 19 16.5 27.5t26 7
t23.5 -13t10 -30.5q-1 -29 9.5 -48t27 -27.5t35.5 -8t36 11t28 29.5t11 47q-1 36 -16.5 77t-38 85t-49 89.5t-49 91.5t-36.5 91t-12 88q1 28 15 49.5t35.5 35.5t47 19.5t50 1t44.5 -20.5t30 -45zM155.006 989q-14 -24 -27.499 -53t-24.498 -53q-7 -15 -1.5 -29
q5.49902 -14 16.999 -21q11.499 -7 25.998 -4t24.499 22q9.99902 18 16.999 30.5q6.99902 12.5 12.499 23.5q5.49902 11 11.499 22.5t13.999 29.5q8 18 2 32t-18.499 20t-26.998 2t-25.498 -22z" />
    <glyph glyph-name="Scedilla" unicode="&#x15e;" horiz-adv-x="329" 
d="M263 725q5 -17 0 -29.5t-15.5 -18.5t-24 -4.5t-26.5 13.5q-7 16 -22 26t-36 -1q-22 -13 -22 -34t6 -42q13 -44 36 -87t48.5 -86t50 -87t41 -89.5t20.5 -93.5t-11 -99q-10 -38 -40.5 -59.5t-66.5 -29.5v-4q0 -6 -1 -12.5t-2 -17.5q12 -15 25 -31t22.5 -33.5t14 -36.5
t-0.5 -39q-7 -26 -33 -33.5t-56 -2t-57.5 21t-36.5 35.5q-4 8 -4 17.5t5.5 15.5t17.5 7t33 -6q3 -1 10 -3.5t14.5 -5.5t15 -5t11.5 -2q-11 17 -23 32l-24 30q-3 5 -5 14t-2.5 19t0 19.5t1.5 15.5v6q-14 4 -27 9t-24 13q-37 26 -47.5 62t-8.5 79q4 19 16.5 27.5t26 7
t23.5 -13t10 -30.5q-1 -29 9.5 -48t27 -27.5t35.5 -8t36 11t28 29.5t11 47q-1 36 -16.5 77t-38 85t-49 89.5t-49 91.5t-36.5 91t-12 88q1 28 15 49.5t35.5 35.5t47 19.5t50 1t44.5 -20.5t30 -45z" />
    <glyph glyph-name="Tcaron" unicode="&#x164;" 
d="M56 715h-25.5t-13 -0.5l-11 -1t-18.5 -1.5q-17 3 -26.5 12.5t-11 21t5.5 23t23 18.5q7 3 26 5t43.5 3t51.5 1.5t51 0t42.5 -1t25.5 -1.5q18 -5 25.5 -17t6 -24.5t-11 -22.5t-25.5 -11q-19 0 -42.5 -1t-44.5 -2v-132v-149t0.5 -180.5t0.5 -227.5q-4 -14 -14 -21t-22 -7.5
t-23 6t-16 21.5q3 178 3 348v341zM-37 933q-12 16 -9.5 31.5t13 24.5t26 8t29.5 -18q19 -20 36 -35.5t37 -35.5q34 35 48 53t15 18q15 18 31.5 20t27.5 -6t13.5 -24t-9.5 -32q-20 -25 -39.5 -47.5t-43.5 -48.5q-8 -9 -19.5 -12.5t-23 -3t-22 4.5t-17.5 10q-21 20 -48.5 46.5
t-44.5 46.5z" />
    <glyph glyph-name="Zacute" unicode="&#x179;" horiz-adv-x="277" 
d="M49 720q-17 2 -26 11.5t-10.5 21.5t5.5 23.5t23 17.5q44 1 81 3.5t65 1t47.5 -9t28.5 -26.5t7.5 -52.5t-14.5 -85.5q-17 -75 -37.5 -145t-42 -136t-42 -129.5t-36.5 -126.5q14 -4 34.5 -4t41.5 1t39 1.5t27 -2.5q22 -6 28.5 -19t2 -26.5t-17.5 -24t-29 -10.5
q-79 -7 -125.5 -5t-68 16.5t-22 43.5t12.5 76q10 37 25 84.5t32.5 100.5t35.5 108.5t34 108.5t28 100t17 83q-37 4 -71.5 2t-72.5 -2zM135.006 989q-14 -24 -27.499 -53t-24.498 -53q-7 -15 -1.5 -29q5.49902 -14 16.999 -21q11.499 -7 25.998 -4t24.499 22
q9.99902 18 16.999 30.5q6.99902 12.5 12.499 23.5q5.49902 11 11.499 22.5t13.999 29.5q8 18 2 32t-18.499 20t-26.998 2t-25.498 -22z" />
    <glyph glyph-name="Zdotaccent" unicode="&#x17b;" horiz-adv-x="277" 
d="M49 720q-17 2 -26 11.5t-10.5 21.5t5.5 23.5t23 17.5q44 1 81 3.5t65 1t47.5 -9t28.5 -26.5t7.5 -52.5t-14.5 -85.5q-17 -75 -37.5 -145t-42 -136t-42 -129.5t-36.5 -126.5q14 -4 34.5 -4t41.5 1t39 1.5t27 -2.5q22 -6 28.5 -19t2 -26.5t-17.5 -24t-29 -10.5
q-79 -7 -125.5 -5t-68 16.5t-22 43.5t12.5 76q10 37 25 84.5t32.5 100.5t35.5 108.5t34 108.5t28 100t17 83q-37 4 -71.5 2t-72.5 -2zM174 918q17 -22 12.5 -44t-20 -35t-37 -13t-37.5 23q-14 21 -9.5 40t18.5 30t34.5 12.5t38.5 -13.5z" />
    <glyph glyph-name="Racute" unicode="&#x154;" horiz-adv-x="373" 
d="M23 760q5 22 20.5 30t30.5 0q30 18 68 20.5t73 -7t60 -31t29 -52.5q7 -51 -6 -95t-38.5 -83t-60 -74t-68.5 -68q43 -53 72.5 -99.5t64.5 -98.5q24 -36 46 -74.5t43 -76.5q5 -16 0 -29t-15 -19t-23.5 -4.5t-25.5 13.5q-47 79 -93.5 153.5t-103.5 153.5v-292
q-4 -14 -14.5 -21t-22 -7.5t-22.5 6t-16 21.5q2 106 2.5 202t0.5 186t-0.5 176t-0.5 170zM95 702v-228q47 41 83.5 84.5t50.5 94.5q11 40 -6 59t-43.5 22t-52 -6.5t-32.5 -25.5zM145.006 989q-14 -24 -27.499 -53t-24.498 -53q-7 -15 -1.5 -29q5.49902 -14 16.999 -21
q11.499 -7 25.998 -4t24.499 22q9.99902 18 16.999 30.5q6.99902 12.5 12.499 23.5q5.49902 11 11.499 22.5t13.999 29.5q8 18 2 32t-18.499 20t-26.998 2t-25.498 -22z" />
    <glyph glyph-name="Abreve" unicode="&#x102;" horiz-adv-x="319" 
d="M101 265q-7 -57 -10.5 -114.5t-5.5 -114.5q-3 -20 -14.5 -28.5t-24 -7t-23.5 12t-13 30.5q9 180 30.5 360.5t51.5 360.5q3 13 16 21t28 9t28.5 -6t18.5 -24q16 -92 32 -181t32 -177t31 -176.5t29 -181.5q1 -19 -8 -31.5t-21.5 -16t-25.5 4t-19 27.5q-5 34 -10 64.5
t-10.5 60.5t-11.5 60.5t-12 64.5q-20 2 -42 -0.5t-46 -16.5zM110 351q17 4 33.5 5t33.5 1q-8 49 -16.5 98t-16.5 99l-5 29q-2 -14 -3 -27.5t-3 -27.5zM30 997q5 19 18 27.5t26 7t22.5 -12.5t8.5 -30q-3 -45 10.5 -66.5t31.5 -21.5t34.5 19.5t19.5 56.5q-2 24 9.5 38t26 16
t27 -9t12.5 -37q0 -54 -20.5 -89.5t-51 -52t-65 -15t-62 20.5t-42 56t-5.5 92z" />
    <glyph glyph-name="Lacute" unicode="&#x139;" horiz-adv-x="311" 
d="M63 -1q-11 -2 -24 4t-18 23q2 94 2.5 184t0.5 179.5t-0.5 181t-0.5 189.5q3 16 13 24.5t21 9t22 -7.5t17 -25q-2 -166 -1 -335.5t1 -337.5q42 11 86.5 13.5t85.5 -5.5q17 -5 24 -17t5.5 -24.5t-10.5 -23t-24 -13.5h-1q-51 0 -100 -0.5t-99 -18.5zM80.0059 989
q-14 -24 -27.499 -53t-24.498 -53q-7 -15 -1.5 -29q5.49902 -14 16.999 -21q11.499 -7 25.998 -4t24.499 22q9.99902 18 16.999 30.5q6.99902 12.5 12.499 23.5q5.49902 11 11.499 22.5t13.999 29.5q8 18 2 32t-18.499 20t-26.998 2t-25.498 -22z" />
    <glyph glyph-name="Cacute" unicode="&#x106;" horiz-adv-x="326" 
d="M22 539q5 40 11 76.5t15.5 67.5t22.5 54.5t33 38.5q34 21 62 20.5t50 -15.5t38.5 -40.5t27 -55t15.5 -59t5 -51.5q0 -18 -10.5 -29.5t-23.5 -14.5t-24.5 3.5t-14.5 24.5q-3 16 -8 45.5t-14 56.5t-22.5 44t-34.5 7q-14 -8 -24 -45q-14 -54 -21 -104.5t-9.5 -98t-2 -92.5
t2.5 -90q0 -7 2.5 -37t7.5 -64.5t14 -64.5t22 -36q20 -10 33.5 6.5t22.5 43.5t14 56.5t9 46.5q2 18 14 24.5t25 3.5t23.5 -14.5t10.5 -28.5q-3 -22 -10 -51.5t-18.5 -58.5t-27 -54.5t-36.5 -40.5t-47.5 -16t-58.5 20q-32 23 -51 79.5t-27.5 130.5t-7 156t11.5 156z
M155.006 989q-14 -24 -27.499 -53t-24.498 -53q-7 -15 -1.5 -29q5.49902 -14 16.999 -21q11.499 -7 25.998 -4t24.499 22q9.99902 18 16.999 30.5q6.99902 12.5 12.499 23.5q5.49902 11 11.499 22.5t13.999 29.5q8 18 2 32t-18.499 20t-26.998 2t-25.498 -22z" />
    <glyph glyph-name="Ccaron" unicode="&#x10c;" horiz-adv-x="326" 
d="M22 539q5 40 11 76.5t15.5 67.5t22.5 54.5t33 38.5q34 21 62 20.5t50 -15.5t38.5 -40.5t27 -55t15.5 -59t5 -51.5q0 -18 -10.5 -29.5t-23.5 -14.5t-24.5 3.5t-14.5 24.5q-3 16 -8 45.5t-14 56.5t-22.5 44t-34.5 7q-14 -8 -24 -45q-14 -54 -21 -104.5t-9.5 -98t-2 -92.5
t2.5 -90q0 -7 2.5 -37t7.5 -64.5t14 -64.5t22 -36q20 -10 33.5 6.5t22.5 43.5t14 56.5t9 46.5q2 18 14 24.5t25 3.5t23.5 -14.5t10.5 -28.5q-3 -22 -10 -51.5t-18.5 -58.5t-27 -54.5t-36.5 -40.5t-47.5 -16t-58.5 20q-32 23 -51 79.5t-27.5 130.5t-7 156t11.5 156zM39 933
q-12 16 -9.5 31.5t13 24.5t26 8t29.5 -18q19 -20 36 -35.5t37 -35.5q34 35 48 53t15 18q15 18 31.5 20t27.5 -6t13.5 -24t-9.5 -32q-20 -25 -39.5 -47.5t-43.5 -48.5q-8 -9 -19.5 -12.5t-23 -3t-22 4.5t-17.5 10q-21 20 -48.5 46.5t-44.5 46.5z" />
    <glyph glyph-name="Eogonek" unicode="&#x118;" horiz-adv-x="287" 
d="M56 -1q-17 3 -31.5 13.5t-14.5 30.5q3 88 3.5 169t0.5 161t-0.5 162.5t-0.5 172.5q-14 30 -4 49t34 29t57 12t65 -1t58 -9.5t36 -14.5q12 -12 13 -24t-6 -20.5t-19.5 -13t-27.5 -1.5q-36 2 -68.5 5.5t-66.5 -2.5v-156.5t1 -159.5q25 -1 46.5 3.5t44.5 6.5q11 2 21.5 -1.5
t17.5 -11t8 -19t-8 -24.5q-23 -20 -59 -26.5t-71 -4.5q2 -66 2 -126t-2 -125q38 1 78 7t74 20q18 4 29 -4t14.5 -20.5t-2 -26.5t-20.5 -22q-45 -17 -99.5 -23.5t-102.5 -4.5zM174 -37q-11 -15 -23 -30t-23 -32q4 0 11 2t14.5 5t14.5 5.5t10 3.5q21 7 33 6t17.5 -7t5.5 -15.5
t-4 -17.5q-9 -20 -36 -35.5t-57 -21t-56 2t-33 33.5q-6 20 -1.5 39t14 36.5t22.5 33.5t25 31q12 16 32.5 24t36 5t18.5 -19.5t-21 -48.5z" />
    <glyph glyph-name="Ecaron" unicode="&#x11a;" horiz-adv-x="287" 
d="M56 -1q-17 3 -31.5 13.5t-14.5 30.5q3 88 3.5 169t0.5 161t-0.5 162.5t-0.5 172.5q-14 30 -4 49t34 29t57 12t65 -1t58 -9.5t36 -14.5q12 -12 13 -24t-6 -20.5t-19.5 -13t-27.5 -1.5q-36 2 -68.5 5.5t-66.5 -2.5v-156.5t1 -159.5q25 -1 46.5 3.5t44.5 6.5q11 2 21.5 -1.5
t17.5 -11t8 -19t-8 -24.5q-23 -20 -59 -26.5t-71 -4.5q2 -66 2 -126t-2 -125q38 1 78 7t74 20q18 4 29 -4t14.5 -20.5t-2 -26.5t-20.5 -22q-45 -17 -99.5 -23.5t-102.5 -4.5zM17 933q-12 16 -9.5 31.5t13 24.5t26 8t29.5 -18q19 -20 36 -35.5t37 -35.5q34 35 48 53t15 18
q15 18 31.5 20t27.5 -6t13.5 -24t-9.5 -32q-20 -25 -39.5 -47.5t-43.5 -48.5q-8 -9 -19.5 -12.5t-23 -3t-22 4.5t-17.5 10q-21 20 -48.5 46.5t-44.5 46.5z" />
    <glyph glyph-name="Dcaron" unicode="&#x10e;" horiz-adv-x="329" 
d="M22 760q-1 10 4.5 22.5t22.5 12.5q65 4 113.5 -24t81 -77.5t49 -115t18 -136.5t-12.5 -141.5t-42.5 -131t-72 -104.5t-101.5 -62q-9 -3 -20.5 -3t-21 2.5t-16 8t-6.5 15.5q-1 207 1.5 386t2.5 348zM92 720q-1 -156 0 -313t0 -315q42 24 72 66.5t47.5 95t23.5 111t1 114
t-22 105t-44 83.5q-19 24 -40 38.5t-38 14.5zM17 933q-12 16 -9.5 31.5t13 24.5t26 8t29.5 -18q19 -20 36 -35.5t37 -35.5q34 35 48 53t15 18q15 18 31.5 20t27.5 -6t13.5 -24t-9.5 -32q-20 -25 -39.5 -47.5t-43.5 -48.5q-8 -9 -19.5 -12.5t-23 -3t-22 4.5t-17.5 10
q-21 20 -48.5 46.5t-44.5 46.5z" />
    <glyph glyph-name="Dcroat" unicode="&#x110;" horiz-adv-x="365" 
d="M23 342q-13 4 -20.5 14t-8 22t6.5 23t22 16h178q17 0 24.5 -11.5t7.5 -25.5t-8 -25.5t-23 -12.5h-179zM65 760q-1 10 4.5 22.5t22.5 12.5q65 4 113.5 -24t81 -77.5t49 -115t18 -136.5t-12.5 -141.5t-42.5 -131t-72 -104.5t-101.5 -62q-9 -3 -20.5 -3t-21 2.5t-16 8
t-6.5 15.5q-1 207 1.5 386t2.5 348zM135 720q-1 -156 0 -313t0 -315q42 24 72 66.5t47.5 95t23.5 111t1 114t-21.5 105t-44.5 83.5q-19 24 -40 38.5t-38 14.5z" />
    <glyph glyph-name="Nacute" unicode="&#x143;" horiz-adv-x="360" 
d="M23 760v5q0 13 7.5 22t18.5 12t23.5 -1t22.5 -17q24 -46 41 -94.5t32 -97.5q23 -68 44 -136.5t41 -139.5q2 30 3 70.5t1.5 85t1 89.5t0 85t-1 70.5t-1.5 46.5q1 22 14.5 31t28.5 7.5t27 -12t11 -26.5q-2 -92 -1.5 -183t0.5 -181.5t-1 -182t-6 -183.5q-14 -27 -36 -28.5
t-38 24.5q-20 58 -32.5 109.5t-29.5 111.5q-23 79 -46.5 157.5t-49.5 156.5l-2 9q0 -137 0.5 -273t0.5 -270q-4 -14 -14.5 -21t-22 -7.5t-22.5 6t-16 21.5q2 94 2.5 184t0.5 179.5t-0.5 181t-0.5 189.5zM167.006 989q-14 -24 -27.499 -53t-24.498 -53q-7 -15 -1.5 -29
q5.49902 -14 16.999 -21q11.499 -7 25.998 -4t24.499 22q9.99902 18 16.999 30.5q6.99902 12.5 12.499 23.5q5.49902 11 11.499 22.5t13.999 29.5q8 18 2 32t-18.499 20t-26.998 2t-25.498 -22z" />
    <glyph glyph-name="Ncaron" unicode="&#x147;" horiz-adv-x="360" 
d="M23 760v5q0 13 7.5 22t18.5 12t23.5 -1t22.5 -17q24 -46 41 -94.5t32 -97.5q23 -68 44 -136.5t41 -139.5q2 30 3 70.5t1.5 85t1 89.5t0 85t-1 70.5t-1.5 46.5q1 22 14.5 31t28.5 7.5t27 -12t11 -26.5q-2 -92 -1.5 -183t0.5 -181.5t-1 -182t-6 -183.5q-14 -27 -36 -28.5
t-38 24.5q-20 58 -32.5 109.5t-29.5 111.5q-23 79 -46.5 157.5t-49.5 156.5l-2 9q0 -137 0.5 -273t0.5 -270q-4 -14 -14.5 -21t-22 -7.5t-22.5 6t-16 21.5q2 94 2.5 184t0.5 179.5t-0.5 181t-0.5 189.5zM49 933q-12 16 -9.5 31.5t13 24.5t26 8t29.5 -18q19 -20 36 -35.5
t37 -35.5q34 35 48 53t15 18q15 18 31.5 20t27.5 -6t13.5 -24t-9.5 -32q-20 -25 -39.5 -47.5t-43.5 -48.5q-8 -9 -19.5 -12.5t-23 -3t-22 4.5t-17.5 10q-21 20 -48.5 46.5t-44.5 46.5z" />
    <glyph glyph-name="Ocircumflex" unicode="&#xd4;" horiz-adv-x="395" 
d="M263 785q35 -21 57 -58t34 -84t14.5 -101t-1.5 -109t-12.5 -107t-19.5 -95q-5 -21 -13 -48.5t-20 -56t-28 -54.5t-37 -44t-47.5 -25.5t-58.5 1.5q-21 6 -37 24t-27.5 40.5t-19 46t-11.5 40.5q-5 23 -10.5 66t-8.5 97t-1.5 114.5t10 118t25.5 108t45 84.5t69 47t98 -5z
M254 689q-8 12 -21 20.5t-27.5 11.5t-29.5 -1t-26 -17q-17 -20 -28.5 -52t-18.5 -69.5t-10.5 -79t-4.5 -81t0.5 -74.5t3.5 -60q1 -12 5 -41.5t11 -62t18 -61.5t25.5 -41t33.5 0.5t43 62.5q11 25 19.5 52t15.5 53q6 25 12 61t10.5 77.5t6 85.5t-1.5 84.5t-11.5 75t-24.5 56.5
zM71 891q17 20 44.5 46.5t48.5 46.5q7 7 17.5 11t22 4t23 -3.5t19.5 -12.5q24 -25 43.5 -48t39.5 -48q12 -16 9.5 -31.5t-13.5 -23.5t-27.5 -6.5t-31.5 19.5q-1 0 -15 18.5t-48 53.5q-20 -21 -37 -36.5t-36 -35.5q-14 -17 -29.5 -17.5t-26 8.5t-13 24.5t9.5 30.5z" />
    <glyph glyph-name="Ohungarumlaut" unicode="&#x150;" horiz-adv-x="395" 
d="M263 785q35 -21 57 -58t34 -84t14.5 -101t-1.5 -109t-12.5 -107t-19.5 -95q-5 -21 -13 -48.5t-20 -56t-28 -54.5t-37 -44t-47.5 -25.5t-58.5 1.5q-21 6 -37 24t-27.5 40.5t-19 46t-11.5 40.5q-5 23 -10.5 66t-8.5 97t-1.5 114.5t10 118t25.5 108t45 84.5t69 47t98 -5z
M254 689q-8 12 -21 20.5t-27.5 11.5t-29.5 -1t-26 -17q-17 -20 -28.5 -52t-18.5 -69.5t-10.5 -79t-4.5 -81t0.5 -74.5t3.5 -60q1 -12 5 -41.5t11 -62t18 -61.5t25.5 -41t33.5 0.5t43 62.5q11 25 19.5 52t15.5 53q6 25 12 61t10.5 77.5t6 85.5t-1.5 84.5t-11.5 75t-24.5 56.5
zM167 989q10 18 24.5 22t26.5 -2t18 -20t-2 -32t-13.5 -29.5t-11 -22.5t-12.5 -23.5t-17 -30.5q-11 -18 -25 -21t-25.5 3.5t-17 20t1.5 29.5q11 26 25 54t28 52zM264 989q11 18 25.5 22t26.5 -2t18 -20t-1 -32q-8 -18 -14 -29.5t-11.5 -22.5t-12.5 -23.5t-17 -30.5
q-11 -19 -25.5 -22t-25.5 4t-16.5 21t1.5 29q11 24 24.5 53t27.5 53z" />
    <glyph glyph-name="Rcaron" unicode="&#x158;" horiz-adv-x="373" 
d="M23 760q5 22 20.5 30t30.5 0q30 18 68 20.5t73 -7t60 -31t29 -52.5q7 -51 -6 -95t-38.5 -83t-60 -74t-68.5 -68q43 -53 72.5 -99.5t64.5 -98.5q24 -36 46 -74.5t43 -76.5q5 -16 0 -29t-15 -19t-23.5 -4.5t-25.5 13.5q-47 79 -93.5 153.5t-103.5 153.5v-292
q-4 -14 -14.5 -21t-22 -7.5t-22.5 6t-16 21.5q2 106 2.5 202t0.5 186t-0.5 176t-0.5 170zM95 702v-228q47 41 83.5 84.5t50.5 94.5q11 40 -6 59t-43.5 22t-52 -6.5t-32.5 -25.5zM17 933q-12 16 -9.5 31.5t13 24.5t26 8t29.5 -18q19 -20 36 -35.5t37 -35.5q34 35 48 53t15 18
q15 18 31.5 20t27.5 -6t13.5 -24t-9.5 -32q-20 -25 -39.5 -47.5t-43.5 -48.5q-8 -9 -19.5 -12.5t-23 -3t-22 4.5t-17.5 10q-21 20 -48.5 46.5t-44.5 46.5z" />
    <glyph glyph-name="Uring" unicode="&#x16e;" horiz-adv-x="332" 
d="M22 763q-1 13 10.5 22.5t26 11.5t27 -6.5t14.5 -31.5l-7 -100q-7 -104 -6 -209t14 -209q1 -7 4 -30.5t8.5 -50.5t15 -49.5t23.5 -27.5q7 -3 20 8.5t25.5 29.5t23 38t12.5 34q8 57 9.5 128.5t0.5 147.5t-2 150.5t4 136.5q0 2 0.5 2.5t0.5 1.5q1 18 10.5 27t21.5 9t23 -8
t15 -25q3 -82 1.5 -171.5t-4.5 -181t-4.5 -181.5t3.5 -172q0 -27 -11 -41.5t-24.5 -14.5t-25.5 16.5t-13 53.5q-14 -25 -33 -43t-40.5 -24t-43.5 2.5t-42 36.5q-19 27 -31.5 69t-20 92t-11.5 104t-5 104.5t-1 94.5v74q0 4 1 29.5t2.5 57t4 59.5t4.5 36zM167 1031
q30 -2 52 -17t34.5 -37.5t14.5 -48t-8 -47.5t-32.5 -37.5t-58.5 -17.5q-28 -2 -49 12t-33 36t-13.5 48t7.5 49.5t30 40t56 19.5zM167 900q15 -1 21.5 7t5.5 18t-8 18t-19 7q-11 0 -16 -8t-5 -17t5 -17t16 -8z" />
    <glyph glyph-name="Uhungarumlaut" unicode="&#x170;" horiz-adv-x="332" 
d="M22 763q-1 13 10.5 22.5t26 11.5t27 -6.5t14.5 -31.5l-7 -100q-7 -104 -6 -209t14 -209q1 -7 4 -30.5t8.5 -50.5t15 -49.5t23.5 -27.5q7 -3 20 8.5t25.5 29.5t23 38t12.5 34q8 57 9.5 128.5t0.5 147.5t-2 150.5t4 136.5q0 2 0.5 2.5t0.5 1.5q1 18 10.5 27t21.5 9t23 -8
t15 -25q3 -82 1.5 -171.5t-4.5 -181t-4.5 -181.5t3.5 -172q0 -27 -11 -41.5t-24.5 -14.5t-25.5 16.5t-13 53.5q-14 -25 -33 -43t-40.5 -24t-43.5 2.5t-42 36.5q-19 27 -31.5 69t-20 92t-11.5 104t-5 104.5t-1 94.5v74q0 4 1 29.5t2.5 57t4 59.5t4.5 36zM135 989
q10 18 24.5 22t26.5 -2t18 -20t-2 -32t-13.5 -29.5t-11 -22.5t-12.5 -23.5t-17 -30.5q-11 -18 -25 -21t-25.5 3.5t-17 20t1.5 29.5q11 26 25 54t28 52zM232 989q11 18 25.5 22t26.5 -2t18 -20t-1 -32q-8 -18 -14 -29.5t-11.5 -22.5t-12.5 -23.5t-17 -30.5q-11 -19 -25.5 -22
t-25.5 4t-16.5 21t1.5 29q11 24 24.5 53t27.5 53z" />
    <glyph glyph-name="uni0162" unicode="&#x162;" 
d="M56 715h-25.5t-13 -0.5l-11 -1t-18.5 -1.5q-17 3 -26.5 12.5t-11 21t5.5 23t23 18.5q7 3 26 5t43.5 3t51.5 1.5t51 0t42.5 -1t25.5 -1.5q18 -5 25.5 -17t6 -24.5t-11 -22.5t-25.5 -11q-19 0 -42.5 -1t-44.5 -2v-132v-149t0.5 -180.5t0.5 -227.5q-4 -14 -14 -21t-22 -7.5
t-23 6t-16 21.5q3 178 3 348v341zM127 -54q16 -18 23 -45.5t4 -55.5t-16.5 -52t-37.5 -36q-19 -7 -32.5 -0.5t-18.5 19t0 27t22 23.5q6 3 7 11.5t1 18.5q-18 3 -34 22q-14 21 -9.5 40t18.5 30t34.5 12.5t38.5 -12.5v-2z" />
    <glyph glyph-name="Acircumflex" unicode="&#xc2;" horiz-adv-x="319" 
d="M101 265q-7 -57 -10.5 -114.5t-5.5 -114.5q-3 -20 -14.5 -28.5t-24 -7t-23.5 12t-13 30.5q9 180 30.5 360.5t51.5 360.5q3 13 16 21t28 9t28.5 -6t18.5 -24q16 -92 32 -181t32 -177t31 -176.5t29 -181.5q1 -19 -8 -31.5t-21.5 -16t-25.5 4t-19 27.5q-5 34 -10 64.5
t-10.5 60.5t-11.5 60.5t-12 64.5q-20 2 -42 -0.5t-46 -16.5zM110 351q17 4 33.5 5t33.5 1q-8 49 -16.5 98t-16.5 99l-5 29q-2 -14 -3 -27.5t-3 -27.5zM7 891q17 20 44.5 46.5t48.5 46.5q7 7 17.5 11t22 4t23 -3.5t19.5 -12.5q24 -25 43.5 -48t39.5 -48q12 -16 9.5 -31.5
t-13.5 -23.5t-27.5 -6.5t-31.5 19.5q-1 0 -15 18.5t-48 53.5q-20 -21 -37 -36.5t-36 -35.5q-14 -17 -29.5 -17.5t-26 8.5t-13 24.5t9.5 30.5z" />
    <glyph glyph-name="Icircumflex" unicode="&#xce;" horiz-adv-x="236" 
d="M4 3q-16 3 -23 14.5t-5.5 24.5t10.5 23.5t24 10.5h66q1 81 1.5 159.5t0 157t-1 158.5t-0.5 164h-25t-12.5 -0.5t-10 -1t-18.5 -1.5q-17 3 -26.5 12.5t-11 21t5.5 23t23 18.5q7 3 26 5t43.5 3t51.5 1.5t51 0t42.5 -1t25.5 -1.5q18 -5 25.5 -17t5.5 -25t-12 -23t-26 -10h2
q-20 0 -43 -1t-44 -2q-1 -157 0 -318t0 -319q20 1 40 1.5t39 -4.5q15 -3 22.5 -14t8 -23.5t-5.5 -23.5t-19 -14q-23 -2 -53.5 -2.5t-63 0t-62.5 1.5t-51 3zM-15 891q17 20 44.5 46.5t48.5 46.5q7 7 17.5 11t22 4t23 -3.5t19.5 -12.5q24 -25 43.5 -48t39.5 -48
q12 -16 9.5 -31.5t-13.5 -23.5t-27.5 -6.5t-31.5 19.5q-1 0 -15 18.5t-48 53.5q-20 -21 -37 -36.5t-36 -35.5q-14 -17 -29.5 -17.5t-26 8.5t-13 24.5t9.5 30.5z" />
    <glyph glyph-name="Hcircumflex" unicode="&#x124;" horiz-adv-x="322" 
d="M224 750q0 20 10.5 32.5t23 14t24.5 -9t15 -36.5q-2 -179 -0.5 -355.5t0.5 -357.5q-4 -13 -14 -20.5t-22 -8.5t-22.5 5.5t-15.5 21.5q1 79 1.5 148t0.5 144q-17 5 -33.5 4t-33.5 -5t-33.5 -10t-32.5 -10q1 -72 1 -136t-1 -133q-3 -13 -13.5 -20.5t-22.5 -8.5t-23 5.5
t-16 21.5q2 95 2.5 181.5t0.5 172t-0.5 174t-0.5 186.5q1 22 12 33.5t24 12t24.5 -10.5t12.5 -34q-1 -93 -1 -180.5t1 -182.5q13 5 30.5 10t36 8t35.5 3t31 -5q0 87 -0.5 169t-0.5 177zM17 891q17 20 44.5 46.5t48.5 46.5q7 7 17.5 11t22 4t23 -3.5t19.5 -12.5
q24 -25 43.5 -48t39.5 -48q12 -16 9.5 -31.5t-13.5 -23.5t-27.5 -6.5t-31.5 19.5q-1 0 -15 18.5t-48 53.5q-20 -21 -37 -36.5t-36 -35.5q-14 -17 -29.5 -17.5t-26 8.5t-13 24.5t9.5 30.5z" />
    <glyph glyph-name="Idotaccent" unicode="&#x130;" horiz-adv-x="236" 
d="M4 3q-16 3 -23 14.5t-5.5 24.5t10.5 23.5t24 10.5h66q1 81 1.5 159.5t0 157t-1 158.5t-0.5 164h-25t-12.5 -0.5t-10 -1t-18.5 -1.5q-17 3 -26.5 12.5t-11 21t5.5 23t23 18.5q7 3 26 5t43.5 3t51.5 1.5t51 0t42.5 -1t25.5 -1.5q18 -5 25.5 -17t5.5 -25t-12 -23t-26 -10h2
q-20 0 -43 -1t-44 -2q-1 -157 0 -318t0 -319q20 1 40 1.5t39 -4.5q15 -3 22.5 -14t8 -23.5t-5.5 -23.5t-19 -14q-23 -2 -53.5 -2.5t-63 0t-62.5 1.5t-51 3zM149 918q17 -22 12.5 -44t-20 -35t-37 -13t-37.5 23q-14 21 -9.5 40t18.5 30t34.5 12.5t38.5 -13.5z" />
    <glyph glyph-name="Gbreve" unicode="&#x11e;" horiz-adv-x="326" 
d="M170 324q-5 20 1 32t15 18.5t18 9t11 3.5q12 3 23 4q10 1 20.5 0.5t19.5 -5.5q16 -11 22.5 -34t8 -48.5t-1 -49.5t-3.5 -36q-2 -22 -10 -52t-21 -59.5t-31 -56t-40.5 -41t-49 -14.5t-56.5 23q-31 29 -49 87t-25 130.5t-5 152.5t10 153q5 43 12 82.5t16 70.5t21 52.5
t28 29.5q36 20 63 19t46.5 -16t33 -40.5t21 -54.5t10.5 -58t3 -51q0 -18 -10.5 -29.5t-23.5 -14.5t-25 3.5t-14 24.5q-4 16 -5.5 45.5t-6.5 56.5t-15 44t-31 7q-14 -8 -24 -45q-14 -54 -21 -104.5t-9.5 -98t-2 -92.5t2.5 -90q0 -5 1 -20.5t3 -36.5t5.5 -45t9 -45t12 -36
t15.5 -19q17 -8 32 3.5t27 33.5t20.5 51t13.5 57t5.5 50.5t-3.5 32.5q-12 -2 -23 -4t-20 -1t-15 5.5t-9 15.5zM52 997q5 19 18 27.5t26 7t22.5 -12.5t8.5 -30q-3 -45 10.5 -66.5t31.5 -21.5t34.5 19.5t19.5 56.5q-2 24 9.5 38t26 16t27 -9t12.5 -37q0 -54 -20.5 -89.5
t-51 -52t-65 -15t-62 20.5t-42 56t-5.5 92z" />
    <glyph glyph-name="Jcircumflex" unicode="&#x134;" horiz-adv-x="302" 
d="M123 721q-20 3 -29.5 15t-9 25.5t11 24t30.5 10.5h180q19 0 30 -10t12.5 -22.5t-6.5 -25t-27 -17.5h-65q1 -62 3.5 -117.5t3.5 -110.5t-0.5 -111t-6.5 -118q-2 -41 -6.5 -82t-15.5 -81q-9 -31 -28.5 -54.5t-43.5 -35.5t-50 -10t-48.5 20.5t-38 56.5t-18.5 98
q3 17 13.5 26t22 9.5t22 -7t15.5 -24.5q1 -19 4 -38.5t9.5 -33.5t16.5 -21t25 -2q17 8 26 33.5t13 55t5 57.5t3 42q18 226 0 448h-53v0zM83 891q17 20 44.5 46.5t48.5 46.5q7 7 17.5 11t22 4t23 -3.5t19.5 -12.5q24 -25 43.5 -48t39.5 -48q12 -16 9.5 -31.5t-13.5 -23.5
t-27.5 -6.5t-31.5 19.5q-1 0 -15 18.5t-48 53.5q-20 -21 -37 -36.5t-36 -35.5q-14 -17 -29.5 -17.5t-26 8.5t-13 24.5t9.5 30.5z" />
    <glyph glyph-name="Ucircumflex" unicode="&#xdb;" horiz-adv-x="332" 
d="M22 763q-1 13 10.5 22.5t26 11.5t27 -6.5t14.5 -31.5l-7 -100q-7 -104 -6 -209t14 -209q1 -7 4 -30.5t8.5 -50.5t15 -49.5t23.5 -27.5q7 -3 20 8.5t25.5 29.5t23 38t12.5 34q8 57 9.5 128.5t0.5 147.5t-2 150.5t4 136.5q0 2 0.5 2.5t0.5 1.5q1 18 10.5 27t21.5 9t23 -8
t15 -25q3 -82 1.5 -171.5t-4.5 -181t-4.5 -181.5t3.5 -172q0 -27 -11 -41.5t-24.5 -14.5t-25.5 16.5t-13 53.5q-14 -25 -33 -43t-40.5 -24t-43.5 2.5t-42 36.5q-19 27 -31.5 69t-20 92t-11.5 104t-5 104.5t-1 94.5v74q0 4 1 29.5t2.5 57t4 59.5t4.5 36zM27 891
q17 20 44.5 46.5t48.5 46.5q7 7 17.5 11t22 4t23 -3.5t19.5 -12.5q24 -25 43.5 -48t39.5 -48q12 -16 9.5 -31.5t-13.5 -23.5t-27.5 -6.5t-31.5 19.5q-1 0 -15 18.5t-48 53.5q-20 -21 -37 -36.5t-36 -35.5q-14 -17 -29.5 -17.5t-26 8.5t-13 24.5t9.5 30.5z" />
    <glyph glyph-name="Ubreve" unicode="&#x16c;" horiz-adv-x="332" 
d="M22 763q-1 13 10.5 22.5t26 11.5t27 -6.5t14.5 -31.5l-7 -100q-7 -104 -6 -209t14 -209q1 -7 4 -30.5t8.5 -50.5t15 -49.5t23.5 -27.5q7 -3 20 8.5t25.5 29.5t23 38t12.5 34q8 57 9.5 128.5t0.5 147.5t-2 150.5t4 136.5q0 2 0.5 2.5t0.5 1.5q1 18 10.5 27t21.5 9t23 -8
t15 -25q3 -82 1.5 -171.5t-4.5 -181t-4.5 -181.5t3.5 -172q0 -27 -11 -41.5t-24.5 -14.5t-25.5 16.5t-13 53.5q-14 -25 -33 -43t-40.5 -24t-43.5 2.5t-42 36.5q-19 27 -31.5 69t-20 92t-11.5 104t-5 104.5t-1 94.5v74q0 4 1 29.5t2.5 57t4 59.5t4.5 36zM52 997q5 19 18 27.5
t26 7t22.5 -12.5t8.5 -30q-3 -45 10.5 -66.5t31.5 -21.5t34.5 19.5t19.5 56.5q-2 24 9.5 38t26 16t27 -9t12.5 -37q0 -54 -20.5 -89.5t-51 -52t-65 -15t-62 20.5t-42 56t-5.5 92z" />
    <glyph glyph-name="Cdotaccent" unicode="&#x10a;" horiz-adv-x="326" 
d="M22 539q5 40 11 76.5t15.5 67.5t22.5 54.5t33 38.5q34 21 62 20.5t50 -15.5t38.5 -40.5t27 -55t15.5 -59t5 -51.5q0 -18 -10.5 -29.5t-23.5 -14.5t-24.5 3.5t-14.5 24.5q-3 16 -8 45.5t-14 56.5t-22.5 44t-34.5 7q-14 -8 -24 -45q-14 -54 -21 -104.5t-9.5 -98t-2 -92.5
t2.5 -90q0 -7 2.5 -37t7.5 -64.5t14 -64.5t22 -36q20 -10 33.5 6.5t22.5 43.5t14 56.5t9 46.5q2 18 14 24.5t25 3.5t23.5 -14.5t10.5 -28.5q-3 -22 -10 -51.5t-18.5 -58.5t-27 -54.5t-36.5 -40.5t-47.5 -16t-58.5 20q-32 23 -51 79.5t-27.5 130.5t-7 156t11.5 156zM203 918
q17 -22 12.5 -44t-20 -35t-37 -13t-37.5 23q-14 21 -9.5 40t18.5 30t34.5 12.5t38.5 -13.5z" />
    <glyph glyph-name="Ccircumflex" unicode="&#x108;" horiz-adv-x="326" 
d="M22 539q5 40 11 76.5t15.5 67.5t22.5 54.5t33 38.5q34 21 62 20.5t50 -15.5t38.5 -40.5t27 -55t15.5 -59t5 -51.5q0 -18 -10.5 -29.5t-23.5 -14.5t-24.5 3.5t-14.5 24.5q-3 16 -8 45.5t-14 56.5t-22.5 44t-34.5 7q-14 -8 -24 -45q-14 -54 -21 -104.5t-9.5 -98t-2 -92.5
t2.5 -90q0 -7 2.5 -37t7.5 -64.5t14 -64.5t22 -36q20 -10 33.5 6.5t22.5 43.5t14 56.5t9 46.5q2 18 14 24.5t25 3.5t23.5 -14.5t10.5 -28.5q-3 -22 -10 -51.5t-18.5 -58.5t-27 -54.5t-36.5 -40.5t-47.5 -16t-58.5 20q-32 23 -51 79.5t-27.5 130.5t-7 156t11.5 156zM39 891
q17 20 44.5 46.5t48.5 46.5q7 7 17.5 11t22 4t23 -3.5t19.5 -12.5q24 -25 43.5 -48t39.5 -48q12 -16 9.5 -31.5t-13.5 -23.5t-27.5 -6.5t-31.5 19.5q-1 0 -15 18.5t-48 53.5q-20 -21 -37 -36.5t-36 -35.5q-14 -17 -29.5 -17.5t-26 8.5t-13 24.5t9.5 30.5z" />
    <glyph glyph-name="Ecircumflex" unicode="&#xca;" horiz-adv-x="287" 
d="M56 -1q-17 3 -31.5 13.5t-14.5 30.5q3 88 3.5 169t0.5 161t-0.5 162.5t-0.5 172.5q-14 30 -4 49t34 29t57 12t65 -1t58 -9.5t36 -14.5q12 -12 13 -24t-6 -20.5t-19.5 -13t-27.5 -1.5q-36 2 -68.5 5.5t-66.5 -2.5v-156.5t1 -159.5q25 -1 46.5 3.5t44.5 6.5q11 2 21.5 -1.5
t17.5 -11t8 -19t-8 -24.5q-23 -20 -59 -26.5t-71 -4.5q2 -66 2 -126t-2 -125q38 1 78 7t74 20q18 4 29 -4t14.5 -20.5t-2 -26.5t-20.5 -22q-45 -17 -99.5 -23.5t-102.5 -4.5zM17 891q17 20 44.5 46.5t48.5 46.5q7 7 17.5 11t22 4t23 -3.5t19.5 -12.5q24 -25 43.5 -48
t39.5 -48q12 -16 9.5 -31.5t-13.5 -23.5t-27.5 -6.5t-31.5 19.5q-1 0 -15 18.5t-48 53.5q-20 -21 -37 -36.5t-36 -35.5q-14 -17 -29.5 -17.5t-26 8.5t-13 24.5t9.5 30.5z" />
    <glyph glyph-name="Gcircumflex" unicode="&#x11c;" horiz-adv-x="326" 
d="M170 324q-5 20 1 32t15 18.5t18 9t11 3.5q12 3 23 4q10 1 20.5 0.5t19.5 -5.5q16 -11 22.5 -34t8 -48.5t-1 -49.5t-3.5 -36q-2 -22 -10 -52t-21 -59.5t-31 -56t-40.5 -41t-49 -14.5t-56.5 23q-31 29 -49 87t-25 130.5t-5 152.5t10 153q5 43 12 82.5t16 70.5t21 52.5
t28 29.5q36 20 63 19t46.5 -16t33 -40.5t21 -54.5t10.5 -58t3 -51q0 -18 -10.5 -29.5t-23.5 -14.5t-25 3.5t-14 24.5q-4 16 -5.5 45.5t-6.5 56.5t-15 44t-31 7q-14 -8 -24 -45q-14 -54 -21 -104.5t-9.5 -98t-2 -92.5t2.5 -90q0 -5 1 -20.5t3 -36.5t5.5 -45t9 -45t12 -36
t15.5 -19q17 -8 32 3.5t27 33.5t20.5 51t13.5 57t5.5 50.5t-3.5 32.5q-12 -2 -23 -4t-20 -1t-15 5.5t-9 15.5zM27 891q17 20 44.5 46.5t48.5 46.5q7 7 17.5 11t22 4t23 -3.5t19.5 -12.5q24 -25 43.5 -48t39.5 -48q12 -16 9.5 -31.5t-13.5 -23.5t-27.5 -6.5t-31.5 19.5
q-1 0 -15 18.5t-48 53.5q-20 -21 -37 -36.5t-36 -35.5q-14 -17 -29.5 -17.5t-26 8.5t-13 24.5t9.5 30.5z" />
    <glyph glyph-name="Gdotaccent" unicode="&#x120;" horiz-adv-x="326" 
d="M170 324q-5 20 1 32t15 18.5t18 9t11 3.5q12 3 23 4q10 1 20.5 0.5t19.5 -5.5q16 -11 22.5 -34t8 -48.5t-1 -49.5t-3.5 -36q-2 -22 -10 -52t-21 -59.5t-31 -56t-40.5 -41t-49 -14.5t-56.5 23q-31 29 -49 87t-25 130.5t-5 152.5t10 153q5 43 12 82.5t16 70.5t21 52.5
t28 29.5q36 20 63 19t46.5 -16t33 -40.5t21 -54.5t10.5 -58t3 -51q0 -18 -10.5 -29.5t-23.5 -14.5t-25 3.5t-14 24.5q-4 16 -5.5 45.5t-6.5 56.5t-15 44t-31 7q-14 -8 -24 -45q-14 -54 -21 -104.5t-9.5 -98t-2 -92.5t2.5 -90q0 -5 1 -20.5t3 -36.5t5.5 -45t9 -45t12 -36
t15.5 -19q17 -8 32 3.5t27 33.5t20.5 51t13.5 57t5.5 50.5t-3.5 32.5q-12 -2 -23 -4t-20 -1t-15 5.5t-9 15.5zM203 918q17 -22 12.5 -44t-20 -35t-37 -13t-37.5 23q-14 21 -9.5 40t18.5 30t34.5 12.5t38.5 -13.5z" />
    <glyph glyph-name="uni0156" unicode="&#x156;" horiz-adv-x="373" 
d="M23 760q5 22 20.5 30t30.5 0q30 18 68 20.5t73 -7t60 -31t29 -52.5q7 -51 -6 -95t-38.5 -83t-60 -74t-68.5 -68q43 -53 72.5 -99.5t64.5 -98.5q24 -36 46 -74.5t43 -76.5q5 -16 0 -29t-15 -19t-23.5 -4.5t-25.5 13.5q-47 79 -93.5 153.5t-103.5 153.5v-292
q-4 -14 -14.5 -21t-22 -7.5t-22.5 6t-16 21.5q2 106 2.5 202t0.5 186t-0.5 176t-0.5 170zM95 702v-228q47 41 83.5 84.5t50.5 94.5q11 40 -6 59t-43.5 22t-52 -6.5t-32.5 -25.5zM214 -54q16 -18 23 -45.5t4 -55.5t-16.5 -52t-37.5 -36q-19 -7 -32.5 -0.5t-18.5 19t0 27
t22 23.5q6 3 7 11.5t1 18.5q-18 3 -34 22q-14 21 -9.5 40t18.5 30t34.5 12.5t38.5 -12.5v-2z" />
    <glyph glyph-name="Itilde" unicode="&#x128;" horiz-adv-x="236" 
d="M4 3q-16 3 -23 14.5t-5.5 24.5t10.5 23.5t24 10.5h66q1 81 1.5 159.5t0 157t-1 158.5t-0.5 164h-25t-12.5 -0.5t-10 -1t-18.5 -1.5q-17 3 -26.5 12.5t-11 21t5.5 23t23 18.5q7 3 26 5t43.5 3t51.5 1.5t51 0t42.5 -1t25.5 -1.5q18 -5 25.5 -17t5.5 -25t-12 -23t-26 -10h2
q-20 0 -43 -1t-44 -2q-1 -157 0 -318t0 -319q20 1 40 1.5t39 -4.5q15 -3 22.5 -14t8 -23.5t-5.5 -23.5t-19 -14q-23 -2 -53.5 -2.5t-63 0t-62.5 1.5t-51 3zM18 838q-32 -6 -43.5 12t-0.5 47q6 19 17.5 39t26.5 33.5t32.5 17.5t37.5 -7q11 -6 23 -19t23.5 -23t23 -14t22.5 8
q8 13 9.5 21.5t3.5 12.5q6 15 18 20t23.5 0t18.5 -19.5t2 -39.5q-5 -24 -18.5 -44t-33 -31.5t-43 -11t-46.5 17.5q-14 11 -26.5 24t-28.5 24q-11 -18 -16 -36t-25 -32z" />
    <glyph glyph-name="uni0145" unicode="&#x145;" horiz-adv-x="360" 
d="M23 760v5q0 13 7.5 22t18.5 12t23.5 -1t22.5 -17q24 -46 41 -94.5t32 -97.5q23 -68 44 -136.5t41 -139.5q2 30 3 70.5t1.5 85t1 89.5t0 85t-1 70.5t-1.5 46.5q1 22 14.5 31t28.5 7.5t27 -12t11 -26.5q-2 -92 -1.5 -183t0.5 -181.5t-1 -182t-6 -183.5q-14 -27 -36 -28.5
t-38 24.5q-20 58 -32.5 109.5t-29.5 111.5q-23 79 -46.5 157.5t-49.5 156.5l-2 9q0 -137 0.5 -273t0.5 -270q-4 -14 -14.5 -21t-22 -7.5t-22.5 6t-16 21.5q2 94 2.5 184t0.5 179.5t-0.5 181t-0.5 189.5zM214 -55q16 -18 23 -45.5t4 -55.5t-16.5 -52t-37.5 -36
q-19 -7 -32.5 -0.5t-18.5 19t0 27t22 23.5q6 3 7 11.5t1 18.5q-18 3 -34 22q-14 21 -9.5 40t18.5 30t34.5 12.5t38.5 -12.5v-2z" />
    <glyph glyph-name="uni0136" unicode="&#x136;" horiz-adv-x="348" 
d="M23 760q3 16 13 24.5t21 9t22 -7.5t17 -25q-1 -71 -1 -143v-145q45 73 88.5 143t94.5 129q16 12 29.5 10t21 -13t7.5 -27.5t-12 -32.5q-27 -36 -50 -71.5t-45 -70t-44.5 -68t-47.5 -64.5q23 -39 49.5 -84.5t52 -92t48 -91t39.5 -82.5q8 -18 4 -33t-14.5 -21.5t-24.5 -3
t-24 21.5q-47 81 -88.5 159t-82.5 153v-307q-4 -14 -14.5 -21t-22 -7.5t-22.5 6t-16 21.5q2 94 2.5 184t0.5 179.5t-0.5 181t-0.5 189.5zM202 -54q16 -18 23 -45.5t4 -55.5t-16.5 -52t-37.5 -36q-19 -7 -32.5 -0.5t-18.5 19t0 27t22 23.5q6 3 7 11.5t1 18.5q-18 3 -34 22
q-14 21 -9.5 40t18.5 30t34.5 12.5t38.5 -12.5v-2z" />
    <glyph glyph-name="Iogonek" unicode="&#x12e;" horiz-adv-x="236" 
d="M4 3q-16 3 -23 14.5t-5.5 24.5t10.5 23.5t24 10.5h66q1 81 1.5 159.5t0 157t-1 158.5t-0.5 164h-25t-12.5 -0.5t-10 -1t-18.5 -1.5q-17 3 -26.5 12.5t-11 21t5.5 23t23 18.5q7 3 26 5t43.5 3t51.5 1.5t51 0t42.5 -1t25.5 -1.5q18 -5 25.5 -17t5.5 -25t-12 -23t-26 -10h2
q-20 0 -43 -1t-44 -2q-1 -157 0 -318t0 -319q20 1 40 1.5t39 -4.5q15 -3 22.5 -14t8 -23.5t-5.5 -23.5t-19 -14q-23 -2 -53.5 -2.5t-63 0t-62.5 1.5t-51 3zM142 -26q-11 -15 -23 -30t-23 -32q4 0 11 2t14.5 5t14.5 5.5t10 3.5q21 7 33 6t17.5 -7t5.5 -15.5t-4 -17.5
q-9 -20 -36 -35.5t-57 -21t-56 2t-33 33.5q-6 20 -1.5 39t14 36.5t22.5 33.5t25 31q12 16 32.5 24t36 5t18.5 -19.5t-21 -48.5z" />
    <glyph glyph-name="Edotaccent" unicode="&#x116;" horiz-adv-x="287" 
d="M56 -1q-17 3 -31.5 13.5t-14.5 30.5q3 88 3.5 169t0.5 161t-0.5 162.5t-0.5 172.5q-14 30 -4 49t34 29t57 12t65 -1t58 -9.5t36 -14.5q12 -12 13 -24t-6 -20.5t-19.5 -13t-27.5 -1.5q-36 2 -68.5 5.5t-66.5 -2.5v-156.5t1 -159.5q25 -1 46.5 3.5t44.5 6.5q11 2 21.5 -1.5
t17.5 -11t8 -19t-8 -24.5q-23 -20 -59 -26.5t-71 -4.5q2 -66 2 -126t-2 -125q38 1 78 7t74 20q18 4 29 -4t14.5 -20.5t-2 -26.5t-20.5 -22q-45 -17 -99.5 -23.5t-102.5 -4.5zM170 918q17 -22 12.5 -44t-20 -35t-37 -13t-37.5 23q-14 21 -9.5 40t18.5 30t34.5 12.5
t38.5 -13.5z" />
    <glyph glyph-name="uni013B" unicode="&#x13b;" horiz-adv-x="311" 
d="M63 -1q-11 -2 -24 4t-18 23q2 94 2.5 184t0.5 179.5t-0.5 181t-0.5 189.5q3 16 13 24.5t21 9t22 -7.5t17 -25q-2 -166 -1 -335.5t1 -337.5q42 11 86.5 13.5t85.5 -5.5q17 -5 24 -17t5.5 -24.5t-10.5 -23t-24 -13.5h-1q-51 0 -100 -0.5t-99 -18.5zM192 -54
q16 -18 23 -45.5t4 -55.5t-16.5 -52t-37.5 -36q-19 -7 -32.5 -0.5t-18.5 19t0 27t22 23.5q6 3 7 11.5t1 18.5q-18 3 -34 22q-14 21 -9.5 40t18.5 30t34.5 12.5t38.5 -12.5v-2z" />
    <glyph glyph-name="Uogonek" unicode="&#x172;" horiz-adv-x="332" 
d="M22 763q-1 13 10.5 22.5t26 11.5t27 -6.5t14.5 -31.5l-7 -100q-7 -104 -6 -209t14 -209q1 -7 4 -30.5t8.5 -50.5t15 -49.5t23.5 -27.5q7 -3 20 8.5t25.5 29.5t23 38t12.5 34q8 57 9.5 128.5t0.5 147.5t-2 150.5t4 136.5q0 2 0.5 2.5t0.5 1.5q1 18 10.5 27t21.5 9t23 -8
t15 -25q3 -82 1.5 -171.5t-4.5 -181t-4.5 -181.5t3.5 -172q0 -27 -11 -41.5t-24.5 -14.5t-25.5 16.5t-13 53.5q-11 -20 -24 -35.5t-30 -23.5q1 -8 -3.5 -19.5t-17.5 -28.5q-11 -16 -23 -30.5t-23 -31.5q4 0 11.5 2t15 4.5t14.5 5t10 3.5q21 8 33 6.5t17 -7.5t5 -15.5
t-3 -17.5q-6 -13 -20.5 -24.5t-33 -19.5t-39.5 -12t-39.5 -2t-32.5 11t-19 27q-5 20 0 39t14.5 36.5t22.5 33.5t24 31q3 2 5.5 5t6.5 6q-18 11 -30 29q-19 27 -31.5 69t-20 92t-11.5 104t-5 104.5t-1 94.5v74q0 4 1 29.5t2.5 57t4 59.5t4.5 36z" />
    <glyph glyph-name="Utilde" unicode="&#x168;" horiz-adv-x="332" 
d="M22 763q-1 13 10.5 22.5t26 11.5t27 -6.5t14.5 -31.5l-7 -100q-7 -104 -6 -209t14 -209q1 -7 4 -30.5t8.5 -50.5t15 -49.5t23.5 -27.5q7 -3 20 8.5t25.5 29.5t23 38t12.5 34q8 57 9.5 128.5t0.5 147.5t-2 150.5t4 136.5q0 2 0.5 2.5t0.5 1.5q1 18 10.5 27t21.5 9t23 -8
t15 -25q3 -82 1.5 -171.5t-4.5 -181t-4.5 -181.5t3.5 -172q0 -27 -11 -41.5t-24.5 -14.5t-25.5 16.5t-13 53.5q-14 -25 -33 -43t-40.5 -24t-43.5 2.5t-42 36.5q-19 27 -31.5 69t-20 92t-11.5 104t-5 104.5t-1 94.5v74q0 4 1 29.5t2.5 57t4 59.5t4.5 36zM61 838
q-32 -6 -43.5 12t-0.5 47q6 19 17.5 39t26.5 33.5t32.5 17.5t37.5 -7q11 -6 23 -19t23.5 -23t23 -14t22.5 8q8 13 9.5 21.5t3.5 12.5q6 15 18 20t23.5 0t18.5 -19.5t2 -39.5q-5 -24 -18.5 -44t-33 -31.5t-43 -11t-46.5 17.5q-14 11 -26.5 24t-28.5 24q-11 -18 -16 -36
t-25 -32z" />
    <glyph glyph-name="Tbar" unicode="&#x166;" horiz-adv-x="308" 
d="M110 715h-25.5t-13 -0.5l-11 -1t-18.5 -1.5q-17 3 -26.5 12.5t-11 21t5.5 23t23 18.5q7 3 26 5t43.5 3t51.5 1.5t51 0t42.5 -1t25.5 -1.5q18 -5 25.5 -17t6 -24.5t-11 -22.5t-25.5 -11q-19 0 -42.5 -1t-44.5 -2v-132v-149t0.5 -180.5t0.5 -227.5q-4 -14 -14 -21t-22 -7.5
t-23 6t-16 21.5q3 178 3 348v341zM35 505q-13 3 -20 13t-7.5 21.5t6.5 22.5t22 17h231q17 0 25 -11.5t7.5 -25t-8.5 -25.5t-23 -12h-233z" />
    <glyph glyph-name="uni0122" unicode="&#x122;" horiz-adv-x="326" 
d="M170 324q-5 20 1 32t15 18.5t18 9t11 3.5q12 3 23 4q10 1 20.5 0.5t19.5 -5.5q16 -11 22.5 -34t8 -48.5t-1 -49.5t-3.5 -36q-2 -22 -10 -52t-21 -59.5t-31 -56t-40.5 -41t-49 -14.5t-56.5 23q-31 29 -49 87t-25 130.5t-5 152.5t10 153q5 43 12 82.5t16 70.5t21 52.5
t28 29.5q36 20 63 19t46.5 -16t33 -40.5t21 -54.5t10.5 -58t3 -51q0 -18 -10.5 -29.5t-23.5 -14.5t-25 3.5t-14 24.5q-4 16 -5.5 45.5t-6.5 56.5t-15 44t-31 7q-14 -8 -24 -45q-14 -54 -21 -104.5t-9.5 -98t-2 -92.5t2.5 -90q0 -5 1 -20.5t3 -36.5t5.5 -45t9 -45t12 -36
t15.5 -19q17 -8 32 3.5t27 33.5t20.5 51t13.5 57t5.5 50.5t-3.5 32.5q-12 -2 -23 -4t-20 -1t-15 5.5t-9 15.5zM202 -54q16 -18 23 -45.5t4 -55.5t-16.5 -52t-37.5 -36q-19 -7 -32.5 -0.5t-18.5 19t0 27t22 23.5q6 3 7 11.5t1 18.5q-18 3 -34 22q-14 21 -9.5 40t18.5 30
t34.5 12.5t38.5 -12.5v-2z" />
    <glyph glyph-name="Wgrave" unicode="&#x1e80;" horiz-adv-x="510" 
d="M9 751q2 21 11.5 32t21 12.5t23.5 -7t18 -25.5q11 -98 19.5 -170.5t15.5 -125t12.5 -89.5t9.5 -62.5t7.5 -44t7.5 -35.5q15 67 31 135.5t33 141.5q4 15 14.5 22.5t22.5 7.5t22 -7.5t15 -23.5q3 -40 8 -76t10.5 -70.5t11 -70t11.5 -74.5q14 70 25 137t21.5 134.5t21.5 137
t25 144.5q3 13 15.5 18.5t27 4t25.5 -11t10 -25.5q-11 -92 -24.5 -181.5t-29.5 -178t-34.5 -178t-37.5 -181.5q-5 -19 -14 -28t-19.5 -11t-21 2.5t-18.5 12.5q-6 10 -12 30t-13 52.5t-15 79t-19 110.5q-9 -39 -14.5 -69.5t-10.5 -60t-10 -60.5t-13 -71q-5 -14 -14.5 -21.5
t-20.5 -7.5t-22 7t-18 22q-5 8 -15.5 47.5t-24 99t-27 133.5t-25 151.5t-18 153t-5.5 138.5zM254 989q14 -24 27.5 -53t24.5 -53q7 -15 1.5 -29t-17 -21t-26 -4t-24.5 22q-10 18 -17 30.5t-12.5 23.5t-11.5 22.5t-14 29.5t-2 32t18.5 20t27 2t25.5 -22z" />
    <glyph glyph-name="Wacute" unicode="&#x1e82;" horiz-adv-x="510" 
d="M9 751q2 21 11.5 32t21 12.5t23.5 -7t18 -25.5q11 -98 19.5 -170.5t15.5 -125t12.5 -89.5t9.5 -62.5t7.5 -44t7.5 -35.5q15 67 31 135.5t33 141.5q4 15 14.5 22.5t22.5 7.5t22 -7.5t15 -23.5q3 -40 8 -76t10.5 -70.5t11 -70t11.5 -74.5q14 70 25 137t21.5 134.5t21.5 137
t25 144.5q3 13 15.5 18.5t27 4t25.5 -11t10 -25.5q-11 -92 -24.5 -181.5t-29.5 -178t-34.5 -178t-37.5 -181.5q-5 -19 -14 -28t-19.5 -11t-21 2.5t-18.5 12.5q-6 10 -12 30t-13 52.5t-15 79t-19 110.5q-9 -39 -14.5 -69.5t-10.5 -60t-10 -60.5t-13 -71q-5 -14 -14.5 -21.5
t-20.5 -7.5t-22 7t-18 22q-5 8 -15.5 47.5t-24 99t-27 133.5t-25 151.5t-18 153t-5.5 138.5zM241.006 989q-14 -24 -27.499 -53t-24.498 -53q-7 -15 -1.5 -29q5.49902 -14 16.999 -21q11.499 -7 25.998 -4t24.499 22q9.99902 18 16.999 30.5q6.99902 12.5 12.499 23.5
q5.49902 11 11.499 22.5t13.999 29.5q8 18 2 32t-18.499 20t-26.998 2t-25.498 -22z" />
    <glyph glyph-name="Ygrave" unicode="&#x1ef2;" horiz-adv-x="350" 
d="M1 763q3 16 13.5 25.5t22.5 10t23 -7t16 -24.5q5 -56 17 -111.5t33 -109.5q16 32 30 61.5t30.5 58.5t36 57.5t46.5 57.5q15 13 29 15t24 -4t13.5 -18.5t-2.5 -28.5q-37 -52 -74 -114.5t-66 -122.5q-4 -8 -10.5 -24t-12.5 -34t-10.5 -34.5t-4.5 -23.5q0 -68 1 -119
t2 -92.5t0.5 -77t-3.5 -71.5q-4 -16 -14 -24t-21.5 -8.5t-21.5 7.5t-15 25q0 100 0.5 199.5t-0.5 201.5q-15 28 -29 73.5t-25 93.5t-19 92.5t-9 70.5zM142 989q14 -24 27.5 -53t24.5 -53q7 -15 1.5 -29t-17 -21t-26 -4t-24.5 22q-10 18 -17 30.5t-12.5 23.5t-11.5 22.5
t-14 29.5t-2 32t18.5 20t27 2t25.5 -22z" />
    <glyph glyph-name="uni1E1E" unicode="&#x1e1e;" horiz-adv-x="281" 
d="M87 401q9 1 21.5 2.5t25.5 3t25 3t21 1.5q11 1 21 -3t16 -11.5t6.5 -18.5t-7.5 -23q-10 -9 -25.5 -15t-33 -9.5t-36 -5t-34.5 -1.5q1 -75 1 -143.5t-1 -141.5q-2 -20 -13 -29.5t-24.5 -9.5t-24.5 9.5t-13 28.5q2 89 2.5 170.5t0.5 162t-0.5 163t-0.5 173.5q-12 30 -4 49
t29 29t50 13t59 0.5t57.5 -9t43.5 -15.5q15 -12 17.5 -23.5t-3.5 -21t-17 -14.5t-22 -3q-40 8 -75 9t-64 -2v-158.5t2 -159.5zM159 918q17 -22 12.5 -44t-20 -35t-37 -13t-37.5 23q-14 21 -9.5 40t18.5 30t34.5 12.5t38.5 -13.5z" />
    <glyph glyph-name="Ycircumflex" unicode="&#x176;" horiz-adv-x="350" 
d="M1 763q3 16 13.5 25.5t22.5 10t23 -7t16 -24.5q5 -56 17 -111.5t33 -109.5q16 32 30 61.5t30.5 58.5t36 57.5t46.5 57.5q15 13 29 15t24 -4t13.5 -18.5t-2.5 -28.5q-37 -52 -74 -114.5t-66 -122.5q-4 -8 -10.5 -24t-12.5 -34t-10.5 -34.5t-4.5 -23.5q0 -68 1 -119
t2 -92.5t0.5 -77t-3.5 -71.5q-4 -16 -14 -24t-21.5 -8.5t-21.5 7.5t-15 25q0 100 0.5 199.5t-0.5 201.5q-15 28 -29 73.5t-25 93.5t-19 92.5t-9 70.5zM39 891q17 20 44.5 46.5t48.5 46.5q7 7 17.5 11t22 4t23 -3.5t19.5 -12.5q24 -25 43.5 -48t39.5 -48q12 -16 9.5 -31.5
t-13.5 -23.5t-27.5 -6.5t-31.5 19.5q-1 0 -15 18.5t-48 53.5q-20 -21 -37 -36.5t-36 -35.5q-14 -17 -29.5 -17.5t-26 8.5t-13 24.5t9.5 30.5z" />
    <glyph glyph-name="Wcircumflex" unicode="&#x174;" horiz-adv-x="510" 
d="M9 751q2 21 11.5 32t21 12.5t23.5 -7t18 -25.5q11 -98 19.5 -170.5t15.5 -125t12.5 -89.5t9.5 -62.5t7.5 -44t7.5 -35.5q15 67 31 135.5t33 141.5q4 15 14.5 22.5t22.5 7.5t22 -7.5t15 -23.5q3 -40 8 -76t10.5 -70.5t11 -70t11.5 -74.5q14 70 25 137t21.5 134.5t21.5 137
t25 144.5q3 13 15.5 18.5t27 4t25.5 -11t10 -25.5q-11 -92 -24.5 -181.5t-29.5 -178t-34.5 -178t-37.5 -181.5q-5 -19 -14 -28t-19.5 -11t-21 2.5t-18.5 12.5q-6 10 -12 30t-13 52.5t-15 79t-19 110.5q-9 -39 -14.5 -69.5t-10.5 -60t-10 -60.5t-13 -71q-5 -14 -14.5 -21.5
t-20.5 -7.5t-22 7t-18 22q-5 8 -15.5 47.5t-24 99t-27 133.5t-25 151.5t-18 153t-5.5 138.5zM122 891q17 20 44.5 46.5t48.5 46.5q7 7 17.5 11t22 4t23 -3.5t19.5 -12.5q24 -25 43.5 -48t39.5 -48q12 -16 9.5 -31.5t-13.5 -23.5t-27.5 -6.5t-31.5 19.5q-1 0 -15 18.5
t-48 53.5q-20 -21 -37 -36.5t-36 -35.5q-14 -17 -29.5 -17.5t-26 8.5t-13 24.5t9.5 30.5z" />
    <glyph glyph-name="uni1E6A" unicode="&#x1e6a;" 
d="M56 715h-25.5t-13 -0.5l-11 -1t-18.5 -1.5q-17 3 -26.5 12.5t-11 21t5.5 23t23 18.5q7 3 26 5t43.5 3t51.5 1.5t51 0t42.5 -1t25.5 -1.5q18 -5 25.5 -17t6 -24.5t-11 -22.5t-25.5 -11q-19 0 -42.5 -1t-44.5 -2v-132v-149t0.5 -180.5t0.5 -227.5q-4 -14 -14 -21t-22 -7.5
t-23 6t-16 21.5q3 178 3 348v341zM127 918q17 -22 12.5 -44t-20 -35t-37 -13t-37.5 23q-14 21 -9.5 40t18.5 30t34.5 12.5t38.5 -13.5z" />
    <glyph glyph-name="uni1E40" unicode="&#x1e40;" horiz-adv-x="451" 
d="M23 760q6 13 17.5 23t25 13.5t28.5 -1t28 -18.5q13 -31 24.5 -73.5t20.5 -91t17 -100t14.5 -101.5t11.5 -95t10 -80q2 30 6 74t9.5 94.5t12.5 104t15.5 103t18.5 91t21 69.5q5 13 20.5 19.5t32.5 4.5t30.5 -13.5t14.5 -33.5q10 -104 16.5 -196.5t10 -177.5t4 -165.5
t-0.5 -161.5q0 -23 -10.5 -35.5t-23 -14.5t-24 7.5t-12.5 30.5q-1 143 -5 279t-18 273q-10 -75 -19.5 -144t-19 -136t-19.5 -134t-22 -138q-3 -20 -15.5 -29t-26.5 -8.5t-26 10.5t-13 29q-9 64 -19 135l-20 142t-20.5 140.5t-22.5 132.5q0 -141 0.5 -281.5t0.5 -279.5
q-4 -14 -14.5 -21t-22 -7.5t-22.5 6t-16 21.5q2 94 2.5 184t0.5 179.5t-0.5 181t-0.5 189.5zM256 918q17 -22 12.5 -44t-20 -35t-37 -13t-37.5 23q-14 21 -9.5 40t18.5 30t34.5 12.5t38.5 -13.5z" />
    <glyph glyph-name="uni1E56" unicode="&#x1e56;" horiz-adv-x="310" 
d="M23 760q3 13 10.5 21.5t17 11t19 -1t17.5 -13.5q27 6 49 3t45 -14q26 -14 42.5 -38.5t27 -53.5t15 -60t6.5 -57q3 -39 4.5 -79t-3.5 -78.5t-18.5 -74.5t-40.5 -66q-19 -21 -53 -33.5t-65 -11.5v-188q-4 -14 -14.5 -21t-22 -7.5t-22.5 6t-16 21.5q2 59 2 115.5v113.5
q1 124 0.5 247t-0.5 258zM201 404q4 28 5.5 74t-5.5 92.5t-24 84.5t-50 52q-13 0 -21.5 -1t-10.5 -9q0 -101 0.5 -202t0.5 -204q23 -4 41.5 6t31.5 28t21 39.5t11 39.5zM170 918q17 -22 12.5 -44t-20 -35t-37 -13t-37.5 23q-14 21 -9.5 40t18.5 30t34.5 12.5t38.5 -13.5z
" />
    <glyph glyph-name="uni1E60" unicode="&#x1e60;" horiz-adv-x="329" 
d="M263 725q5 -17 0 -29.5t-15.5 -18.5t-24 -4.5t-26.5 13.5q-7 16 -22 26t-36 -1q-22 -13 -22 -34t6 -42q13 -44 36 -87t48.5 -86t50 -87t41 -89.5t20.5 -93.5t-11 -99q-10 -35 -37.5 -56.5t-62.5 -30t-71 -3t-62 23.5q-37 26 -47.5 62t-8.5 79q4 19 16.5 27.5t26 7
t23.5 -13t10 -30.5q-1 -29 9.5 -48t27 -27.5t35.5 -8t36 11t28 29.5t11 47q-1 36 -16.5 77t-38 85t-49 89.5t-49 91.5t-36.5 91t-12 88q1 28 15 49.5t35.5 35.5t47 19.5t50 1t44.5 -20.5t30 -45zM201 918q17 -22 12.5 -44t-20 -35t-37 -13t-37.5 23q-14 21 -9.5 40t18.5 30
t34.5 12.5t38.5 -13.5z" />
    <glyph glyph-name="Wdieresis" unicode="&#x1e84;" horiz-adv-x="510" 
d="M9 751q2 21 11.5 32t21 12.5t23.5 -7t18 -25.5q11 -98 19.5 -170.5t15.5 -125t12.5 -89.5t9.5 -62.5t7.5 -44t7.5 -35.5q15 67 31 135.5t33 141.5q4 15 14.5 22.5t22.5 7.5t22 -7.5t15 -23.5q3 -40 8 -76t10.5 -70.5t11 -70t11.5 -74.5q14 70 25 137t21.5 134.5t21.5 137
t25 144.5q3 13 15.5 18.5t27 4t25.5 -11t10 -25.5q-11 -92 -24.5 -181.5t-29.5 -178t-34.5 -178t-37.5 -181.5q-5 -19 -14 -28t-19.5 -11t-21 2.5t-18.5 12.5q-6 10 -12 30t-13 52.5t-15 79t-19 110.5q-9 -39 -14.5 -69.5t-10.5 -60t-10 -60.5t-13 -71q-5 -14 -14.5 -21.5
t-20.5 -7.5t-22 7t-18 22q-5 8 -15.5 47.5t-24 99t-27 133.5t-25 151.5t-18 153t-5.5 138.5zM224 918q17 -22 12.5 -44t-20 -35t-37 -13t-37.5 23q-14 21 -9.5 40t18.5 30t34.5 12.5t38.5 -13.5zM343 918q17 -22 12.5 -44t-20 -35t-37 -13t-37.5 23q-14 21 -9.5 40t18.5 30
t34.5 12.5t38.5 -13.5z" />
    <glyph glyph-name="uni1E0A" unicode="&#x1e0a;" horiz-adv-x="329" 
d="M22 760q-1 10 4.5 22.5t22.5 12.5q65 4 113.5 -24t81 -77.5t49 -115t18 -136.5t-12.5 -141.5t-42.5 -131t-72 -104.5t-101.5 -62q-9 -3 -20.5 -3t-21 2.5t-16 8t-6.5 15.5q-1 207 1.5 386t2.5 348zM92 720q-1 -156 0 -313t0 -315q42 24 72 66.5t47.5 95t23.5 111t1 114
t-22 105t-44 83.5q-19 24 -40 38.5t-38 14.5zM170 918q17 -22 12.5 -44t-20 -35t-37 -13t-37.5 23q-14 21 -9.5 40t18.5 30t34.5 12.5t38.5 -13.5z" />
    <glyph glyph-name="uni0218" unicode="&#x218;" horiz-adv-x="329" 
d="M263 725q5 -17 0 -29.5t-15.5 -18.5t-24 -4.5t-26.5 13.5q-7 16 -22 26t-36 -1q-22 -13 -22 -34t6 -42q13 -44 36 -87t48.5 -86t50 -87t41 -89.5t20.5 -93.5t-11 -99q-10 -35 -37.5 -56.5t-62.5 -30t-71 -3t-62 23.5q-37 26 -47.5 62t-8.5 79q4 19 16.5 27.5t26 7
t23.5 -13t10 -30.5q-1 -29 9.5 -48t27 -27.5t35.5 -8t36 11t28 29.5t11 47q-1 36 -16.5 77t-38 85t-49 89.5t-49 91.5t-36.5 91t-12 88q1 28 15 49.5t35.5 35.5t47 19.5t50 1t44.5 -20.5t30 -45zM202 -54q16 -18 23 -45.5t4 -55.5t-16.5 -52t-37.5 -36q-19 -7 -32.5 -0.5
t-18.5 19t0 27t22 23.5q6 3 7 11.5t1 18.5q-18 3 -34 22q-14 21 -9.5 40t18.5 30t34.5 12.5t38.5 -12.5v-2z" />
    <glyph glyph-name="uni021A" unicode="&#x21a;" 
d="M56 715h-25.5t-13 -0.5l-11 -1t-18.5 -1.5q-17 3 -26.5 12.5t-11 21t5.5 23t23 18.5q7 3 26 5t43.5 3t51.5 1.5t51 0t42.5 -1t25.5 -1.5q18 -5 25.5 -17t6 -24.5t-11 -22.5t-25.5 -11q-19 0 -42.5 -1t-44.5 -2v-132v-149t0.5 -180.5t0.5 -227.5q-4 -14 -14 -21t-22 -7.5
t-23 6t-16 21.5q3 178 3 348v341zM127 -54q16 -18 23 -45.5t4 -55.5t-16.5 -52t-37.5 -36q-19 -7 -32.5 -0.5t-18.5 19t0 27t22 23.5q6 3 7 11.5t1 18.5q-18 3 -34 22q-14 21 -9.5 40t18.5 30t34.5 12.5t38.5 -12.5v-2z" />
    <glyph glyph-name="Emacron" unicode="&#x112;" horiz-adv-x="287" 
d="M44 830q-13 4 -20 14t-7.5 22t6.5 23t22 16h188q17 0 24.5 -11.5t7.5 -25t-8 -25.5t-23 -13h-190zM56 -1q-17 3 -31.5 13.5t-14.5 30.5q3 88 3.5 169t0.5 161t-0.5 162.5t-0.5 172.5q-14 30 -4 49t34 29t57 12t65 -1t58 -9.5t36 -14.5q12 -12 13 -24t-6 -20.5t-19.5 -13
t-27.5 -1.5q-36 2 -68.5 5.5t-66.5 -2.5v-156.5t1 -159.5q25 -1 46.5 3.5t44.5 6.5q11 2 21.5 -1.5t17.5 -11t8 -19t-8 -24.5q-23 -20 -59 -26.5t-71 -4.5q2 -66 2 -126t-2 -125q38 1 78 7t74 20q18 4 29 -4t14.5 -20.5t-2 -26.5t-20.5 -22q-45 -17 -99.5 -23.5t-102.5 -4.5
z" />
    <glyph glyph-name="Imacron" unicode="&#x12a;" horiz-adv-x="236" 
d="M23 830q-13 4 -20.5 14t-8 22t6.5 23t22 16h188q17 0 24.5 -11.5t7.5 -25t-8 -25.5t-23 -13h-189zM4 3q-16 3 -23 14.5t-5.5 24.5t10.5 23.5t24 10.5h66q1 81 1.5 159.5t0 157t-1 158.5t-0.5 164h-25t-12.5 -0.5t-10 -1t-18.5 -1.5q-17 3 -26.5 12.5t-11 21t5.5 23
t23 18.5q7 3 26 5t43.5 3t51.5 1.5t51 0t42.5 -1t25.5 -1.5q18 -5 25.5 -17t5.5 -25t-12 -23t-26 -10h2q-20 0 -43 -1t-44 -2q-1 -157 0 -318t0 -319q20 1 40 1.5t39 -4.5q15 -3 22.5 -14t8 -23.5t-5.5 -23.5t-19 -14q-23 -2 -53.5 -2.5t-63 0t-62.5 1.5t-51 3z" />
    <glyph glyph-name="Omacron" unicode="&#x14c;" horiz-adv-x="395" 
d="M110 830q-13 4 -20.5 14t-8 22t6.5 23t22 16h188q17 0 24.5 -11.5t7.5 -25t-8 -25.5t-23 -13h-189zM263 785q-57 18 -98 5t-69 -47t-45 -84.5t-25.5 -108t-10 -118t1.5 -114.5t8.5 -97t10.5 -66q4 -17 11.5 -40.5t19 -46t27.5 -40.5t37 -24q32 -9 58.5 -1.5t47.5 25.5
t37 44t28 54.5t20 56t13 48.5q11 43 19.5 95t12.5 107t1.5 109t-14.5 101t-34 84t-57 58zM254 689q16 -22 24.5 -56.5t11.5 -75t1.5 -84.5t-6 -85.5t-10.5 -77.5t-12 -61q-7 -26 -15.5 -53t-19.5 -52q-24 -50 -43 -62.5t-33.5 -0.5t-25.5 41t-18 61.5t-11 62t-5 41.5
q-2 25 -3.5 60t-0.5 74.5t4.5 81t10.5 79t18.5 69.5t28.5 52q11 13 26 17t29.5 1t27.5 -11.5t21 -20.5z" />
    <glyph glyph-name="Umacron" unicode="&#x16a;" horiz-adv-x="332" 
d="M66 830q-13 4 -20.5 14t-8 22t6.5 23t23 16h188q17 0 24.5 -11.5t7 -25t-8.5 -25.5t-23 -13h-189zM22 763q-2 -8 -4.5 -36t-4 -59.5t-2.5 -57t-1 -29.5v-74t1 -94.5t5 -104.5t11.5 -104t20 -92t31.5 -69q20 -28 42 -36.5t43.5 -2.5t40.5 24t33 43q1 -37 13 -53.5
t25.5 -16.5t24.5 14.5t11 41.5q-5 82 -3.5 172t4.5 181.5t4.5 181t-1.5 171.5q-4 17 -15 25t-23 8t-21.5 -9t-10.5 -27q0 -1 -0.5 -1.5t-0.5 -2.5q-5 -62 -4 -136.5t2 -150.5t-0.5 -147.5t-9.5 -128.5q-2 -14 -12.5 -34t-23 -38t-25.5 -29.5t-20 -8.5q-14 5 -23.5 27.5
t-15 49.5t-8.5 50.5t-4 30.5q-13 104 -14 209t6 209l7 100q-2 23 -14.5 31.5t-27 6.5t-26 -11.5t-10.5 -22.5z" />
    <glyph glyph-name="Amacron" unicode="&#x100;" horiz-adv-x="319" 
d="M44 830q-13 4 -20 14t-7.5 22t6.5 23t22 16h188q17 0 24.5 -11.5t7.5 -25t-8 -25.5t-23 -13h-190zM101 265q-7 -57 -10.5 -114.5t-5.5 -114.5q-3 -20 -14.5 -28.5t-24 -7t-23.5 12t-13 30.5q9 180 30.5 360.5t51.5 360.5q3 13 16 21t28 9t28.5 -6t18.5 -24
q16 -92 32 -181t32 -177t31 -176.5t29 -181.5q1 -19 -8 -31.5t-21.5 -16t-25.5 4t-19 27.5q-5 34 -10 64.5t-10.5 60.5t-11.5 60.5t-12 64.5q-20 2 -42 -0.5t-46 -16.5zM110 351q17 4 33.5 5t33.5 1q-8 49 -16.5 98t-16.5 99l-5 29q-2 -14 -3 -27.5t-3 -27.5z" />
    <glyph glyph-name="uni1E02" unicode="&#x1e02;" horiz-adv-x="295" 
d="M17 760q3 16 12.5 24.5t21 9t22 -7.5t16.5 -25v-5q21 20 44.5 31t46.5 10t43.5 -15t35.5 -44q19 -39 21 -82t-8 -87.5t-30 -88.5t-44 -84q33 -9 51.5 -33t25.5 -55t3.5 -64.5t-15.5 -60.5q-15 -35 -33 -64t-46 -53q-23 -21 -48 -33t-53 -17q-6 -9 -15.5 -13.5t-19.5 -4
t-18.5 7.5t-12.5 20q-1 6 -2 13.5t-1 27t0.5 56t2.5 100.5q-13 0 -27 14q-8 12 -8.5 24t4 24t13 23.5t18.5 21.5v430zM88 668v-67v-75.5t0.5 -75.5t0.5 -68q2 1 4.5 2t4.5 2q22 11 41 38t33.5 61t24.5 72t12.5 72t-2.5 59t-19.5 34t-39 -2.5t-60.5 -51.5zM196 302
q-8 20 -21 23.5t-29 -0.5q-13 -14 -27 -31t-30 -32v-169q26 10 50.5 32.5t41 51.5t22 62t-6.5 63zM181 918q17 -22 12.5 -44t-20 -35t-37 -13t-37.5 23q-14 21 -9.5 40t18.5 30t34.5 12.5t38.5 -13.5z" />
    <glyph glyph-name="agrave" unicode="&#xe0;" horiz-adv-x="197" 
d="M63 192q-4 -42 -5.5 -83.5t-1.5 -82.5q-3 -14 -10 -20.5t-14.5 -5.5t-14 8.5t-7.5 21.5q5 131 18 261t30 259q2 9 9.5 15t16.5 7t17.5 -4t11.5 -18q18 -132 37 -256.5t36 -258.5q1 -14 -4 -23t-12.5 -11.5t-15.5 2.5t-12 20q-5 50 -11.5 91t-13.5 89q-11 2 -25 0.5
t-29 -11.5zM70 254q10 2 19.5 3t20.5 1q-6 35 -11 70.5t-10 71.5l-2 21q-2 -10 -2.5 -20t-1.5 -19zM93.4736 713.645q8.66602 -16.4443 17.0234 -36.3145q8.35645 -19.8701 15.165 -36.3145q4.33398 -10.2773 0.928711 -19.8701q-3.4043 -9.59277 -10.5234 -14.3887
q-7.11816 -4.79688 -16.0938 -2.74121t-15.166 15.0742q-6.19043 12.333 -10.5234 20.8975q-4.33301 8.56543 -7.73828 16.1025q-3.4043 7.53711 -7.11816 15.416q-3.71387 7.87988 -8.66602 20.2129t-1.23828 21.9258t11.4521 13.7041q7.7373 4.11035 16.7129 1.37012
q8.97559 -2.74121 15.7852 -15.0742z" />
    <glyph glyph-name="egrave" unicode="&#xe8;" 
d="M45 0q-11 2 -18 10.5t-10 19.5q1 63 1.5 121.5t0.5 116.5t-0.5 117.5t-0.5 124.5q-9 22 -2.5 35.5t22 20.5t36.5 8.5t41.5 -1t37.5 -7t23 -10.5q15 -20 4 -33t-30 -9q-23 1 -43.5 3.5t-43.5 -2.5v-111.5t2 -114.5q15 0 29.5 3t28.5 3q14 5 24 -7t2 -32q-14 -14 -37.5 -19
t-46.5 -3q1 -48 1 -90.5t-1 -90.5q24 1 49.5 5.5t48.5 14.5l-1 -2q11 1 18 -4.5t9 -13.5t-1 -17t-12 -15q-29 -13 -64 -18t-67 -3zM93.4736 713.645q8.66602 -16.4443 17.0234 -36.3145q8.35645 -19.8701 15.165 -36.3145q4.33398 -10.2773 0.928711 -19.8701
q-3.4043 -9.59277 -10.5234 -14.3887q-7.11816 -4.79688 -16.0938 -2.74121t-15.166 15.0742q-6.19043 12.333 -10.5234 20.8975q-4.33301 8.56543 -7.73828 16.1025q-3.4043 7.53711 -7.11816 15.416q-3.71387 7.87988 -8.66602 20.2129t-1.23828 21.9258t11.4521 13.7041
q7.7373 4.11035 16.7129 1.37012q8.97559 -2.74121 15.7852 -15.0742z" />
    <glyph glyph-name="igrave" unicode="&#xec;" horiz-adv-x="221" 
d="M30 0q-11 2 -15.5 11t-4 18.5t6.5 17.5t17 9q2 0 8 -0.5t13 -0.5h14t10 1q2 117 1 228t-1 234h-17t-8.5 -0.5l-7 -1t-12.5 -1.5q-11 2 -17.5 9t-7.5 15.5t3.5 17t15.5 13.5q7 3 30.5 5t50.5 2t50.5 -0.5t30.5 -1.5q12 -3 17.5 -12t4.5 -18t-8 -16.5t-18 -7.5
q-12 0 -27.5 -1t-30.5 -1q-1 -114 0 -231t1 -231h27.5t26.5 -1q10 -3 15 -11.5t5.5 -17.5t-4 -17t-13.5 -10q-15 -2 -36.5 -2.5t-43 -0.5t-42 1t-34.5 2zM108.474 713.645q8.66602 -16.4443 17.0234 -36.3145q8.35645 -19.8701 15.165 -36.3145
q4.33398 -10.2773 0.928711 -19.8701q-3.4043 -9.59277 -10.5234 -14.3887q-7.11816 -4.79688 -16.0938 -2.74121t-15.166 15.0742q-6.19043 12.333 -10.5234 20.8975q-4.33301 8.56543 -7.73828 16.1025q-3.4043 7.53711 -7.11816 15.416
q-3.71387 7.87988 -8.66602 20.2129t-1.23828 21.9258t11.4521 13.7041q7.7373 4.11035 16.7129 1.37012q8.97559 -2.74121 15.7852 -15.0742z" />
    <glyph glyph-name="ograve" unicode="&#xf2;" horiz-adv-x="260" 
d="M175 570q22 -15 36 -42t21.5 -61t9 -73.5t-0.5 -79.5t-7.5 -78t-12.5 -70q-5 -23 -14 -56t-24.5 -60.5t-37.5 -44t-53 -6.5q-13 5 -23 18t-17.5 29.5t-12 33.5t-7.5 30q-4 22 -8.5 69.5t-4.5 104.5t6.5 115.5t23.5 102t47.5 64.5t78.5 4zM170 501q-6 8 -14 14t-17.5 8
t-18.5 -0.5t-16 -12.5q-16 -22 -24.5 -61.5t-12 -84t-3 -87t2.5 -70.5q1 -9 3.5 -30.5t7 -45.5t11 -45t16 -29.5t21.5 0.5t27 45q8 19 13 38t9 39q6 27 11.5 71.5t7 92t-3.5 90.5t-20 68zM137.474 713.645q8.66602 -16.4443 17.0234 -36.3145
q8.35645 -19.8701 15.165 -36.3145q4.33398 -10.2773 0.928711 -19.8701q-3.4043 -9.59277 -10.5234 -14.3887q-7.11816 -4.79688 -16.0938 -2.74121t-15.166 15.0742q-6.19043 12.333 -10.5234 20.8975q-4.33301 8.56543 -7.73828 16.1025q-3.4043 7.53711 -7.11816 15.416
q-3.71387 7.87988 -8.66602 20.2129t-1.23828 21.9258t11.4521 13.7041q7.7373 4.11035 16.7129 1.37012q8.97559 -2.74121 15.7852 -15.0742z" />
    <glyph glyph-name="ugrave" unicode="&#xf9;" horiz-adv-x="253" 
d="M23 552q0 10 8.5 17t18.5 8t19 -5t10 -23l-4 -72q-5 -76 -4 -152.5t9 -152.5q1 -5 3 -22t6 -36.5t10.5 -36t17.5 -19.5q4 -2 13 6.5t18.5 21.5t16.5 27t9 24q6 42 6.5 94.5t0 107.5t-0.5 109.5t3 99.5v1q0 13 7 19.5t15.5 7t16 -5.5t10.5 -18q2 -59 1 -124.5t-3 -131.5
t-3 -131.5t2 -124.5q0 -20 -7.5 -31t-17 -11t-18 12t-9.5 39q-9 -18 -22.5 -31t-29 -17t-31 2t-29.5 27q-21 30 -31 82t-14 110t-3.5 112t0.5 87q0 2 0.5 20.5t1 41t1.5 43t3 26.5zM125.474 713.645q8.66602 -16.4443 17.0234 -36.3145q8.35645 -19.8701 15.165 -36.3145
q4.33398 -10.2773 0.928711 -19.8701q-3.4043 -9.59277 -10.5234 -14.3887q-7.11816 -4.79688 -16.0938 -2.74121t-15.166 15.0742q-6.19043 12.333 -10.5234 20.8975q-4.33301 8.56543 -7.73828 16.1025q-3.4043 7.53711 -7.11816 15.416
q-3.71387 7.87988 -8.66602 20.2129t-1.23828 21.9258t11.4521 13.7041q7.7373 4.11035 16.7129 1.37012q8.97559 -2.74121 15.7852 -15.0742z" />
    <glyph glyph-name="aacute" unicode="&#xe1;" horiz-adv-x="197" 
d="M63 192q-4 -42 -5.5 -83.5t-1.5 -82.5q-3 -14 -10 -20.5t-14.5 -5.5t-14 8.5t-7.5 21.5q5 131 18 261t30 259q2 9 9.5 15t16.5 7t17.5 -4t11.5 -18q18 -132 37 -256.5t36 -258.5q1 -14 -4 -23t-12.5 -11.5t-15.5 2.5t-12 20q-5 50 -11.5 91t-13.5 89q-11 2 -25 0.5
t-29 -11.5zM70 254q10 2 19.5 3t20.5 1q-6 35 -11 70.5t-10 71.5l-2 21q-2 -10 -2.5 -20t-1.5 -19zM81.5312 713.645q-8.66504 -16.4443 -17.0205 -36.3145q-8.35645 -19.8701 -15.165 -36.3145q-4.33203 -10.2773 -0.927734 -19.8701t10.5215 -14.3887
q7.11816 -4.79688 16.0928 -2.74121q8.97559 2.05566 15.165 15.0742q6.18945 12.333 10.5225 20.8975q4.33203 8.56543 7.73633 16.1025t7.11816 15.416q3.71387 7.87988 8.66602 20.2129q4.95117 12.333 1.2373 21.9258t-11.4502 13.7041
q-7.7373 4.11035 -16.7119 1.37012q-8.97559 -2.74121 -15.7842 -15.0742z" />
    <glyph glyph-name="eacute" unicode="&#xe9;" 
d="M45 0q-11 2 -18 10.5t-10 19.5q1 63 1.5 121.5t0.5 116.5t-0.5 117.5t-0.5 124.5q-9 22 -2.5 35.5t22 20.5t36.5 8.5t41.5 -1t37.5 -7t23 -10.5q15 -20 4 -33t-30 -9q-23 1 -43.5 3.5t-43.5 -2.5v-111.5t2 -114.5q15 0 29.5 3t28.5 3q14 5 24 -7t2 -32q-14 -14 -37.5 -19
t-46.5 -3q1 -48 1 -90.5t-1 -90.5q24 1 49.5 5.5t48.5 14.5l-1 -2q11 1 18 -4.5t9 -13.5t-1 -17t-12 -15q-29 -13 -64 -18t-67 -3zM91.5312 713.645q-8.66504 -16.4443 -17.0205 -36.3145q-8.35645 -19.8701 -15.165 -36.3145q-4.33203 -10.2773 -0.927734 -19.8701
t10.5215 -14.3887q7.11816 -4.79688 16.0928 -2.74121q8.97559 2.05566 15.165 15.0742q6.18945 12.333 10.5225 20.8975q4.33203 8.56543 7.73633 16.1025t7.11816 15.416q3.71387 7.87988 8.66602 20.2129q4.95117 12.333 1.2373 21.9258t-11.4502 13.7041
q-7.7373 4.11035 -16.7119 1.37012q-8.97559 -2.74121 -15.7842 -15.0742z" />
    <glyph glyph-name="iacute" unicode="&#xed;" horiz-adv-x="221" 
d="M30 0q-11 2 -15.5 11t-4 18.5t6.5 17.5t17 9q2 0 8 -0.5t13 -0.5h14t10 1q2 117 1 228t-1 234h-17t-8.5 -0.5l-7 -1t-12.5 -1.5q-11 2 -17.5 9t-7.5 15.5t3.5 17t15.5 13.5q7 3 30.5 5t50.5 2t50.5 -0.5t30.5 -1.5q12 -3 17.5 -12t4.5 -18t-8 -16.5t-18 -7.5
q-12 0 -27.5 -1t-30.5 -1q-1 -114 0 -231t1 -231h27.5t26.5 -1q10 -3 15 -11.5t5.5 -17.5t-4 -17t-13.5 -10q-15 -2 -36.5 -2.5t-43 -0.5t-42 1t-34.5 2zM97.5312 713.645q-8.66504 -16.4443 -17.0205 -36.3145q-8.35645 -19.8701 -15.165 -36.3145
q-4.33203 -10.2773 -0.927734 -19.8701t10.5215 -14.3887q7.11816 -4.79688 16.0928 -2.74121q8.97559 2.05566 15.165 15.0742q6.18945 12.333 10.5225 20.8975q4.33203 8.56543 7.73633 16.1025t7.11816 15.416q3.71387 7.87988 8.66602 20.2129
q4.95117 12.333 1.2373 21.9258t-11.4502 13.7041q-7.7373 4.11035 -16.7119 1.37012q-8.97559 -2.74121 -15.7842 -15.0742z" />
    <glyph glyph-name="oacute" unicode="&#xf3;" horiz-adv-x="260" 
d="M175 570q22 -15 36 -42t21.5 -61t9 -73.5t-0.5 -79.5t-7.5 -78t-12.5 -70q-5 -23 -14 -56t-24.5 -60.5t-37.5 -44t-53 -6.5q-13 5 -23 18t-17.5 29.5t-12 33.5t-7.5 30q-4 22 -8.5 69.5t-4.5 104.5t6.5 115.5t23.5 102t47.5 64.5t78.5 4zM170 501q-6 8 -14 14t-17.5 8
t-18.5 -0.5t-16 -12.5q-16 -22 -24.5 -61.5t-12 -84t-3 -87t2.5 -70.5q1 -9 3.5 -30.5t7 -45.5t11 -45t16 -29.5t21.5 0.5t27 45q8 19 13 38t9 39q6 27 11.5 71.5t7 92t-3.5 90.5t-20 68zM124.531 713.645q-8.66504 -16.4443 -17.0205 -36.3145
q-8.35645 -19.8701 -15.165 -36.3145q-4.33203 -10.2773 -0.927734 -19.8701t10.5215 -14.3887q7.11816 -4.79688 16.0928 -2.74121q8.97559 2.05566 15.165 15.0742q6.18945 12.333 10.5225 20.8975q4.33203 8.56543 7.73633 16.1025t7.11816 15.416
q3.71387 7.87988 8.66602 20.2129q4.95117 12.333 1.2373 21.9258t-11.4502 13.7041q-7.7373 4.11035 -16.7119 1.37012q-8.97559 -2.74121 -15.7842 -15.0742z" />
    <glyph glyph-name="uacute" unicode="&#xfa;" horiz-adv-x="253" 
d="M23 552q0 10 8.5 17t18.5 8t19 -5t10 -23l-4 -72q-5 -76 -4 -152.5t9 -152.5q1 -5 3 -22t6 -36.5t10.5 -36t17.5 -19.5q4 -2 13 6.5t18.5 21.5t16.5 27t9 24q6 42 6.5 94.5t0 107.5t-0.5 109.5t3 99.5v1q0 13 7 19.5t15.5 7t16 -5.5t10.5 -18q2 -59 1 -124.5t-3 -131.5
t-3 -131.5t2 -124.5q0 -20 -7.5 -31t-17 -11t-18 12t-9.5 39q-9 -18 -22.5 -31t-29 -17t-31 2t-29.5 27q-21 30 -31 82t-14 110t-3.5 112t0.5 87q0 2 0.5 20.5t1 41t1.5 43t3 26.5zM124.531 713.645q-8.66504 -16.4443 -17.0205 -36.3145
q-8.35645 -19.8701 -15.165 -36.3145q-4.33203 -10.2773 -0.927734 -19.8701t10.5215 -14.3887q7.11816 -4.79688 16.0928 -2.74121q8.97559 2.05566 15.165 15.0742q6.18945 12.333 10.5225 20.8975q4.33203 8.56543 7.73633 16.1025t7.11816 15.416
q3.71387 7.87988 8.66602 20.2129q4.95117 12.333 1.2373 21.9258t-11.4502 13.7041q-7.7373 4.11035 -16.7119 1.37012q-8.97559 -2.74121 -15.7842 -15.0742z" />
    <glyph glyph-name="yacute" unicode="&#xfd;" horiz-adv-x="236" 
d="M12 549q2 12 9.5 18.5t16 7.5t16.5 -4.5t11 -17.5q4 -40 13 -80t23 -78q11 22 21.5 43.5t22 42.5t25.5 41t33 41q11 9 21.5 10.5t17.5 -3t9.5 -13.5t-2.5 -21q-26 -36 -53 -80.5t-47 -89.5q-3 -6 -7 -17.5t-8.5 -24.5t-7.5 -24.5t-3 -17.5q0 -48 0.5 -84.5t1 -66t0.5 -55
t-2 -51.5q-3 -11 -10.5 -17.5t-16 -6.5t-16 5.5t-10.5 18.5q0 71 0.5 143t-0.5 144q-10 20 -20 53t-18 67.5t-13.5 66.5t-6.5 50zM124.531 713.645q-8.66504 -16.4443 -17.0205 -36.3145q-8.35645 -19.8701 -15.165 -36.3145q-4.33203 -10.2773 -0.927734 -19.8701
t10.5215 -14.3887q7.11816 -4.79688 16.0928 -2.74121q8.97559 2.05566 15.165 15.0742q6.18945 12.333 10.5225 20.8975q4.33203 8.56543 7.73633 16.1025t7.11816 15.416q3.71387 7.87988 8.66602 20.2129q4.95117 12.333 1.2373 21.9258t-11.4502 13.7041
q-7.7373 4.11035 -16.7119 1.37012q-8.97559 -2.74121 -15.7842 -15.0742z" />
    <glyph glyph-name="acircumflex" unicode="&#xe2;" horiz-adv-x="197" 
d="M63 192q-4 -42 -5.5 -83.5t-1.5 -82.5q-3 -14 -10 -20.5t-14.5 -5.5t-14 8.5t-7.5 21.5q5 131 18 261t30 259q2 9 9.5 15t16.5 7t17.5 -4t11.5 -18q18 -132 37 -256.5t36 -258.5q1 -14 -4 -23t-12.5 -11.5t-15.5 2.5t-12 20q-5 50 -11.5 91t-13.5 89q-11 2 -25 0.5
t-29 -11.5zM70 254q10 2 19.5 3t20.5 1q-6 35 -11 70.5t-10 71.5l-2 21q-2 -10 -2.5 -20t-1.5 -19zM5.68164 639.189q10.6826 12.332 27.9619 28.6709q17.2803 16.3389 30.4756 28.6709q4.39844 4.31641 10.9961 6.78223q6.59766 2.4668 13.8242 2.4668
q7.22559 0 14.4521 -2.1582q7.22559 -2.1582 12.2529 -7.70703q15.0801 -15.415 27.334 -29.5957q12.2529 -14.1816 24.8193 -29.5957q7.54102 -9.86523 5.96973 -19.4229q-1.57129 -9.55664 -8.48242 -14.4893q-6.91211 -4.93262 -17.2803 -4.00781t-19.793 12.0234
q-0.628906 0 -9.42578 11.4062q-8.79688 11.4072 -30.1611 32.9873q-12.5674 -12.9482 -23.249 -22.5049q-10.6816 -9.55762 -22.6211 -21.8887q-8.79688 -10.4814 -18.5361 -10.79t-16.3379 5.24023q-6.59766 5.5498 -8.16797 15.1064q-1.57129 9.55762 5.96875 18.8057z
" />
    <glyph glyph-name="ecircumflex" unicode="&#xea;" 
d="M45 0q-11 2 -18 10.5t-10 19.5q1 63 1.5 121.5t0.5 116.5t-0.5 117.5t-0.5 124.5q-9 22 -2.5 35.5t22 20.5t36.5 8.5t41.5 -1t37.5 -7t23 -10.5q15 -20 4 -33t-30 -9q-23 1 -43.5 3.5t-43.5 -2.5v-111.5t2 -114.5q15 0 29.5 3t28.5 3q14 5 24 -7t2 -32q-14 -14 -37.5 -19
t-46.5 -3q1 -48 1 -90.5t-1 -90.5q24 1 49.5 5.5t48.5 14.5l-1 -2q11 1 18 -4.5t9 -13.5t-1 -17t-12 -15q-29 -13 -64 -18t-67 -3zM15.6816 639.189q10.6826 12.332 27.9619 28.6709q17.2803 16.3389 30.4756 28.6709q4.39844 4.31641 10.9961 6.78223
q6.59766 2.4668 13.8242 2.4668q7.22559 0 14.4521 -2.1582q7.22559 -2.1582 12.2529 -7.70703q15.0801 -15.415 27.334 -29.5957q12.2529 -14.1816 24.8193 -29.5957q7.54102 -9.86523 5.96973 -19.4229q-1.57129 -9.55664 -8.48242 -14.4893
q-6.91211 -4.93262 -17.2803 -4.00781t-19.793 12.0234q-0.628906 0 -9.42578 11.4062q-8.79688 11.4072 -30.1611 32.9873q-12.5674 -12.9482 -23.249 -22.5049q-10.6816 -9.55762 -22.6211 -21.8887q-8.79688 -10.4814 -18.5361 -10.79t-16.3379 5.24023
q-6.59766 5.5498 -8.16797 15.1064q-1.57129 9.55762 5.96875 18.8057z" />
    <glyph glyph-name="icircumflex" unicode="&#xee;" horiz-adv-x="221" 
d="M30 0q-11 2 -15.5 11t-4 18.5t6.5 17.5t17 9q2 0 8 -0.5t13 -0.5h14t10 1q2 117 1 228t-1 234h-17t-8.5 -0.5l-7 -1t-12.5 -1.5q-11 2 -17.5 9t-7.5 15.5t3.5 17t15.5 13.5q7 3 30.5 5t50.5 2t50.5 -0.5t30.5 -1.5q12 -3 17.5 -12t4.5 -18t-8 -16.5t-18 -7.5
q-12 0 -27.5 -1t-30.5 -1q-1 -114 0 -231t1 -231h27.5t26.5 -1q10 -3 15 -11.5t5.5 -17.5t-4 -17t-13.5 -10q-15 -2 -36.5 -2.5t-43 -0.5t-42 1t-34.5 2zM24.6816 639.189q10.6826 12.332 27.9619 28.6709q17.2803 16.3389 30.4756 28.6709q4.39844 4.31641 10.9961 6.78223
q6.59766 2.4668 13.8242 2.4668q7.22559 0 14.4521 -2.1582q7.22559 -2.1582 12.2529 -7.70703q15.0801 -15.415 27.334 -29.5957q12.2529 -14.1816 24.8193 -29.5957q7.54102 -9.86523 5.96973 -19.4229q-1.57129 -9.55664 -8.48242 -14.4893
q-6.91211 -4.93262 -17.2803 -4.00781t-19.793 12.0234q-0.628906 0 -9.42578 11.4062q-8.79688 11.4072 -30.1611 32.9873q-12.5674 -12.9482 -23.249 -22.5049q-10.6816 -9.55762 -22.6211 -21.8887q-8.79688 -10.4814 -18.5361 -10.79t-16.3379 5.24023
q-6.59766 5.5498 -8.16797 15.1064q-1.57129 9.55762 5.96875 18.8057z" />
    <glyph glyph-name="ocircumflex" unicode="&#xf4;" horiz-adv-x="260" 
d="M175 570q22 -15 36 -42t21.5 -61t9 -73.5t-0.5 -79.5t-7.5 -78t-12.5 -70q-5 -23 -14 -56t-24.5 -60.5t-37.5 -44t-53 -6.5q-13 5 -23 18t-17.5 29.5t-12 33.5t-7.5 30q-4 22 -8.5 69.5t-4.5 104.5t6.5 115.5t23.5 102t47.5 64.5t78.5 4zM170 501q-6 8 -14 14t-17.5 8
t-18.5 -0.5t-16 -12.5q-16 -22 -24.5 -61.5t-12 -84t-3 -87t2.5 -70.5q1 -9 3.5 -30.5t7 -45.5t11 -45t16 -29.5t21.5 0.5t27 45q8 19 13 38t9 39q6 27 11.5 71.5t7 92t-3.5 90.5t-20 68zM48.6816 639.189q10.6826 12.332 27.9619 28.6709q17.2803 16.3389 30.4756 28.6709
q4.39844 4.31641 10.9961 6.78223q6.59766 2.4668 13.8242 2.4668q7.22559 0 14.4521 -2.1582q7.22559 -2.1582 12.2529 -7.70703q15.0801 -15.415 27.334 -29.5957q12.2529 -14.1816 24.8193 -29.5957q7.54102 -9.86523 5.96973 -19.4229
q-1.57129 -9.55664 -8.48242 -14.4893q-6.91211 -4.93262 -17.2803 -4.00781t-19.793 12.0234q-0.628906 0 -9.42578 11.4062q-8.79688 11.4072 -30.1611 32.9873q-12.5674 -12.9482 -23.249 -22.5049q-10.6816 -9.55762 -22.6211 -21.8887
q-8.79688 -10.4814 -18.5361 -10.79t-16.3379 5.24023q-6.59766 5.5498 -8.16797 15.1064q-1.57129 9.55762 5.96875 18.8057z" />
    <glyph glyph-name="ucircumflex" unicode="&#xfb;" horiz-adv-x="253" 
d="M23 552q0 10 8.5 17t18.5 8t19 -5t10 -23l-4 -72q-5 -76 -4 -152.5t9 -152.5q1 -5 3 -22t6 -36.5t10.5 -36t17.5 -19.5q4 -2 13 6.5t18.5 21.5t16.5 27t9 24q6 42 6.5 94.5t0 107.5t-0.5 109.5t3 99.5v1q0 13 7 19.5t15.5 7t16 -5.5t10.5 -18q2 -59 1 -124.5t-3 -131.5
t-3 -131.5t2 -124.5q0 -20 -7.5 -31t-17 -11t-18 12t-9.5 39q-9 -18 -22.5 -31t-29 -17t-31 2t-29.5 27q-21 30 -31 82t-14 110t-3.5 112t0.5 87q0 2 0.5 20.5t1 41t1.5 43t3 26.5zM48.6816 639.189q10.6826 12.332 27.9619 28.6709q17.2803 16.3389 30.4756 28.6709
q4.39844 4.31641 10.9961 6.78223q6.59766 2.4668 13.8242 2.4668q7.22559 0 14.4521 -2.1582q7.22559 -2.1582 12.2529 -7.70703q15.0801 -15.415 27.334 -29.5957q12.2529 -14.1816 24.8193 -29.5957q7.54102 -9.86523 5.96973 -19.4229
q-1.57129 -9.55664 -8.48242 -14.4893q-6.91211 -4.93262 -17.2803 -4.00781t-19.793 12.0234q-0.628906 0 -9.42578 11.4062q-8.79688 11.4072 -30.1611 32.9873q-12.5674 -12.9482 -23.249 -22.5049q-10.6816 -9.55762 -22.6211 -21.8887
q-8.79688 -10.4814 -18.5361 -10.79t-16.3379 5.24023q-6.59766 5.5498 -8.16797 15.1064q-1.57129 9.55762 5.96875 18.8057z" />
    <glyph glyph-name="atilde" unicode="&#xe3;" horiz-adv-x="197" 
d="M63 192q-4 -42 -5.5 -83.5t-1.5 -82.5q-3 -14 -10 -20.5t-14.5 -5.5t-14 8.5t-7.5 21.5q5 131 18 261t30 259q2 9 9.5 15t16.5 7t17.5 -4t11.5 -18q18 -132 37 -256.5t36 -258.5q1 -14 -4 -23t-12.5 -11.5t-15.5 2.5t-12 20q-5 50 -11.5 91t-13.5 89q-11 2 -25 0.5
t-29 -11.5zM70 254q10 2 19.5 3t20.5 1q-6 35 -11 70.5t-10 71.5l-2 21q-2 -10 -2.5 -20t-1.5 -19zM26.6055 612.457q-20.252 -3.82422 -27.5303 7.64844t-0.316406 29.957q3.79688 12.1104 11.0752 24.8584t16.7715 21.3525t20.5684 11.1543t23.7324 -4.46191
q6.96191 -3.82422 14.5566 -12.1104q7.59375 -8.28613 14.8721 -14.6602q7.27832 -6.37305 14.5566 -8.92285q7.27734 -2.5498 14.2393 5.09863q5.0625 8.28613 6.0127 13.7041q0.949219 5.41797 2.21484 7.96777q3.79688 9.56055 11.3916 12.7471q7.59473 3.1875 14.8721 0
q7.27832 -3.18652 11.708 -12.4287q4.43066 -9.24219 1.2666 -25.1768q-3.16504 -15.2979 -11.709 -28.0449q-8.54297 -12.748 -20.8848 -20.0781q-12.3408 -7.33008 -27.2129 -7.01172q-14.873 0.319336 -29.4287 11.1543q-8.86035 7.01172 -16.7715 15.2979
t-18.0371 15.2969q-6.96094 -11.4727 -10.126 -22.9453q-3.16406 -11.4736 -15.8213 -20.3965z" />
    <glyph glyph-name="otilde" unicode="&#xf5;" horiz-adv-x="260" 
d="M175 570q22 -15 36 -42t21.5 -61t9 -73.5t-0.5 -79.5t-7.5 -78t-12.5 -70q-5 -23 -14 -56t-24.5 -60.5t-37.5 -44t-53 -6.5q-13 5 -23 18t-17.5 29.5t-12 33.5t-7.5 30q-4 22 -8.5 69.5t-4.5 104.5t6.5 115.5t23.5 102t47.5 64.5t78.5 4zM170 501q-6 8 -14 14t-17.5 8
t-18.5 -0.5t-16 -12.5q-16 -22 -24.5 -61.5t-12 -84t-3 -87t2.5 -70.5q1 -9 3.5 -30.5t7 -45.5t11 -45t16 -29.5t21.5 0.5t27 45q8 19 13 38t9 39q6 27 11.5 71.5t7 92t-3.5 90.5t-20 68zM69.6055 612.457q-20.252 -3.82422 -27.5303 7.64844t-0.316406 29.957
q3.79688 12.1104 11.0752 24.8584t16.7715 21.3525t20.5684 11.1543t23.7324 -4.46191q6.96191 -3.82422 14.5566 -12.1104q7.59375 -8.28613 14.8721 -14.6602q7.27832 -6.37305 14.5566 -8.92285q7.27734 -2.5498 14.2393 5.09863q5.0625 8.28613 6.0127 13.7041
q0.949219 5.41797 2.21484 7.96777q3.79688 9.56055 11.3916 12.7471q7.59473 3.1875 14.8721 0q7.27832 -3.18652 11.708 -12.4287q4.43066 -9.24219 1.2666 -25.1768q-3.16504 -15.2979 -11.709 -28.0449q-8.54297 -12.748 -20.8848 -20.0781
q-12.3408 -7.33008 -27.2129 -7.01172q-14.873 0.319336 -29.4287 11.1543q-8.86035 7.01172 -16.7715 15.2979t-18.0371 15.2969q-6.96094 -11.4727 -10.126 -22.9453q-3.16406 -11.4736 -15.8213 -20.3965z" />
    <glyph glyph-name="adieresis" unicode="&#xe4;" horiz-adv-x="197" 
d="M63 192q-4 -42 -5.5 -83.5t-1.5 -82.5q-3 -14 -10 -20.5t-14.5 -5.5t-14 8.5t-7.5 21.5q5 131 18 261t30 259q2 9 9.5 15t16.5 7t17.5 -4t11.5 -18q18 -132 37 -256.5t36 -258.5q1 -14 -4 -23t-12.5 -11.5t-15.5 2.5t-12 20q-5 50 -11.5 91t-13.5 89q-11 2 -25 0.5
t-29 -11.5zM70 254q10 2 19.5 3t20.5 1q-6 35 -11 70.5t-10 71.5l-2 21q-2 -10 -2.5 -20t-1.5 -19zM72.5283 648.143q11.0947 -12.916 8.1582 -25.833q-2.9375 -12.916 -13.0537 -20.5479q-10.1152 -7.63281 -24.1475 -7.63281t-24.4746 13.5039
q-9.13672 12.3291 -6.2002 23.4834q2.9375 11.1553 12.0742 17.6133t22.5166 7.33887q13.3789 0.879883 25.127 -7.92578zM150.193 648.143q11.0947 -12.916 8.1582 -25.833q-2.9375 -12.916 -13.0527 -20.5479q-10.1162 -7.63281 -24.1484 -7.63281t-24.4746 13.5039
q-9.13672 12.3291 -6.2002 23.4834q2.9375 11.1553 12.0742 17.6133q9.1377 6.45801 22.5166 7.33887q13.3789 0.879883 25.127 -7.92578z" />
    <glyph glyph-name="edieresis" unicode="&#xeb;" 
d="M45 0q-11 2 -18 10.5t-10 19.5q1 63 1.5 121.5t0.5 116.5t-0.5 117.5t-0.5 124.5q-9 22 -2.5 35.5t22 20.5t36.5 8.5t41.5 -1t37.5 -7t23 -10.5q15 -20 4 -33t-30 -9q-23 1 -43.5 3.5t-43.5 -2.5v-111.5t2 -114.5q15 0 29.5 3t28.5 3q14 5 24 -7t2 -32q-14 -14 -37.5 -19
t-46.5 -3q1 -48 1 -90.5t-1 -90.5q24 1 49.5 5.5t48.5 14.5l-1 -2q11 1 18 -4.5t9 -13.5t-1 -17t-12 -15q-29 -13 -64 -18t-67 -3zM86.5283 648.143q11.0947 -12.916 8.1582 -25.833q-2.9375 -12.916 -13.0537 -20.5479q-10.1152 -7.63281 -24.1475 -7.63281
t-24.4746 13.5039q-9.13672 12.3291 -6.2002 23.4834q2.9375 11.1553 12.0742 17.6133t22.5166 7.33887q13.3789 0.879883 25.127 -7.92578zM164.193 648.143q11.0947 -12.916 8.1582 -25.833q-2.9375 -12.916 -13.0527 -20.5479q-10.1162 -7.63281 -24.1484 -7.63281
t-24.4746 13.5039q-9.13672 12.3291 -6.2002 23.4834q2.9375 11.1553 12.0742 17.6133q9.1377 6.45801 22.5166 7.33887q13.3789 0.879883 25.127 -7.92578z" />
    <glyph glyph-name="idieresis" unicode="&#xef;" horiz-adv-x="221" 
d="M30 0q-11 2 -15.5 11t-4 18.5t6.5 17.5t17 9q2 0 8 -0.5t13 -0.5h14t10 1q2 117 1 228t-1 234h-17t-8.5 -0.5l-7 -1t-12.5 -1.5q-11 2 -17.5 9t-7.5 15.5t3.5 17t15.5 13.5q7 3 30.5 5t50.5 2t50.5 -0.5t30.5 -1.5q12 -3 17.5 -12t4.5 -18t-8 -16.5t-18 -7.5
q-12 0 -27.5 -1t-30.5 -1q-1 -114 0 -231t1 -231h27.5t26.5 -1q10 -3 15 -11.5t5.5 -17.5t-4 -17t-13.5 -10q-15 -2 -36.5 -2.5t-43 -0.5t-42 1t-34.5 2zM91.5283 648.143q11.0947 -12.916 8.1582 -25.833q-2.9375 -12.916 -13.0537 -20.5479
q-10.1152 -7.63281 -24.1475 -7.63281t-24.4746 13.5039q-9.13672 12.3291 -6.2002 23.4834q2.9375 11.1553 12.0742 17.6133t22.5166 7.33887q13.3789 0.879883 25.127 -7.92578zM169.193 648.143q11.0947 -12.916 8.1582 -25.833q-2.9375 -12.916 -13.0527 -20.5479
q-10.1162 -7.63281 -24.1484 -7.63281t-24.4746 13.5039q-9.13672 12.3291 -6.2002 23.4834q2.9375 11.1553 12.0742 17.6133q9.1377 6.45801 22.5166 7.33887q13.3789 0.879883 25.127 -7.92578z" />
    <glyph glyph-name="odieresis" unicode="&#xf6;" horiz-adv-x="260" 
d="M175 570q22 -15 36 -42t21.5 -61t9 -73.5t-0.5 -79.5t-7.5 -78t-12.5 -70q-5 -23 -14 -56t-24.5 -60.5t-37.5 -44t-53 -6.5q-13 5 -23 18t-17.5 29.5t-12 33.5t-7.5 30q-4 22 -8.5 69.5t-4.5 104.5t6.5 115.5t23.5 102t47.5 64.5t78.5 4zM170 501q-6 8 -14 14t-17.5 8
t-18.5 -0.5t-16 -12.5q-16 -22 -24.5 -61.5t-12 -84t-3 -87t2.5 -70.5q1 -9 3.5 -30.5t7 -45.5t11 -45t16 -29.5t21.5 0.5t27 45q8 19 13 38t9 39q6 27 11.5 71.5t7 92t-3.5 90.5t-20 68zM116.528 648.143q11.0947 -12.916 8.1582 -25.833
q-2.9375 -12.916 -13.0537 -20.5479q-10.1152 -7.63281 -24.1475 -7.63281t-24.4746 13.5039q-9.13672 12.3291 -6.2002 23.4834q2.9375 11.1553 12.0742 17.6133t22.5166 7.33887q13.3789 0.879883 25.127 -7.92578zM194.193 648.143q11.0947 -12.916 8.1582 -25.833
q-2.9375 -12.916 -13.0527 -20.5479q-10.1162 -7.63281 -24.1484 -7.63281t-24.4746 13.5039q-9.13672 12.3291 -6.2002 23.4834q2.9375 11.1553 12.0742 17.6133q9.1377 6.45801 22.5166 7.33887q13.3789 0.879883 25.127 -7.92578z" />
    <glyph glyph-name="udieresis" unicode="&#xfc;" horiz-adv-x="253" 
d="M23 552q0 10 8.5 17t18.5 8t19 -5t10 -23l-4 -72q-5 -76 -4 -152.5t9 -152.5q1 -5 3 -22t6 -36.5t10.5 -36t17.5 -19.5q4 -2 13 6.5t18.5 21.5t16.5 27t9 24q6 42 6.5 94.5t0 107.5t-0.5 109.5t3 99.5v1q0 13 7 19.5t15.5 7t16 -5.5t10.5 -18q2 -59 1 -124.5t-3 -131.5
t-3 -131.5t2 -124.5q0 -20 -7.5 -31t-17 -11t-18 12t-9.5 39q-9 -18 -22.5 -31t-29 -17t-31 2t-29.5 27q-21 30 -31 82t-14 110t-3.5 112t0.5 87q0 2 0.5 20.5t1 41t1.5 43t3 26.5zM116.528 648.143q11.0947 -12.916 8.1582 -25.833q-2.9375 -12.916 -13.0537 -20.5479
q-10.1152 -7.63281 -24.1475 -7.63281t-24.4746 13.5039q-9.13672 12.3291 -6.2002 23.4834q2.9375 11.1553 12.0742 17.6133t22.5166 7.33887q13.3789 0.879883 25.127 -7.92578zM194.193 648.143q11.0947 -12.916 8.1582 -25.833q-2.9375 -12.916 -13.0527 -20.5479
q-10.1162 -7.63281 -24.1484 -7.63281t-24.4746 13.5039q-9.13672 12.3291 -6.2002 23.4834q2.9375 11.1553 12.0742 17.6133q9.1377 6.45801 22.5166 7.33887q13.3789 0.879883 25.127 -7.92578z" />
    <glyph glyph-name="ydieresis" unicode="&#xff;" horiz-adv-x="236" 
d="M12 549q2 12 9.5 18.5t16 7.5t16.5 -4.5t11 -17.5q4 -40 13 -80t23 -78q11 22 21.5 43.5t22 42.5t25.5 41t33 41q11 9 21.5 10.5t17.5 -3t9.5 -13.5t-2.5 -21q-26 -36 -53 -80.5t-47 -89.5q-3 -6 -7 -17.5t-8.5 -24.5t-7.5 -24.5t-3 -17.5q0 -48 0.5 -84.5t1 -66t0.5 -55
t-2 -51.5q-3 -11 -10.5 -17.5t-16 -6.5t-16 5.5t-10.5 18.5q0 71 0.5 143t-0.5 144q-10 20 -20 53t-18 67.5t-13.5 66.5t-6.5 50zM104.528 648.143q11.0947 -12.916 8.1582 -25.833q-2.9375 -12.916 -13.0537 -20.5479q-10.1152 -7.63281 -24.1475 -7.63281
t-24.4746 13.5039q-9.13672 12.3291 -6.2002 23.4834q2.9375 11.1553 12.0742 17.6133t22.5166 7.33887q13.3789 0.879883 25.127 -7.92578zM182.193 648.143q11.0947 -12.916 8.1582 -25.833q-2.9375 -12.916 -13.0527 -20.5479q-10.1162 -7.63281 -24.1484 -7.63281
t-24.4746 13.5039q-9.13672 12.3291 -6.2002 23.4834q2.9375 11.1553 12.0742 17.6133q9.1377 6.45801 22.5166 7.33887q13.3789 0.879883 25.127 -7.92578z" />
    <glyph glyph-name="aring" unicode="&#xe5;" horiz-adv-x="197" 
d="M63 192q-4 -42 -5.5 -83.5t-1.5 -82.5q-3 -14 -10 -20.5t-14.5 -5.5t-14 8.5t-7.5 21.5q5 131 18 261t30 259q2 9 9.5 15t16.5 7t17.5 -4t11.5 -18q18 -132 37 -256.5t36 -258.5q1 -14 -4 -23t-12.5 -11.5t-15.5 2.5t-12 20q-5 50 -11.5 91t-13.5 89q-11 2 -25 0.5
t-29 -11.5zM70 254q10 2 19.5 3t20.5 1q-6 35 -11 70.5t-10 71.5l-2 21q-2 -10 -2.5 -20t-1.5 -19zM82.8398 719.195q16.7168 -1.09766 28.9766 -9.32812t19.2256 -20.5762t8.08008 -26.3379t-4.45801 -26.0635t-18.1104 -20.5762t-32.5996 -9.60254
q-15.6025 -1.09766 -27.3057 6.58398q-11.7021 7.68164 -18.3887 19.7539q-6.6875 12.0713 -7.52344 26.3379q-0.835938 14.2656 4.17969 27.1611q5.01562 12.8945 16.7178 21.9482q11.7021 9.05273 31.2061 10.6992zM82.8398 647.314q8.3584 -0.547852 11.9805 3.8418
t3.06543 9.87598q-0.557617 5.4873 -4.45801 9.87695q-3.90137 4.38965 -10.5879 3.84082q-6.12988 0 -8.91602 -4.38965t-2.78613 -9.32812t2.78613 -9.32715q2.78613 -4.39062 8.91602 -4.39062z" />
    <glyph glyph-name="ccedilla" unicode="&#xe7;" horiz-adv-x="208" 
d="M17 394q5 60 16 105t36 68q32 23 56 12t40 -38.5t23.5 -62t7.5 -58.5q0 -12 -7 -20.5t-15 -11t-16 2t-9 17.5q-3 12 -6 33.5t-9 41.5t-14.5 32.5t-21.5 5.5q-9 -9 -15 -33q-17 -81 -19.5 -148t-0.5 -133q0 -5 1.5 -27t5 -47t9 -46.5t14.5 -26.5q13 -8 21.5 4t14.5 32
t9 41.5t6 33.5q1 13 8.5 17.5t16 2.5t15 -10.5t6.5 -21.5q-2 -16 -6 -37t-11.5 -42t-17.5 -40t-23.5 -30t-30.5 -11.5t-38 14.5q-20 16 -32 57.5t-17.5 95.5t-4.5 114t8 114zM121.143 4q0 -4.08691 -0.334961 -8.51465q-0.334961 -4.42676 -1.67578 -11.9199
q7.37207 -10.2178 16.084 -21.1162t15.4141 -22.8184t9.71777 -24.8613q3.01562 -12.9424 -0.335938 -26.5654q-4.69043 -17.71 -22.1152 -22.8184q-17.4238 -5.1084 -37.8643 -1.3623t-38.5342 14.3037q-18.0947 10.5576 -24.7969 24.1807
q-2.00977 5.44922 -2.00977 11.9209q0 6.4707 3.68555 10.5576t11.7285 4.76758q8.04102 0.681641 22.1152 -4.08594q2.00977 -0.681641 6.36621 -2.38477t9.71777 -3.74609t10.0527 -3.40625q4.69043 -1.36133 8.04102 -1.36133q-7.37109 11.5791 -15.4131 21.7969
l-16.084 20.4336q-2.68066 3.40625 -3.68652 9.53711q-1.00488 6.12988 -1.00488 12.9414t0.334961 13.2822q0.334961 6.47168 0.334961 10.5576q0 14.3047 7.70703 22.1377t17.4248 8.17383q9.7168 0.34082 17.4238 -7.15137q7.70703 -7.49316 7.70703 -22.4785z" />
    <glyph glyph-name="sacute" unicode="&#x15b;" horiz-adv-x="216" 
d="M161 527q3 -12 0 -21.5t-10 -14t-16 -3t-17 10.5q-5 11 -14.5 18.5t-23.5 -2.5q-14 -8 -14 -23t4 -31q13 -47 39 -93.5t49 -94t35 -98t-3 -105.5q-6 -26 -24 -41.5t-40.5 -21.5t-46 -2t-40.5 17q-23 19 -30 45t-5 56q2 15 10 21t16.5 5t15 -9.5t6.5 -22.5q-1 -32 14 -47
t33.5 -14t33.5 17t15 46q-1 40 -22 87t-46 96.5t-45 99.5t-18 95q1 31 20 51t43.5 26t48 -5t32.5 -42zM91.5312 713.645q-8.66504 -16.4443 -17.0205 -36.3145q-8.35645 -19.8701 -15.165 -36.3145q-4.33203 -10.2773 -0.927734 -19.8701t10.5215 -14.3887
q7.11816 -4.79688 16.0928 -2.74121q8.97559 2.05566 15.165 15.0742q6.18945 12.333 10.5225 20.8975q4.33203 8.56543 7.73633 16.1025t7.11816 15.416q3.71387 7.87988 8.66602 20.2129q4.95117 12.333 1.2373 21.9258t-11.4502 13.7041
q-7.7373 4.11035 -16.7119 1.37012q-8.97559 -2.74121 -15.7842 -15.0742z" />
    <glyph glyph-name="zacute" unicode="&#x17a;" 
d="M41 519q-11 1 -16.5 8t-6.5 15.5t3.5 17t14.5 12.5q40 1 69.5 3.5t47 -6.5t21.5 -35t-8 -83q-10 -54 -22.5 -104.5t-25.5 -98.5t-25.5 -94t-22.5 -91q8 -2 20.5 -2t25 0.5t23.5 1t16 -1.5q13 -5 17 -14t1.5 -19t-10 -17t-17.5 -7q-48 -5 -76 -4t-40.5 11t-13 30.5
t6.5 54.5q9 40 24.5 96.5t32 116t29.5 115.5t18 95q-23 2 -43.5 1t-42.5 -1zM91.5312 713.645q-8.66504 -16.4443 -17.0205 -36.3145q-8.35645 -19.8701 -15.165 -36.3145q-4.33203 -10.2773 -0.927734 -19.8701t10.5215 -14.3887q7.11816 -4.79688 16.0928 -2.74121
q8.97559 2.05566 15.165 15.0742q6.18945 12.333 10.5225 20.8975q4.33203 8.56543 7.73633 16.1025t7.11816 15.416q3.71387 7.87988 8.66602 20.2129q4.95117 12.333 1.2373 21.9258t-11.4502 13.7041q-7.7373 4.11035 -16.7119 1.37012
q-8.97559 -2.74121 -15.7842 -15.0742z" />
    <glyph glyph-name="lacute" unicode="&#x13a;" horiz-adv-x="208" 
d="M43 -3q-9 -1 -17.5 4.5t-12.5 16.5q1 69 2 134.5t1 131v132v138.5q5 23 22 25t25 -23q-2 -121 -1 -245t1 -248q28 8 57 10t56 -3q11 -5 15.5 -13.5t3.5 -17.5t-7 -17t-16 -10h-1h-64.5t-63.5 -15zM58.5312 713.645q-8.66504 -16.4443 -17.0205 -36.3145
q-8.35645 -19.8701 -15.165 -36.3145q-4.33203 -10.2773 -0.927734 -19.8701t10.5215 -14.3887q7.11816 -4.79688 16.0928 -2.74121q8.97559 2.05566 15.165 15.0742q6.18945 12.333 10.5225 20.8975q4.33203 8.56543 7.73633 16.1025t7.11816 15.416
q3.71387 7.87988 8.66602 20.2129q4.95117 12.333 1.2373 21.9258t-11.4502 13.7041q-7.7373 4.11035 -16.7119 1.37012q-8.97559 -2.74121 -15.7842 -15.0742z" />
    <glyph glyph-name="racute" unicode="&#x155;" horiz-adv-x="253" 
d="M17 541q2 15 12 21t20 0q19 12 43.5 14t47 -5t39 -21.5t19.5 -36.5q4 -36 -4.5 -67.5t-25 -59.5t-39 -53t-44.5 -48q29 -38 48 -70.5t42 -70.5q16 -26 30 -53t28 -55q3 -12 -0.5 -21t-10 -13.5t-15.5 -3t-17 10.5q-30 56 -59.5 108.5t-67.5 109.5v-208q-2 -9 -9 -14.5
t-14.5 -6t-15 4t-10.5 15.5q3 151 3 277.5v245.5zM62 500v-163q30 29 54 60t33 67q7 29 -4 42.5t-28 15.5t-34 -4.5t-21 -17.5zM113.531 713.645q-8.66504 -16.4443 -17.0205 -36.3145q-8.35645 -19.8701 -15.165 -36.3145q-4.33203 -10.2773 -0.927734 -19.8701
t10.5215 -14.3887q7.11816 -4.79688 16.0928 -2.74121q8.97559 2.05566 15.165 15.0742q6.18945 12.333 10.5225 20.8975q4.33203 8.56543 7.73633 16.1025t7.11816 15.416q3.71387 7.87988 8.66602 20.2129q4.95117 12.333 1.2373 21.9258t-11.4502 13.7041
q-7.7373 4.11035 -16.7119 1.37012q-8.97559 -2.74121 -15.7842 -15.0742z" />
    <glyph glyph-name="cacute" unicode="&#x107;" horiz-adv-x="208" 
d="M17 394q5 60 16 105t36 68q32 23 56 12t40 -38.5t23.5 -62t7.5 -58.5q0 -12 -7 -20.5t-15 -11t-16 2t-9 17.5q-3 12 -6 33.5t-9 41.5t-14.5 32.5t-21.5 5.5q-9 -9 -15 -33q-17 -81 -19.5 -148t-0.5 -133q0 -5 1.5 -27t5 -47t9 -46.5t14.5 -26.5q13 -8 21.5 4t14.5 32
t9 41.5t6 33.5q1 13 8.5 17.5t16 2.5t15 -10.5t6.5 -21.5q-2 -16 -6 -37t-11.5 -42t-17.5 -40t-23.5 -30t-30.5 -11.5t-38 14.5q-20 16 -32 57.5t-17.5 95.5t-4.5 114t8 114zM102.531 713.645q-8.66504 -16.4443 -17.0205 -36.3145q-8.35645 -19.8701 -15.165 -36.3145
q-4.33203 -10.2773 -0.927734 -19.8701t10.5215 -14.3887q7.11816 -4.79688 16.0928 -2.74121q8.97559 2.05566 15.165 15.0742q6.18945 12.333 10.5225 20.8975q4.33203 8.56543 7.73633 16.1025t7.11816 15.416q3.71387 7.87988 8.66602 20.2129
q4.95117 12.333 1.2373 21.9258t-11.4502 13.7041q-7.7373 4.11035 -16.7119 1.37012q-8.97559 -2.74121 -15.7842 -15.0742z" />
    <glyph glyph-name="nacute" unicode="&#x144;" horiz-adv-x="234" 
d="M21 549v1q0 1 1 2q0 10 4.5 16.5t11 8.5t14 -1.5t13.5 -12.5q14 -32 24.5 -67t20.5 -71q14 -49 27 -99t26 -101q1 33 2 81t1.5 96t0 88.5t-0.5 58.5q0 16 8 22.5t17 5t16.5 -9t7.5 -18.5q-3 -134 -1 -264t-4 -264q-9 -20 -22.5 -21.5t-24.5 17.5q-11 43 -18.5 79.5
t-18.5 80.5q-14 58 -28.5 114.5t-30.5 113.5l-2 6q0 -98 0.5 -196.5t-0.5 -196.5q-2 -10 -8 -15t-13.5 -5.5t-14.5 4.5t-10 15q1 68 1.5 133t0.5 130v131.5v137.5zM113.531 713.645q-8.66504 -16.4443 -17.0205 -36.3145q-8.35645 -19.8701 -15.165 -36.3145
q-4.33203 -10.2773 -0.927734 -19.8701t10.5215 -14.3887q7.11816 -4.79688 16.0928 -2.74121q8.97559 2.05566 15.165 15.0742q6.18945 12.333 10.5225 20.8975q4.33203 8.56543 7.73633 16.1025t7.11816 15.416q3.71387 7.87988 8.66602 20.2129
q4.95117 12.333 1.2373 21.9258t-11.4502 13.7041q-7.7373 4.11035 -16.7119 1.37012q-8.97559 -2.74121 -15.7842 -15.0742z" />
    <glyph glyph-name="ccaron" unicode="&#x10d;" horiz-adv-x="208" 
d="M17 394q5 60 16 105t36 68q32 23 56 12t40 -38.5t23.5 -62t7.5 -58.5q0 -12 -7 -20.5t-15 -11t-16 2t-9 17.5q-3 12 -6 33.5t-9 41.5t-14.5 32.5t-21.5 5.5q-9 -9 -15 -33q-17 -81 -19.5 -148t-0.5 -133q0 -5 1.5 -27t5 -47t9 -46.5t14.5 -26.5q13 -8 21.5 4t14.5 32
t9 41.5t6 33.5q1 13 8.5 17.5t16 2.5t15 -10.5t6.5 -21.5q-2 -16 -6 -37t-11.5 -42t-17.5 -40t-23.5 -30t-30.5 -11.5t-38 14.5q-20 16 -32 57.5t-17.5 95.5t-4.5 114t8 114zM24.6816 672.852q10.6826 -12.3301 27.9619 -28.668q17.2803 -16.3379 30.4756 -28.668
q4.39844 -4.31543 10.9961 -6.78125q6.59766 -2.4668 13.8242 -2.4668q7.22559 0 14.4521 2.1582q7.22559 2.1582 12.2529 7.70605q15.0801 15.4131 27.334 29.5928q12.2529 14.1797 24.8193 29.5928q7.54102 9.86426 5.96973 19.4209q-1.57129 9.55566 -8.48242 14.4883
q-6.91211 4.93164 -17.2803 4.00684t-19.793 -12.0225q-0.628906 0 -9.42578 -11.4053t-30.1611 -32.9834q-12.5674 12.9473 -23.249 22.5029t-22.6211 21.8857q-8.79688 10.4814 -18.5361 10.7891q-9.73926 0.308594 -16.3379 -5.24023
q-6.59766 -5.54883 -8.16797 -15.1045q-1.57129 -9.55566 5.96875 -18.8037z" />
    <glyph glyph-name="ncaron" unicode="&#x148;" horiz-adv-x="234" 
d="M21 549v1q0 1 1 2q0 10 4.5 16.5t11 8.5t14 -1.5t13.5 -12.5q14 -32 24.5 -67t20.5 -71q14 -49 27 -99t26 -101q1 33 2 81t1.5 96t0 88.5t-0.5 58.5q0 16 8 22.5t17 5t16.5 -9t7.5 -18.5q-3 -134 -1 -264t-4 -264q-9 -20 -22.5 -21.5t-24.5 17.5q-11 43 -18.5 79.5
t-18.5 80.5q-14 58 -28.5 114.5t-30.5 113.5l-2 6q0 -98 0.5 -196.5t-0.5 -196.5q-2 -10 -8 -15t-13.5 -5.5t-14.5 4.5t-10 15q1 68 1.5 133t0.5 130v131.5v137.5zM35.6816 672.852q10.6826 -12.3301 27.9619 -28.668q17.2803 -16.3379 30.4756 -28.668
q4.39844 -4.31543 10.9961 -6.78125q6.59766 -2.4668 13.8242 -2.4668q7.22559 0 14.4521 2.1582q7.22559 2.1582 12.2529 7.70605q15.0801 15.4131 27.334 29.5928q12.2529 14.1797 24.8193 29.5928q7.54102 9.86426 5.96973 19.4209q-1.57129 9.55566 -8.48242 14.4883
q-6.91211 4.93164 -17.2803 4.00684t-19.793 -12.0225q-0.628906 0 -9.42578 -11.4053t-30.1611 -32.9834q-12.5674 12.9473 -23.249 22.5029t-22.6211 21.8857q-8.79688 10.4814 -18.5361 10.7891q-9.73926 0.308594 -16.3379 -5.24023
q-6.59766 -5.54883 -8.16797 -15.1045q-1.57129 -9.55566 5.96875 -18.8037z" />
    <glyph glyph-name="rcaron" unicode="&#x159;" horiz-adv-x="253" 
d="M17 541q2 15 12 21t20 0q19 12 43.5 14t47 -5t39 -21.5t19.5 -36.5q4 -36 -4.5 -67.5t-25 -59.5t-39 -53t-44.5 -48q29 -38 48 -70.5t42 -70.5q16 -26 30 -53t28 -55q3 -12 -0.5 -21t-10 -13.5t-15.5 -3t-17 10.5q-30 56 -59.5 108.5t-67.5 109.5v-208q-2 -9 -9 -14.5
t-14.5 -6t-15 4t-10.5 15.5q3 151 3 277.5v245.5zM62 500v-163q30 29 54 60t33 67q7 29 -4 42.5t-28 15.5t-34 -4.5t-21 -17.5zM35.6816 672.852q10.6826 -12.3301 27.9619 -28.668q17.2803 -16.3379 30.4756 -28.668q4.39844 -4.31543 10.9961 -6.78125
q6.59766 -2.4668 13.8242 -2.4668q7.22559 0 14.4521 2.1582q7.22559 2.1582 12.2529 7.70605q15.0801 15.4131 27.334 29.5928q12.2529 14.1797 24.8193 29.5928q7.54102 9.86426 5.96973 19.4209q-1.57129 9.55566 -8.48242 14.4883q-6.91211 4.93164 -17.2803 4.00684
t-19.793 -12.0225q-0.628906 0 -9.42578 -11.4053t-30.1611 -32.9834q-12.5674 12.9473 -23.249 22.5029t-22.6211 21.8857q-8.79688 10.4814 -18.5361 10.7891q-9.73926 0.308594 -16.3379 -5.24023q-6.59766 -5.54883 -8.16797 -15.1045
q-1.57129 -9.55566 5.96875 -18.8037z" />
    <glyph glyph-name="abreve" unicode="&#x103;" horiz-adv-x="197" 
d="M63 192q-4 -42 -5.5 -83.5t-1.5 -82.5q-3 -14 -10 -20.5t-14.5 -5.5t-14 8.5t-7.5 21.5q5 131 18 261t30 259q2 9 9.5 15t16.5 7t17.5 -4t11.5 -18q18 -132 37 -256.5t36 -258.5q1 -14 -4 -23t-12.5 -11.5t-15.5 2.5t-12 20q-5 50 -11.5 91t-13.5 89q-11 2 -25 0.5
t-29 -11.5zM70 254q10 2 19.5 3t20.5 1q-6 35 -11 70.5t-10 71.5l-2 21q-2 -10 -2.5 -20t-1.5 -19zM21.9658 707.08q3.16113 11.9473 11.3799 17.292t16.4375 4.40137t14.2246 -7.85938q6.00586 -6.91699 5.37305 -18.8643q-1.89648 -28.2949 6.63867 -41.8135
q8.53418 -13.5195 19.9141 -13.5195t21.8115 12.2617q10.4307 12.2617 12.3271 35.5264q-1.26367 15.0908 6.00586 23.8936q7.27051 8.80273 16.4375 10.0605t17.0693 -5.65918q7.90332 -6.91602 7.90332 -23.2646q0 -33.9541 -12.9609 -56.2764
q-12.96 -22.3213 -32.2422 -32.6963t-41.0928 -9.43262q-21.8115 0.943359 -39.1963 12.8906q-17.3857 11.9463 -26.5527 35.2119q-9.16699 23.2646 -3.47754 57.8477z" />
    <glyph glyph-name="ecaron" unicode="&#x11b;" 
d="M45 0q-11 2 -18 10.5t-10 19.5q1 63 1.5 121.5t0.5 116.5t-0.5 117.5t-0.5 124.5q-9 22 -2.5 35.5t22 20.5t36.5 8.5t41.5 -1t37.5 -7t23 -10.5q15 -20 4 -33t-30 -9q-23 1 -43.5 3.5t-43.5 -2.5v-111.5t2 -114.5q15 0 29.5 3t28.5 3q14 5 24 -7t2 -32q-14 -14 -37.5 -19
t-46.5 -3q1 -48 1 -90.5t-1 -90.5q24 1 49.5 5.5t48.5 14.5l-1 -2q11 1 18 -4.5t9 -13.5t-1 -17t-12 -15q-29 -13 -64 -18t-67 -3zM24.6816 672.852q10.6826 -12.3301 27.9619 -28.668q17.2803 -16.3379 30.4756 -28.668q4.39844 -4.31543 10.9961 -6.78125
q6.59766 -2.4668 13.8242 -2.4668q7.22559 0 14.4521 2.1582q7.22559 2.1582 12.2529 7.70605q15.0801 15.4131 27.334 29.5928q12.2529 14.1797 24.8193 29.5928q7.54102 9.86426 5.96973 19.4209q-1.57129 9.55566 -8.48242 14.4883q-6.91211 4.93164 -17.2803 4.00684
t-19.793 -12.0225q-0.628906 0 -9.42578 -11.4053t-30.1611 -32.9834q-12.5674 12.9473 -23.249 22.5029t-22.6211 21.8857q-8.79688 10.4814 -18.5361 10.7891q-9.73926 0.308594 -16.3379 -5.24023q-6.59766 -5.54883 -8.16797 -15.1045
q-1.57129 -9.55566 5.96875 -18.8037z" />
    <glyph glyph-name="scedilla" unicode="&#x15f;" horiz-adv-x="216" 
d="M161 527q3 -12 0 -21.5t-10 -14t-16 -3t-17 10.5q-5 11 -14.5 18.5t-23.5 -2.5q-14 -8 -14 -23t4 -31q13 -47 39 -93.5t49 -94t35 -98t-3 -105.5q-6 -26 -24 -41.5t-40.5 -21.5t-46 -2t-40.5 17q-23 19 -30 45t-5 56q2 15 10 21t16.5 5t15 -9.5t6.5 -22.5q-1 -32 14 -47
t33.5 -14t33.5 17t15 46q-1 40 -22 87t-46 96.5t-45 99.5t-18 95q1 31 20 51t43.5 26t48 -5t32.5 -42zM123.279 -38.5371q9.64258 -11.6562 13.8613 -29.4648t2.41016 -35.9404q-1.80762 -18.1328 -9.94336 -33.6748t-22.5996 -23.3125q-11.4512 -4.5332 -19.5869 -0.324219
t-11.1494 12.3037q-3.0127 8.09473 0 17.4854q3.01367 9.38965 13.2588 15.2178q3.61621 1.94336 4.21875 7.44727q0.602539 5.50488 0.602539 11.9805q-10.8477 1.94238 -20.4902 14.2471q-8.4375 13.5986 -5.72559 25.9033q2.71191 12.3037 11.1494 19.4268
q8.4375 7.12402 20.792 8.0957q12.3545 0.970703 23.2021 -8.0957v-1.29492z" />
    <glyph glyph-name="uni0163" unicode="&#x163;" horiz-adv-x="140" 
d="M36 518h-17.5t-9 -0.5l-7 -1t-12.5 -1.5q-12 3 -18 10t-7 15.5t3.5 16.5t14.5 13q8 3 32 5t51 2.5t51 -0.5t31 -2q12 -3 17 -11.5t3.5 -17.5t-8.5 -16.5t-18 -7.5q-12 0 -27.5 -0.5t-30.5 -2.5v-96v-107.5v-131v-165.5q-2 -9 -9 -14.5t-15 -6t-15.5 4t-10.5 15.5
q2 129 2 252.5v247.5zM80.2793 -38.5371q9.64258 -11.6562 13.8613 -29.4648t2.41016 -35.9404q-1.80762 -18.1328 -9.94336 -33.6748t-22.5996 -23.3125q-11.4512 -4.5332 -19.5869 -0.324219t-11.1494 12.3037q-3.0127 8.09473 0 17.4854q3.01367 9.38965 13.2588 15.2178
q3.61621 1.94336 4.21875 7.44727q0.602539 5.50488 0.602539 11.9805q-10.8477 1.94238 -20.4902 14.2471q-8.4375 13.5986 -5.72559 25.9033q2.71191 12.3037 11.1494 19.4268q8.4375 7.12402 20.792 8.0957q12.3545 0.970703 23.2021 -8.0957v-1.29492z" />
    <glyph glyph-name="lcaron" unicode="&#x13e;" horiz-adv-x="208" 
d="M43 -3q-9 -1 -17.5 4.5t-12.5 16.5q1 69 2 134.5t1 131v132v138.5q5 23 22 25t25 -23q-2 -121 -1 -245t1 -248q28 8 57 10t56 -3q11 -5 15.5 -13.5t3.5 -17.5t-7 -17t-16 -10h-1h-64.5t-63.5 -15zM123.279 470.463q9.64258 -11.6562 13.8613 -29.4648t2.41016 -35.9404
q-1.80762 -18.1328 -9.94336 -33.6748t-22.5996 -23.3125q-11.4512 -4.5332 -19.5869 -0.324219t-11.1494 12.3037q-3.0127 8.09473 0 17.4854q3.01367 9.38965 13.2588 15.2178q3.61621 1.94336 4.21875 7.44727q0.602539 5.50488 0.602539 11.9805
q-10.8477 1.94238 -20.4902 14.2471q-8.4375 13.5986 -5.72559 25.9033q2.71191 12.3037 11.1494 19.4268q8.4375 7.12402 20.792 8.0957q12.3545 0.970703 23.2021 -8.0957v-1.29492z" />
    <glyph glyph-name="tcaron" unicode="&#x165;" horiz-adv-x="183" 
d="M36 518h-17.5t-9 -0.5l-7 -1t-12.5 -1.5q-12 3 -18 10t-7 15.5t3.5 16.5t14.5 13q8 3 32 5t51 2.5t51 -0.5t31 -2q12 -3 17 -11.5t3.5 -17.5t-8.5 -16.5t-18 -7.5q-12 0 -27.5 -0.5t-30.5 -2.5v-96v-107.5v-131v-165.5q-2 -9 -9 -14.5t-15 -6t-15.5 4t-10.5 15.5
q2 129 2 252.5v247.5zM155.279 470.463q9.64258 -11.6562 13.8613 -29.4648t2.41016 -35.9404q-1.80762 -18.1328 -9.94336 -33.6748t-22.5996 -23.3125q-11.4512 -4.5332 -19.5869 -0.324219t-11.1494 12.3037q-3.0127 8.09473 0 17.4854q3.01367 9.38965 13.2588 15.2178
q3.61621 1.94336 4.21875 7.44727q0.602539 5.50488 0.602539 11.9805q-10.8477 1.94238 -20.4902 14.2471q-8.4375 13.5986 -5.72559 25.9033q2.71191 12.3037 11.1494 19.4268q8.4375 7.12402 20.792 8.0957q12.3545 0.970703 23.2021 -8.0957v-1.29492z" />
    <glyph glyph-name="dcaron" unicode="&#x10f;" horiz-adv-x="281" 
d="M17 552q-1 7 2.5 17t15.5 10q42 3 73.5 -18t52.5 -57t32 -83.5t11.5 -99.5t-8.5 -103.5t-27.5 -95.5t-47 -76.5t-65.5 -45.5q-12 -3 -27 0t-15 17q-1 151 1 281.5t2 253.5zM62 523q0 -114 0.5 -228t-0.5 -229q27 17 46.5 48t31 69.5t15.5 81t0.5 83.5t-14 77t-28.5 61
q-13 17 -26.5 27t-24.5 10zM257.279 470.463q9.64258 -11.6562 13.8613 -29.4648t2.41016 -35.9404q-1.80762 -18.1328 -9.94336 -33.6748t-22.5996 -23.3125q-11.4512 -4.5332 -19.5869 -0.324219t-11.1494 12.3037q-3.0127 8.09473 0 17.4854
q3.01367 9.38965 13.2588 15.2178q3.61621 1.94336 4.21875 7.44727q0.602539 5.50488 0.602539 11.9805q-10.8477 1.94238 -20.4902 14.2471q-8.4375 13.5986 -5.72559 25.9033q2.71191 12.3037 11.1494 19.4268q8.4375 7.12402 20.792 8.0957
q12.3545 0.970703 23.2021 -8.0957v-1.29492z" />
    <glyph glyph-name="zdotaccent" unicode="&#x17c;" 
d="M41 519q-11 1 -16.5 8t-6.5 15.5t3.5 17t14.5 12.5q40 1 69.5 3.5t47 -6.5t21.5 -35t-8 -83q-10 -54 -22.5 -104.5t-25.5 -98.5t-25.5 -94t-22.5 -91q8 -2 20.5 -2t25 0.5t23.5 1t16 -1.5q13 -5 17 -14t1.5 -19t-10 -17t-17.5 -7q-48 -5 -76 -4t-40.5 11t-13 30.5
t6.5 54.5q9 40 24.5 96.5t32 116t29.5 115.5t18 95q-23 2 -43.5 1t-42.5 -1zM119.553 661.097q11.1846 -15.0459 8.22363 -30.0908q-2.95996 -15.0459 -13.1572 -23.9365t-24.3428 -8.89062q-14.1445 0 -24.6709 15.7295q-9.21094 14.3613 -6.25 27.3555t12.1709 20.5176
q9.21094 7.52246 22.6973 8.54883q13.4873 1.02539 25.3291 -9.2334z" />
    <glyph glyph-name="ohungarumlaut" unicode="&#x151;" horiz-adv-x="260" 
d="M175 570q22 -15 36 -42t21.5 -61t9 -73.5t-0.5 -79.5t-7.5 -78t-12.5 -70q-5 -23 -14 -56t-24.5 -60.5t-37.5 -44t-53 -6.5q-13 5 -23 18t-17.5 29.5t-12 33.5t-7.5 30q-4 22 -8.5 69.5t-4.5 104.5t6.5 115.5t23.5 102t47.5 64.5t78.5 4zM170 501q-6 8 -14 14t-17.5 8
t-18.5 -0.5t-16 -12.5q-16 -22 -24.5 -61.5t-12 -84t-3 -87t2.5 -70.5q1 -9 3.5 -30.5t7 -45.5t11 -45t16 -29.5t21.5 0.5t27 45q8 19 13 38t9 39q6 27 11.5 71.5t7 92t-3.5 90.5t-20 68zM125.189 708.764q6.45605 11.917 15.8164 14.5645q9.36133 2.64844 17.1084 -1.32422
q7.74609 -3.97168 11.6201 -13.2402q3.87305 -9.26855 -1.29102 -21.1855q-5.16504 -11.917 -8.71582 -19.5312q-3.55078 -7.61328 -7.10059 -14.8955q-3.55078 -7.28223 -8.07031 -15.5586q-4.51855 -8.27539 -10.9746 -20.1924q-7.10156 -11.917 -16.1387 -13.9023
q-9.03809 -1.98633 -16.4619 2.31641q-7.4248 4.30371 -10.9756 13.2412q-3.5498 8.9375 0.96875 19.5303q7.10156 17.2139 16.1396 35.751t18.0752 34.4268zM187.81 708.764q7.10156 11.917 16.4629 14.5645q9.36035 2.64844 17.1074 -1.32422
q7.74609 -3.97168 11.6201 -13.2402q3.87305 -9.26855 -0.645508 -21.1855q-5.16504 -11.917 -9.03809 -19.5312q-3.87305 -7.61328 -7.42383 -14.8955t-8.07031 -15.5586q-4.51855 -8.27539 -10.9746 -20.1924q-7.10059 -12.5781 -16.4619 -14.5645
q-9.36035 -1.98633 -16.4619 2.64746q-7.10156 4.63477 -10.6514 13.9033q-3.55078 9.26855 0.967773 19.1992q7.10156 15.8896 15.8164 35.0889q8.71582 19.1992 17.7529 35.0889z" />
    <glyph glyph-name="uhungarumlaut" unicode="&#x171;" horiz-adv-x="253" 
d="M23 552q0 10 8.5 17t18.5 8t19 -5t10 -23l-4 -72q-5 -76 -4 -152.5t9 -152.5q1 -5 3 -22t6 -36.5t10.5 -36t17.5 -19.5q4 -2 13 6.5t18.5 21.5t16.5 27t9 24q6 42 6.5 94.5t0 107.5t-0.5 109.5t3 99.5v1q0 13 7 19.5t15.5 7t16 -5.5t10.5 -18q2 -59 1 -124.5t-3 -131.5
t-3 -131.5t2 -124.5q0 -20 -7.5 -31t-17 -11t-18 12t-9.5 39q-9 -18 -22.5 -31t-29 -17t-31 2t-29.5 27q-21 30 -31 82t-14 110t-3.5 112t0.5 87q0 2 0.5 20.5t1 41t1.5 43t3 26.5zM115.189 708.764q6.45605 11.917 15.8164 14.5645q9.36133 2.64844 17.1084 -1.32422
q7.74609 -3.97168 11.6201 -13.2402q3.87305 -9.26855 -1.29102 -21.1855q-5.16504 -11.917 -8.71582 -19.5312q-3.55078 -7.61328 -7.10059 -14.8955q-3.55078 -7.28223 -8.07031 -15.5586q-4.51855 -8.27539 -10.9746 -20.1924q-7.10156 -11.917 -16.1387 -13.9023
q-9.03809 -1.98633 -16.4619 2.31641q-7.4248 4.30371 -10.9756 13.2412q-3.5498 8.9375 0.96875 19.5303q7.10156 17.2139 16.1396 35.751t18.0752 34.4268zM177.81 708.764q7.10156 11.917 16.4629 14.5645q9.36035 2.64844 17.1074 -1.32422
q7.74609 -3.97168 11.6201 -13.2402q3.87305 -9.26855 -0.645508 -21.1855q-5.16504 -11.917 -9.03809 -19.5312q-3.87305 -7.61328 -7.42383 -14.8955t-8.07031 -15.5586q-4.51855 -8.27539 -10.9746 -20.1924q-7.10059 -12.5781 -16.4619 -14.5645
q-9.36035 -1.98633 -16.4619 2.64746q-7.10156 4.63477 -10.6514 13.9033q-3.55078 9.26855 0.967773 19.1992q7.10156 15.8896 15.8164 35.0889q8.71582 19.1992 17.7529 35.0889z" />
    <glyph glyph-name="zcaron" unicode="&#x17e;" 
d="M41 519q-11 1 -16.5 8t-6.5 15.5t3.5 17t14.5 12.5q40 1 69.5 3.5t47 -6.5t21.5 -35t-8 -83q-10 -54 -22.5 -104.5t-25.5 -98.5t-25.5 -94t-22.5 -91q8 -2 20.5 -2t25 0.5t23.5 1t16 -1.5q13 -5 17 -14t1.5 -19t-10 -17t-17.5 -7q-48 -5 -76 -4t-40.5 11t-13 30.5
t6.5 54.5q9 40 24.5 96.5t32 116t29.5 115.5t18 95q-23 2 -43.5 1t-42.5 -1zM14.6816 672.852q10.6826 -12.3301 27.9619 -28.668q17.2803 -16.3379 30.4756 -28.668q4.39844 -4.31543 10.9961 -6.78125q6.59766 -2.4668 13.8242 -2.4668q7.22559 0 14.4521 2.1582
q7.22559 2.1582 12.2529 7.70605q15.0801 15.4131 27.334 29.5928q12.2529 14.1797 24.8193 29.5928q7.54102 9.86426 5.96973 19.4209q-1.57129 9.55566 -8.48242 14.4883q-6.91211 4.93164 -17.2803 4.00684t-19.793 -12.0225q-0.628906 0 -9.42578 -11.4053
t-30.1611 -32.9834q-12.5674 12.9473 -23.249 22.5029t-22.6211 21.8857q-8.79688 10.4814 -18.5361 10.7891q-9.73926 0.308594 -16.3379 -5.24023q-6.59766 -5.54883 -8.16797 -15.1045q-1.57129 -9.55566 5.96875 -18.8037z" />
    <glyph glyph-name="scaron" unicode="&#x161;" horiz-adv-x="216" 
d="M161 527q3 -12 0 -21.5t-10 -14t-16 -3t-17 10.5q-5 11 -14.5 18.5t-23.5 -2.5q-14 -8 -14 -23t4 -31q13 -47 39 -93.5t49 -94t35 -98t-3 -105.5q-6 -26 -24 -41.5t-40.5 -21.5t-46 -2t-40.5 17q-23 19 -30 45t-5 56q2 15 10 21t16.5 5t15 -9.5t6.5 -22.5q-1 -32 14 -47
t33.5 -14t33.5 17t15 46q-1 40 -22 87t-46 96.5t-45 99.5t-18 95q1 31 20 51t43.5 26t48 -5t32.5 -42zM14.6816 672.852q10.6826 -12.3301 27.9619 -28.668q17.2803 -16.3379 30.4756 -28.668q4.39844 -4.31543 10.9961 -6.78125q6.59766 -2.4668 13.8242 -2.4668
q7.22559 0 14.4521 2.1582q7.22559 2.1582 12.2529 7.70605q15.0801 15.4131 27.334 29.5928q12.2529 14.1797 24.8193 29.5928q7.54102 9.86426 5.96973 19.4209q-1.57129 9.55566 -8.48242 14.4883q-6.91211 4.93164 -17.2803 4.00684t-19.793 -12.0225
q-0.628906 0 -9.42578 -11.4053t-30.1611 -32.9834q-12.5674 12.9473 -23.249 22.5029t-22.6211 21.8857q-8.79688 10.4814 -18.5361 10.7891q-9.73926 0.308594 -16.3379 -5.24023q-6.59766 -5.54883 -8.16797 -15.1045q-1.57129 -9.55566 5.96875 -18.8037z" />
    <glyph glyph-name="uring" unicode="&#x16f;" horiz-adv-x="253" 
d="M23 552q0 10 8.5 17t18.5 8t19 -5t10 -23l-4 -72q-5 -76 -4 -152.5t9 -152.5q1 -5 3 -22t6 -36.5t10.5 -36t17.5 -19.5q4 -2 13 6.5t18.5 21.5t16.5 27t9 24q6 42 6.5 94.5t0 107.5t-0.5 109.5t3 99.5v1q0 13 7 19.5t15.5 7t16 -5.5t10.5 -18q2 -59 1 -124.5t-3 -131.5
t-3 -131.5t2 -124.5q0 -20 -7.5 -31t-17 -11t-18 12t-9.5 39q-9 -18 -22.5 -31t-29 -17t-31 2t-29.5 27q-21 30 -31 82t-14 110t-3.5 112t0.5 87q0 2 0.5 20.5t1 41t1.5 43t3 26.5zM126.84 719.195q16.7168 -1.09766 28.9766 -9.32812t19.2256 -20.5762t8.08008 -26.3379
t-4.45801 -26.0635t-18.1104 -20.5762t-32.5996 -9.60254q-15.6025 -1.09766 -27.3057 6.58398q-11.7021 7.68164 -18.3887 19.7539q-6.6875 12.0713 -7.52344 26.3379q-0.835938 14.2656 4.17969 27.1611q5.01562 12.8945 16.7178 21.9482q11.7021 9.05273 31.2061 10.6992
zM126.84 647.314q8.3584 -0.547852 11.9805 3.8418t3.06543 9.87598q-0.557617 5.4873 -4.45801 9.87695q-3.90137 4.38965 -10.5879 3.84082q-6.12988 0 -8.91602 -4.38965t-2.78613 -9.32812t2.78613 -9.32715q2.78613 -4.39062 8.91602 -4.39062z" />
    <glyph glyph-name="eogonek" unicode="&#x119;" 
d="M45 0q-11 2 -18 10.5t-10 19.5q1 63 1.5 121.5t0.5 116.5t-0.5 117.5t-0.5 124.5q-9 22 -2.5 35.5t22 20.5t36.5 8.5t41.5 -1t37.5 -7t23 -10.5q15 -20 4 -33t-30 -9q-23 1 -43.5 3.5t-43.5 -2.5v-111.5t2 -114.5q15 0 29.5 3t28.5 3q14 5 24 -7t2 -32q-14 -14 -37.5 -19
t-46.5 -3q1 -48 1 -90.5t-1 -90.5q24 1 49.5 5.5t48.5 14.5l-1 -2q11 1 18 -4.5t9 -13.5t-1 -17t-12 -15q-29 -13 -64 -18t-67 -3zM124.755 -19.3193q-6.56543 -9.85156 -13.7285 -19.7041q-7.16211 -9.85156 -13.7275 -21.0176q2.3877 0 6.56543 1.31348
q4.17773 1.31445 8.6543 3.28418q4.47656 1.9707 8.65527 3.6123q4.17773 1.64258 5.96777 2.29883q12.5342 4.59766 19.6973 3.94141q7.16211 -0.657227 10.4443 -4.59766q3.2832 -3.94141 3.2832 -10.1807t-2.3877 -11.4941q-5.37207 -13.1357 -21.4873 -23.3164
q-16.1152 -10.1797 -34.0205 -13.793q-17.9062 -3.6123 -33.4248 1.31445q-15.5186 4.92578 -19.6963 22.002q-3.58105 13.1367 -0.895508 25.6152q2.68652 12.4795 8.35645 23.9736t13.4297 22.0029q7.75879 10.5088 14.9209 20.3604q7.16211 10.5088 19.3984 15.7637
q12.2354 5.25391 21.4873 3.2832q9.25098 -1.96973 11.042 -12.8076q1.79004 -10.8369 -12.5342 -31.8545z" />
    <glyph glyph-name="aogonek" unicode="&#x105;" horiz-adv-x="197" 
d="M63 192q-4 -42 -5.5 -83.5t-1.5 -82.5q-3 -14 -10 -20.5t-14.5 -5.5t-14 8.5t-7.5 21.5q5 131 18 261t30 259q2 9 9.5 15t16.5 7t17.5 -4t11.5 -18q18 -132 37 -256.5t36 -258.5q1 -14 -4 -23t-12.5 -11.5t-15.5 2.5t-12 20q-5 50 -11.5 91t-13.5 89q-11 2 -25 0.5
t-29 -11.5zM70 254q10 2 19.5 3t20.5 1q-6 35 -11 70.5t-10 71.5l-2 21q-2 -10 -2.5 -20t-1.5 -19zM167.755 -19.3193q-6.56543 -9.85156 -13.7285 -19.7041q-7.16211 -9.85156 -13.7275 -21.0176q2.3877 0 6.56543 1.31348q4.17773 1.31445 8.6543 3.28418
q4.47656 1.9707 8.65527 3.6123q4.17773 1.64258 5.96777 2.29883q12.5342 4.59766 19.6973 3.94141q7.16211 -0.657227 10.4443 -4.59766q3.2832 -3.94141 3.2832 -10.1807t-2.3877 -11.4941q-5.37207 -13.1357 -21.4873 -23.3164q-16.1152 -10.1797 -34.0205 -13.793
q-17.9062 -3.6123 -33.4248 1.31445q-15.5186 4.92578 -19.6963 22.002q-3.58105 13.1367 -0.895508 25.6152q2.68652 12.4795 8.35645 23.9736t13.4297 22.0029q7.75879 10.5088 14.9209 20.3604q7.16211 10.5088 19.3984 15.7637q12.2354 5.25391 21.4873 3.2832
q9.25098 -1.96973 11.042 -12.8076q1.79004 -10.8369 -12.5342 -31.8545z" />
    <glyph glyph-name="Hbar" unicode="&#x126;" horiz-adv-x="404" 
d="M268 750q0 20 10.5 32.5t23 14t24.5 -9t15 -36.5q-2 -43 -2 -86v-85h27q17 0 25 -11.5t8 -25t-8 -25.5t-23 -13h-29q2 -117 2.5 -232.5t-0.5 -234.5q-4 -13 -14.5 -20.5t-22 -8.5t-22.5 5.5t-17 21.5q2 79 3 148t1 144q-17 5 -34 4t-34 -5t-33.5 -10t-31.5 -10v-269
q-4 -13 -14 -20.5t-22 -8.5t-23 5.5t-16 21.5q3 127 2.5 239t-0.5 230h-27q-12 3 -19.5 13.5t-8 22.5t6.5 23t23 16h25v170q0 22 11 33.5t24 12t24.5 -10.5t13.5 -34q-1 -44 -1 -86.5v-84.5h133v170zM136 388q13 5 30.5 10t35.5 8t35.5 3t31.5 -5v101h-134v-57.5t1 -59.5z
" />
    <glyph glyph-name="hcircumflex" unicode="&#x125;" horiz-adv-x="223" 
d="M154 541q0 15 7 24t15.5 10t16.5 -7t10 -27q-1 -130 0.5 -257.5t-0.5 -260.5q-3 -10 -9.5 -15t-14.5 -5t-15.5 4.5t-11.5 15.5q2 57 2 107v104q-23 8 -46.5 0t-44.5 -15v-196q-3 -10 -10 -15t-15 -5t-16 4.5t-12 15.5q2 69 2.5 131.5t0.5 125t-0.5 126.5t-0.5 135
q0 16 8 24.5t17 9t17 -7.5t9 -26q-1 -66 -1 -130t1 -133q18 8 45 13.5t46 -2.5v252zM27.6816 639.189q10.6826 12.332 27.9619 28.6709q17.2803 16.3389 30.4756 28.6709q4.39844 4.31641 10.9961 6.78223q6.59766 2.4668 13.8242 2.4668q7.22559 0 14.4521 -2.1582
q7.22559 -2.1582 12.2529 -7.70703q15.0801 -15.415 27.334 -29.5957q12.2529 -14.1816 24.8193 -29.5957q7.54102 -9.86523 5.96973 -19.4229q-1.57129 -9.55664 -8.48242 -14.4893q-6.91211 -4.93262 -17.2803 -4.00781t-19.793 12.0234q-0.628906 0 -9.42578 11.4062
q-8.79688 11.4072 -30.1611 32.9873q-12.5674 -12.9482 -23.249 -22.5049q-10.6816 -9.55762 -22.6211 -21.8887q-8.79688 -10.4814 -18.5361 -10.79t-16.3379 5.24023q-6.59766 5.5498 -8.16797 15.1064q-1.57129 9.55762 5.96875 18.8057z" />
    <glyph glyph-name="Scircumflex" unicode="&#x15c;" horiz-adv-x="329" 
d="M263 725q5 -17 0 -29.5t-15.5 -18.5t-24 -4.5t-26.5 13.5q-7 16 -22 26t-36 -1q-22 -13 -22 -34t6 -42q13 -44 36 -87t48.5 -86t50 -87t41 -89.5t20.5 -93.5t-11 -99q-10 -35 -37.5 -56.5t-62.5 -30t-71 -3t-62 23.5q-37 26 -47.5 62t-8.5 79q4 19 16.5 27.5t26 7
t23.5 -13t10 -30.5q-1 -29 9.5 -48t27 -27.5t35.5 -8t36 11t28 29.5t11 47q-1 36 -16.5 77t-38 85t-49 89.5t-49 91.5t-36.5 91t-12 88q1 28 15 49.5t35.5 35.5t47 19.5t50 1t44.5 -20.5t30 -45zM39 891q17 20 44.5 46.5t48.5 46.5q7 7 17.5 11t22 4t23 -3.5t19.5 -12.5
q24 -25 43.5 -48t39.5 -48q12 -16 9.5 -31.5t-13.5 -23.5t-27.5 -6.5t-31.5 19.5q-1 0 -15 18.5t-48 53.5q-20 -21 -37 -36.5t-36 -35.5q-14 -17 -29.5 -17.5t-26 8.5t-13 24.5t9.5 30.5z" />
    <glyph glyph-name="scircumflex" unicode="&#x15d;" horiz-adv-x="216" 
d="M161 527q3 -12 0 -21.5t-10 -14t-16 -3t-17 10.5q-5 11 -14.5 18.5t-23.5 -2.5q-14 -8 -14 -23t4 -31q13 -47 39 -93.5t49 -94t35 -98t-3 -105.5q-6 -26 -24 -41.5t-40.5 -21.5t-46 -2t-40.5 17q-23 19 -30 45t-5 56q2 15 10 21t16.5 5t15 -9.5t6.5 -22.5q-1 -32 14 -47
t33.5 -14t33.5 17t15 46q-1 40 -22 87t-46 96.5t-45 99.5t-18 95q1 31 20 51t43.5 26t48 -5t32.5 -42zM15.6816 639.189q10.6826 12.332 27.9619 28.6709q17.2803 16.3389 30.4756 28.6709q4.39844 4.31641 10.9961 6.78223q6.59766 2.4668 13.8242 2.4668
q7.22559 0 14.4521 -2.1582q7.22559 -2.1582 12.2529 -7.70703q15.0801 -15.415 27.334 -29.5957q12.2529 -14.1816 24.8193 -29.5957q7.54102 -9.86523 5.96973 -19.4229q-1.57129 -9.55664 -8.48242 -14.4893q-6.91211 -4.93262 -17.2803 -4.00781t-19.793 12.0234
q-0.628906 0 -9.42578 11.4062q-8.79688 11.4072 -30.1611 32.9873q-12.5674 -12.9482 -23.249 -22.5049q-10.6816 -9.55762 -22.6211 -21.8887q-8.79688 -10.4814 -18.5361 -10.79t-16.3379 5.24023q-6.59766 5.5498 -8.16797 15.1064q-1.57129 9.55762 5.96875 18.8057z
" />
    <glyph glyph-name="ccircumflex" unicode="&#x109;" horiz-adv-x="208" 
d="M17 394q5 60 16 105t36 68q32 23 56 12t40 -38.5t23.5 -62t7.5 -58.5q0 -12 -7 -20.5t-15 -11t-16 2t-9 17.5q-3 12 -6 33.5t-9 41.5t-14.5 32.5t-21.5 5.5q-9 -9 -15 -33q-17 -81 -19.5 -148t-0.5 -133q0 -5 1.5 -27t5 -47t9 -46.5t14.5 -26.5q13 -8 21.5 4t14.5 32
t9 41.5t6 33.5q1 13 8.5 17.5t16 2.5t15 -10.5t6.5 -21.5q-2 -16 -6 -37t-11.5 -42t-17.5 -40t-23.5 -30t-30.5 -11.5t-38 14.5q-20 16 -32 57.5t-17.5 95.5t-4.5 114t8 114zM27.6816 639.189q10.6826 12.332 27.9619 28.6709q17.2803 16.3389 30.4756 28.6709
q4.39844 4.31641 10.9961 6.78223q6.59766 2.4668 13.8242 2.4668q7.22559 0 14.4521 -2.1582q7.22559 -2.1582 12.2529 -7.70703q15.0801 -15.415 27.334 -29.5957q12.2529 -14.1816 24.8193 -29.5957q7.54102 -9.86523 5.96973 -19.4229
q-1.57129 -9.55664 -8.48242 -14.4893q-6.91211 -4.93262 -17.2803 -4.00781t-19.793 12.0234q-0.628906 0 -9.42578 11.4062q-8.79688 11.4072 -30.1611 32.9873q-12.5674 -12.9482 -23.249 -22.5049q-10.6816 -9.55762 -22.6211 -21.8887
q-8.79688 -10.4814 -18.5361 -10.79t-16.3379 5.24023q-6.59766 5.5498 -8.16797 15.1064q-1.57129 9.55762 5.96875 18.8057z" />
    <glyph glyph-name="gcircumflex" unicode="&#x11d;" horiz-adv-x="232" 
d="M120 234q-3 14 1.5 22.5t10.5 13.5t12 7t6 3q8 2 16 3q16 2 28 -5q11 -8 15.5 -24t5.5 -35t-0.5 -36t-2.5 -26q-2 -16 -7 -38t-14 -43.5t-21 -40t-27.5 -29.5t-33.5 -11t-39 17q-21 21 -33 62.5t-17 94t-3.5 111t6.5 111.5q4 31 9 59.5t11 51t14 38t19 21.5
q37 22 60.5 11t37 -38t18 -61t4.5 -59q0 -12 -7.5 -20t-16.5 -10t-17 2.5t-9 17.5q-2 12 -3.5 33.5t-4.5 41t-10 31.5t-21 4q-8 -3 -16 -31q-19 -80 -21 -147.5t0 -132.5q0 -5 1.5 -27t5.5 -47t10 -46.5t15 -25.5q12 -6 22 2.5t18 24.5t13.5 37.5t8.5 41.5t4 36.5t-2 23.5
q-16 -4 -28.5 -5t-17.5 16zM37.6816 639.189q10.6826 12.332 27.9619 28.6709q17.2803 16.3389 30.4756 28.6709q4.39844 4.31641 10.9961 6.78223q6.59766 2.4668 13.8242 2.4668q7.22559 0 14.4521 -2.1582q7.22559 -2.1582 12.2529 -7.70703
q15.0801 -15.415 27.334 -29.5957q12.2529 -14.1816 24.8193 -29.5957q7.54102 -9.86523 5.96973 -19.4229q-1.57129 -9.55664 -8.48242 -14.4893q-6.91211 -4.93262 -17.2803 -4.00781t-19.793 12.0234q-0.628906 0 -9.42578 11.4062q-8.79688 11.4072 -30.1611 32.9873
q-12.5674 -12.9482 -23.249 -22.5049q-10.6816 -9.55762 -22.6211 -21.8887q-8.79688 -10.4814 -18.5361 -10.79t-16.3379 5.24023q-6.59766 5.5498 -8.16797 15.1064q-1.57129 9.55762 5.96875 18.8057z" />
    <glyph glyph-name="gbreve" unicode="&#x11f;" horiz-adv-x="232" 
d="M120 234q-3 14 1.5 22.5t10.5 13.5t12 7t6 3q8 2 16 3q16 2 28 -5q11 -8 15.5 -24t5.5 -35t-0.5 -36t-2.5 -26q-2 -16 -7 -38t-14 -43.5t-21 -40t-27.5 -29.5t-33.5 -11t-39 17q-21 21 -33 62.5t-17 94t-3.5 111t6.5 111.5q4 31 9 59.5t11 51t14 38t19 21.5
q37 22 60.5 11t37 -38t18 -61t4.5 -59q0 -12 -7.5 -20t-16.5 -10t-17 2.5t-9 17.5q-2 12 -3.5 33.5t-4.5 41t-10 31.5t-21 4q-8 -3 -16 -31q-19 -80 -21 -147.5t0 -132.5q0 -5 1.5 -27t5.5 -47t10 -46.5t15 -25.5q12 -6 22 2.5t18 24.5t13.5 37.5t8.5 41.5t4 36.5t-2 23.5
q-16 -4 -28.5 -5t-17.5 16zM53.9658 707.08q3.16113 11.9473 11.3799 17.292t16.4375 4.40137t14.2246 -7.85938q6.00586 -6.91699 5.37305 -18.8643q-1.89648 -28.2949 6.63867 -41.8135q8.53418 -13.5195 19.9141 -13.5195t21.8115 12.2617
q10.4307 12.2617 12.3271 35.5264q-1.26367 15.0908 6.00586 23.8936q7.27051 8.80273 16.4375 10.0605t17.0693 -5.65918q7.90332 -6.91602 7.90332 -23.2646q0 -33.9541 -12.9609 -56.2764q-12.96 -22.3213 -32.2422 -32.6963t-41.0928 -9.43262
q-21.8115 0.943359 -39.1963 12.8906q-17.3857 11.9463 -26.5527 35.2119q-9.16699 23.2646 -3.47754 57.8477z" />
    <glyph glyph-name="ubreve" unicode="&#x16d;" horiz-adv-x="253" 
d="M23 552q0 10 8.5 17t18.5 8t19 -5t10 -23l-4 -72q-5 -76 -4 -152.5t9 -152.5q1 -5 3 -22t6 -36.5t10.5 -36t17.5 -19.5q4 -2 13 6.5t18.5 21.5t16.5 27t9 24q6 42 6.5 94.5t0 107.5t-0.5 109.5t3 99.5v1q0 13 7 19.5t15.5 7t16 -5.5t10.5 -18q2 -59 1 -124.5t-3 -131.5
t-3 -131.5t2 -124.5q0 -20 -7.5 -31t-17 -11t-18 12t-9.5 39q-9 -18 -22.5 -31t-29 -17t-31 2t-29.5 27q-21 30 -31 82t-14 110t-3.5 112t0.5 87q0 2 0.5 20.5t1 41t1.5 43t3 26.5zM53.9658 707.08q3.16113 11.9473 11.3799 17.292t16.4375 4.40137t14.2246 -7.85938
q6.00586 -6.91699 5.37305 -18.8643q-1.89648 -28.2949 6.63867 -41.8135q8.53418 -13.5195 19.9141 -13.5195t21.8115 12.2617q10.4307 12.2617 12.3271 35.5264q-1.26367 15.0908 6.00586 23.8936q7.27051 8.80273 16.4375 10.0605t17.0693 -5.65918
q7.90332 -6.91602 7.90332 -23.2646q0 -33.9541 -12.9609 -56.2764q-12.96 -22.3213 -32.2422 -32.6963t-41.0928 -9.43262q-21.8115 0.943359 -39.1963 12.8906q-17.3857 11.9463 -26.5527 35.2119q-9.16699 23.2646 -3.47754 57.8477z" />
    <glyph glyph-name="jcircumflex" unicode="&#x135;" horiz-adv-x="255" 
d="M92 522q-13 2 -19 10.5t-5.5 18.5t7.5 17.5t20 7.5h119q12 0 19.5 -7t8.5 -16.5t-4.5 -18.5t-18.5 -12h-43q1 -45 2.5 -85.5t2.5 -80.5t0 -80.5t-5 -85.5q-1 -29 -3.5 -59.5t-10.5 -59.5q-9 -34 -32 -54t-48 -17.5t-45.5 32t-23.5 95.5q2 12 9 18.5t14.5 7t14.5 -5
t10 -18.5q1 -14 3 -27.5t5.5 -24t10 -15.5t16.5 -1q12 6 18 24t9 39.5t3.5 42t1.5 30.5q12 163 0 325h-36v0zM72.6816 639.189q10.6826 12.332 27.9619 28.6709q17.2803 16.3389 30.4756 28.6709q4.39844 4.31641 10.9961 6.78223q6.59766 2.4668 13.8242 2.4668
q7.22559 0 14.4521 -2.1582q7.22559 -2.1582 12.2529 -7.70703q15.0801 -15.415 27.334 -29.5957q12.2529 -14.1816 24.8193 -29.5957q7.54102 -9.86523 5.96973 -19.4229q-1.57129 -9.55664 -8.48242 -14.4893q-6.91211 -4.93262 -17.2803 -4.00781t-19.793 12.0234
q-0.628906 0 -9.42578 11.4062q-8.79688 11.4072 -30.1611 32.9873q-12.5674 -12.9482 -23.249 -22.5049q-10.6816 -9.55762 -22.6211 -21.8887q-8.79688 -10.4814 -18.5361 -10.79t-16.3379 5.24023q-6.59766 5.5498 -8.16797 15.1064q-1.57129 9.55762 5.96875 18.8057z
" />
    <glyph glyph-name="ntilde" unicode="&#xf1;" horiz-adv-x="234" 
d="M21 549v1q0 1 1 2q0 10 4.5 16.5t11 8.5t14 -1.5t13.5 -12.5q14 -32 24.5 -67t20.5 -71q14 -49 27 -99t26 -101q1 33 2 81t1.5 96t0 88.5t-0.5 58.5q0 16 8 22.5t17 5t16.5 -9t7.5 -18.5q-3 -134 -1 -264t-4 -264q-9 -20 -22.5 -21.5t-24.5 17.5q-11 43 -18.5 79.5
t-18.5 80.5q-14 58 -28.5 114.5t-30.5 113.5l-2 6q0 -98 0.5 -196.5t-0.5 -196.5q-2 -10 -8 -15t-13.5 -5.5t-14.5 4.5t-10 15q1 68 1.5 133t0.5 130v131.5v137.5zM59.6055 612.457q-20.252 -3.82422 -27.5303 7.64844t-0.316406 29.957q3.79688 12.1104 11.0752 24.8584
t16.7715 21.3525t20.5684 11.1543t23.7324 -4.46191q6.96191 -3.82422 14.5566 -12.1104q7.59375 -8.28613 14.8721 -14.6602q7.27832 -6.37305 14.5566 -8.92285q7.27734 -2.5498 14.2393 5.09863q5.0625 8.28613 6.0127 13.7041q0.949219 5.41797 2.21484 7.96777
q3.79688 9.56055 11.3916 12.7471q7.59473 3.1875 14.8721 0q7.27832 -3.18652 11.708 -12.4287q4.43066 -9.24219 1.2666 -25.1768q-3.16504 -15.2979 -11.709 -28.0449q-8.54297 -12.748 -20.8848 -20.0781q-12.3408 -7.33008 -27.2129 -7.01172
q-14.873 0.319336 -29.4287 11.1543q-8.86035 7.01172 -16.7715 15.2979t-18.0371 15.2969q-6.96094 -11.4727 -10.126 -22.9453q-3.16406 -11.4736 -15.8213 -20.3965z" />
    <glyph glyph-name="cdotaccent" unicode="&#x10b;" horiz-adv-x="208" 
d="M17 394q5 60 16 105t36 68q32 23 56 12t40 -38.5t23.5 -62t7.5 -58.5q0 -12 -7 -20.5t-15 -11t-16 2t-9 17.5q-3 12 -6 33.5t-9 41.5t-14.5 32.5t-21.5 5.5q-9 -9 -15 -33q-17 -81 -19.5 -148t-0.5 -133q0 -5 1.5 -27t5 -47t9 -46.5t14.5 -26.5q13 -8 21.5 4t14.5 32
t9 41.5t6 33.5q1 13 8.5 17.5t16 2.5t15 -10.5t6.5 -21.5q-2 -16 -6 -37t-11.5 -42t-17.5 -40t-23.5 -30t-30.5 -11.5t-38 14.5q-20 16 -32 57.5t-17.5 95.5t-4.5 114t8 114zM131.553 661.097q11.1846 -15.0459 8.22363 -30.0908q-2.95996 -15.0459 -13.1572 -23.9365
t-24.3428 -8.89062q-14.1445 0 -24.6709 15.7295q-9.21094 14.3613 -6.25 27.3555t12.1709 20.5176q9.21094 7.52246 22.6973 8.54883q13.4873 1.02539 25.3291 -9.2334z" />
    <glyph glyph-name="gdotaccent" unicode="&#x121;" horiz-adv-x="232" 
d="M120 234q-3 14 1.5 22.5t10.5 13.5t12 7t6 3q8 2 16 3q16 2 28 -5q11 -8 15.5 -24t5.5 -35t-0.5 -36t-2.5 -26q-2 -16 -7 -38t-14 -43.5t-21 -40t-27.5 -29.5t-33.5 -11t-39 17q-21 21 -33 62.5t-17 94t-3.5 111t6.5 111.5q4 31 9 59.5t11 51t14 38t19 21.5
q37 22 60.5 11t37 -38t18 -61t4.5 -59q0 -12 -7.5 -20t-16.5 -10t-17 2.5t-9 17.5q-2 12 -3.5 33.5t-4.5 41t-10 31.5t-21 4q-8 -3 -16 -31q-19 -80 -21 -147.5t0 -132.5q0 -5 1.5 -27t5.5 -47t10 -46.5t15 -25.5q12 -6 22 2.5t18 24.5t13.5 37.5t8.5 41.5t4 36.5t-2 23.5
q-16 -4 -28.5 -5t-17.5 16zM141.553 661.097q11.1846 -15.0459 8.22363 -30.0908q-2.95996 -15.0459 -13.1572 -23.9365t-24.3428 -8.89062q-14.1445 0 -24.6709 15.7295q-9.21094 14.3613 -6.25 27.3555t12.1709 20.5176q9.21094 7.52246 22.6973 8.54883
q13.4873 1.02539 25.3291 -9.2334z" />
    <glyph glyph-name="hbar" unicode="&#x127;" horiz-adv-x="242" 
d="M18 418q-8 3 -13 9.5t-5 14t4.5 15t14.5 10.5h83q11 0 16 -7t4.5 -16t-5.5 -17t-15 -9h-84zM176 541q0 15 7 24t15.5 10t16.5 -7t10 -27q-1 -130 0.5 -257.5t-0.5 -260.5q-3 -10 -9.5 -15t-14.5 -5t-15.5 4.5t-11.5 15.5q2 57 2 107v104q-23 8 -46.5 0t-44.5 -15v-196
q-3 -10 -10 -15t-15 -5t-16 4.5t-12 15.5q2 69 2.5 131.5t0.5 125t-0.5 126.5t-0.5 135q0 16 8 24.5t17 9t17 -7.5t9 -26q-1 -66 -1 -130t1 -133q18 8 45 13.5t46 -2.5v252z" />
    <glyph glyph-name="uni0157" unicode="&#x157;" horiz-adv-x="253" 
d="M17 541q2 15 12 21t20 0q19 12 43.5 14t47 -5t39 -21.5t19.5 -36.5q4 -36 -4.5 -67.5t-25 -59.5t-39 -53t-44.5 -48q29 -38 48 -70.5t42 -70.5q16 -26 30 -53t28 -55q3 -12 -0.5 -21t-10 -13.5t-15.5 -3t-17 10.5q-30 56 -59.5 108.5t-67.5 109.5v-208q-2 -9 -9 -14.5
t-14.5 -6t-15 4t-10.5 15.5q3 151 3 277.5v245.5zM62 500v-163q30 29 54 60t33 67q7 29 -4 42.5t-28 15.5t-34 -4.5t-21 -17.5zM133.279 -38.5371q9.64258 -11.6562 13.8613 -29.4648t2.41016 -35.9404q-1.80762 -18.1328 -9.94336 -33.6748t-22.5996 -23.3125
q-11.4512 -4.5332 -19.5869 -0.324219t-11.1494 12.3037q-3.0127 8.09473 0 17.4854q3.01367 9.38965 13.2588 15.2178q3.61621 1.94336 4.21875 7.44727q0.602539 5.50488 0.602539 11.9805q-10.8477 1.94238 -20.4902 14.2471q-8.4375 13.5986 -5.72559 25.9033
q2.71191 12.3037 11.1494 19.4268q8.4375 7.12402 20.792 8.0957q12.3545 0.970703 23.2021 -8.0957v-1.29492z" />
    <glyph glyph-name="uni013C" unicode="&#x13c;" horiz-adv-x="208" 
d="M43 -3q-9 -1 -17.5 4.5t-12.5 16.5q1 69 2 134.5t1 131v132v138.5q5 23 22 25t25 -23q-2 -121 -1 -245t1 -248q28 8 57 10t56 -3q11 -5 15.5 -13.5t3.5 -17.5t-7 -17t-16 -10h-1h-64.5t-63.5 -15zM123.279 -38.5371q9.64258 -11.6562 13.8613 -29.4648t2.41016 -35.9404
q-1.80762 -18.1328 -9.94336 -33.6748t-22.5996 -23.3125q-11.4512 -4.5332 -19.5869 -0.324219t-11.1494 12.3037q-3.0127 8.09473 0 17.4854q3.01367 9.38965 13.2588 15.2178q3.61621 1.94336 4.21875 7.44727q0.602539 5.50488 0.602539 11.9805
q-10.8477 1.94238 -20.4902 14.2471q-8.4375 13.5986 -5.72559 25.9033q2.71191 12.3037 11.1494 19.4268q8.4375 7.12402 20.792 8.0957q12.3545 0.970703 23.2021 -8.0957v-1.29492z" />
    <glyph glyph-name="uni0137" unicode="&#x137;" horiz-adv-x="223" 
d="M16 554q2 11 8 17.5t13.5 6.5t14 -5.5t10.5 -18.5q-1 -51 -1 -104v-106q29 53 56.5 105t58.5 94q10 9 19 7.5t14 -9.5t5 -20t-8 -24q-34 -53 -60.5 -103t-57.5 -96q15 -29 31.5 -62t32.5 -66.5t30 -66t25 -60.5q5 -13 2.5 -24t-9 -16t-15 -2.5t-15.5 16.5
q-31 59 -56.5 115t-51.5 110v-223q-2 -9 -8.5 -14.5t-14 -6t-15 4t-10.5 15.5q1 69 1.5 134.5t0.5 131v132v138.5zM123.279 -38.5371q9.64258 -11.6562 13.8613 -29.4648t2.41016 -35.9404q-1.80762 -18.1328 -9.94336 -33.6748t-22.5996 -23.3125
q-11.4512 -4.5332 -19.5869 -0.324219t-11.1494 12.3037q-3.0127 8.09473 0 17.4854q3.01367 9.38965 13.2588 15.2178q3.61621 1.94336 4.21875 7.44727q0.602539 5.50488 0.602539 11.9805q-10.8477 1.94238 -20.4902 14.2471q-8.4375 13.5986 -5.72559 25.9033
q2.71191 12.3037 11.1494 19.4268q8.4375 7.12402 20.792 8.0957q12.3545 0.970703 23.2021 -8.0957v-1.29492z" />
    <glyph glyph-name="uni0146" unicode="&#x146;" horiz-adv-x="234" 
d="M21 549v1q0 1 1 2q0 10 4.5 16.5t11 8.5t14 -1.5t13.5 -12.5q14 -32 24.5 -67t20.5 -71q14 -49 27 -99t26 -101q1 33 2 81t1.5 96t0 88.5t-0.5 58.5q0 16 8 22.5t17 5t16.5 -9t7.5 -18.5q-3 -134 -1 -264t-4 -264q-9 -20 -22.5 -21.5t-24.5 17.5q-11 43 -18.5 79.5
t-18.5 80.5q-14 58 -28.5 114.5t-30.5 113.5l-2 6q0 -98 0.5 -196.5t-0.5 -196.5q-2 -10 -8 -15t-13.5 -5.5t-14.5 4.5t-10 15q1 68 1.5 133t0.5 130v131.5v137.5zM133.279 -38.5371q9.64258 -11.6562 13.8613 -29.4648t2.41016 -35.9404
q-1.80762 -18.1328 -9.94336 -33.6748t-22.5996 -23.3125q-11.4512 -4.5332 -19.5869 -0.324219t-11.1494 12.3037q-3.0127 8.09473 0 17.4854q3.01367 9.38965 13.2588 15.2178q3.61621 1.94336 4.21875 7.44727q0.602539 5.50488 0.602539 11.9805
q-10.8477 1.94238 -20.4902 14.2471q-8.4375 13.5986 -5.72559 25.9033q2.71191 12.3037 11.1494 19.4268q8.4375 7.12402 20.792 8.0957q12.3545 0.970703 23.2021 -8.0957v-1.29492z" />
    <glyph glyph-name="edotaccent" unicode="&#x117;" 
d="M45 0q-11 2 -18 10.5t-10 19.5q1 63 1.5 121.5t0.5 116.5t-0.5 117.5t-0.5 124.5q-9 22 -2.5 35.5t22 20.5t36.5 8.5t41.5 -1t37.5 -7t23 -10.5q15 -20 4 -33t-30 -9q-23 1 -43.5 3.5t-43.5 -2.5v-111.5t2 -114.5q15 0 29.5 3t28.5 3q14 5 24 -7t2 -32q-14 -14 -37.5 -19
t-46.5 -3q1 -48 1 -90.5t-1 -90.5q24 1 49.5 5.5t48.5 14.5l-1 -2q11 1 18 -4.5t9 -13.5t-1 -17t-12 -15q-29 -13 -64 -18t-67 -3zM122.553 661.097q11.1846 -15.0459 8.22363 -30.0908q-2.95996 -15.0459 -13.1572 -23.9365t-24.3428 -8.89062q-14.1445 0 -24.6709 15.7295
q-9.21094 14.3613 -6.25 27.3555t12.1709 20.5176q9.21094 7.52246 22.6973 8.54883q13.4873 1.02539 25.3291 -9.2334z" />
    <glyph glyph-name="iogonek" unicode="&#x12f;" horiz-adv-x="221" 
d="M30 0q-11 2 -15.5 11t-4 18.5t6.5 17.5t17 9q2 0 8 -0.5t13 -0.5h14t10 1q2 117 1 228t-1 234h-17t-8.5 -0.5l-7 -1t-12.5 -1.5q-11 2 -17.5 9t-7.5 15.5t3.5 17t15.5 13.5q7 3 30.5 5t50.5 2t50.5 -0.5t30.5 -1.5q12 -3 17.5 -12t4.5 -18t-8 -16.5t-18 -7.5
q-12 0 -27.5 -1t-30.5 -1q-1 -114 0 -231t1 -231h27.5t26.5 -1q10 -3 15 -11.5t5.5 -17.5t-4 -17t-13.5 -10q-15 -2 -36.5 -2.5t-43 -0.5t-42 1t-34.5 2zM124.755 -19.3193q-6.56543 -9.85156 -13.7285 -19.7041q-7.16211 -9.85156 -13.7275 -21.0176
q2.3877 0 6.56543 1.31348q4.17773 1.31445 8.6543 3.28418q4.47656 1.9707 8.65527 3.6123q4.17773 1.64258 5.96777 2.29883q12.5342 4.59766 19.6973 3.94141q7.16211 -0.657227 10.4443 -4.59766q3.2832 -3.94141 3.2832 -10.1807t-2.3877 -11.4941
q-5.37207 -13.1357 -21.4873 -23.3164q-16.1152 -10.1797 -34.0205 -13.793q-17.9062 -3.6123 -33.4248 1.31445q-15.5186 4.92578 -19.6963 22.002q-3.58105 13.1367 -0.895508 25.6152q2.68652 12.4795 8.35645 23.9736t13.4297 22.0029q7.75879 10.5088 14.9209 20.3604
q7.16211 10.5088 19.3984 15.7637q12.2354 5.25391 21.4873 3.2832q9.25098 -1.96973 11.042 -12.8076q1.79004 -10.8369 -12.5342 -31.8545z" />
    </font>
</defs>
</svg>
